<?xml version="1.0" encoding="utf-8" ?>
<svg baseProfile="full" height="200mm" version="1.1" viewBox="0,0,200,200" width="200mm" xmlns="http://www.w3.org/2000/svg" xmlns:ev="http://www.w3.org/2001/xml-events" xmlns:xlink="http://www.w3.org/1999/xlink"><defs /><rect fill="#1a1a1a" height="200" width="200" x="0" y="0" /><text alignment-baseline="middle" fill="#e1ed5e" style="dominant-baseline: central; font-size:9.0px; font-family:Arial;" text-anchor="middle" x="100.0" y="100.0">2024</text><line stroke="#e1ed5e" stroke-width="0.3" x1="100.0" x2="100.0" y1="15.0" y2="10.0" /><path d="M 100.0 14.0 a86.0,86.0 0 0,1 42.35913384403234,11.155469271406648" fill="none" id="id25" stroke="none" /><text fill="#e1ed5e" style="font-size:6.75px; font-family:Arial;" text-anchor="middle"><textPath startOffset="22.145653131862478" xlink:href="#id25">January</textPath></text><path d="M 100.36049292484886 79.00309439819443 l 0.6263879581117553 -36.48395826934645 a57.489335056609086,57.489335056609086 0 0,0 0.9865900446346713,0.025411059873971735 l -1.2525913168171678 36.46782949212243" fill="#58ff2a" stroke="none" /><path d="M 101.08105385017728 79.02784411241856 l 1.7656468780713186 -34.25307773822822 a55.298554538626675,55.298554538626675 0 0,0 0.9475951033159936,0.057004968329270635 l -2.3533863335197744 34.21772079207425" fill="#70ff27" stroke="none" /><path d="M 102.15924093988457 79.11130261209362 l 4.8177934429897595 -46.60778121103643 a67.85612449909996,67.85612449909996 0 0,0 1.157638726882578,0.12971583395050815 l -5.6171680714731345 46.51820961657895" fill="#38ff7f" stroke="none" /><path d="M 102.87502721639298 79.19773525538626 l 5.920018016183523 -42.83430131142787 a64.24146137852107,64.24146137852107 0 0,0 1.091110307275818,0.16035564072254152 l -6.654453429067022 42.72636459740645" fill="#33ff53" stroke="none" /><path d="M 103.58742460773223 79.30868818359171 l 5.834505076580153 -33.65187482232606 a55.15391820195952,55.15391820195952 0 0,0 0.931484718800065,0.16974754515393892 l -6.411324528931272 33.54675910324075" fill="#72ff27" stroke="none" /><path d="M 104.29559338865022 79.4440306129975 l 6.881080358402181 -32.92846049408457 a54.63974996056416,54.63974996056416 0 0,0 0.9164844515544706,0.1997435205909861 l -7.4453272265757855 32.80548551535986" fill="#78ff26" stroke="none" /><path d="M 105.3480935250658 79.69241777938227 l 8.710780881523569 -33.07625383292981 a55.20403881395178,55.20403881395178 0 0,0 0.9143329258578835,0.2492055048004872 l -9.277295208316145 32.921847833985176" fill="#71ff27" stroke="none" /><path d="M 106.04205211174951 79.88797359093562 l 10.908792033161287 -36.31182078606787 a58.91503755005755,58.91503755005755 0 0,0 0.9660926211943791,0.2992979635876037 l -11.530525287227297 36.11920623467362" fill="#49ff2c" stroke="none" /><path d="M 106.72888874123014 80.10723608172694 l 13.590132616020451 -40.17681227095079 a63.41306342126497,63.41306342126497 0 0,0 1.0281800986611385,0.3576544108210479 l -14.27781848672661 39.937599427561146" fill="#32ff49" stroke="none" /><path d="M 107.74402155503746 80.48000691201159 l 12.760780191098036 -32.16550204015644 a55.60429211211852,55.60429211211852 0 0,0 0.8842288233097906,0.3596081646530076 l -13.311063475598266 31.941706618924137" fill="#6dff28" stroke="none" /><path d="M 108.4095320186766 80.7573450057729 l 13.4665304340384 -30.81405701719889 a54.628166048568076,54.628166048568076 0 0,0 0.8560665368171803,0.3829076731915695 l -13.993510373711214 30.578345593097467" fill="#78ff26" stroke="none" /><path d="M 109.3889696526874 81.21577127319529 l 18.97337053343818 -37.95945082392588 a63.43711460800778,63.43711460800778 0 0,0 0.9699014587460558,0.4952385956572374 l -19.62219921389782 37.62815427659581" fill="#32ff49" stroke="none" /><path d="M 110.02825361518725 81.54914285379988 l 16.499586522805803 -30.357380814802426 a55.55151118776846,55.55151118776846 0 0,0 0.8339493694597822,0.4625776573660972 l -17.018280080421686 30.06967024200318" fill="#6dff28" stroke="none" /><line stroke="#e1ed5e" stroke-width="0.3" x1="143.13028292997686" x2="145.6673583964461" y1="26.7553504044142" y2="22.446841604673864" /><path d="M 143.63769802327073 25.89364864446614 a86.0,86.0 0 0,1 29.32050498858742,28.57503671076993" fill="none" id="id26" stroke="none" /><text fill="#e1ed5e" style="font-size:6.75px; font-family:Arial;" text-anchor="middle"><textPath startOffset="20.669276256404974" xlink:href="#id26">February</textPath></text><path d="M 110.65571695917076 81.90426304109057 l 18.747101669235775 -31.83667714225988 a57.94628306686825,57.94628306686825 0 0,0 0.8528237131056949,0.512096136104437 l -19.290858138898905 31.51016700561952" fill="#53ff2b" stroke="none" /><path d="M 111.5731344415666 82.4767994020092 l 13.915524871293089 -21.06987825788972 a46.25037825946119,46.25037825946119 0 0,0 0.6587457054439337,0.4432335095094338 l -14.275166864834024 20.827895074323166" fill="#dbff1b" stroke="none" /><path d="M 112.16784306229584 82.88440491214696 l 23.615683445875593 -33.21841623968616 a61.757375799833426,61.757375799833426 0 0,0 0.8587774515725012,0.6216886479099014 l -24.182441907822064 32.80812682040318" fill="#30ff34" stroke="none" /><path d="M 116.57777611688842 87.10902102172516 l 20.26450473399258 -15.757801449913737 a46.67018618259149,46.67018618259149 0 0,0 0.4863656172650716,0.6366682055460391 l -20.53202232861196 15.407612331126817" fill="#d5ff1c" stroke="none" /><path d="M 117.21940702142032 87.97951657250589 l 24.13489007993208 -16.848027685815516 a50.43380634699512,50.43380634699512 0 0,0 0.4894727307136194,0.7141553421809553 l -24.42055254746103 16.431237608564512" fill="#a8ff21" stroke="none" /><path d="M 117.81537515405839 88.88188828441811 l 25.550203736706955 -15.945216816603159 a51.1174841299156,51.1174841299156 0 0,0 0.45818800427108003,0.7484156708114837 l -25.820159705433436 15.504264029667121" fill="#a0ff22" stroke="none" /><line stroke="#e1ed5e" stroke-width="0.3" x1="172.87174338648825" x2="177.1583165268699" y1="56.24261187166439" y2="53.66864786411523" /><path d="M 173.72905801456457 55.72781907015455 a86.0,86.0 0 0,1 12.242430191666344,42.057860355516425" fill="none" id="id27" stroke="none" /><text fill="#e1ed5e" style="font-size:6.75px; font-family:Arial;" text-anchor="middle"><textPath startOffset="22.145653131862474" xlink:href="#id27">March</textPath></text><path d="M 118.36410011445183 89.81374322990088 l 30.376863794203224 -16.8495342842623 a55.73702145504282,55.73702145504282 0 0,0 0.45692321152738663,0.8406872448765308 l -30.66163235534595 16.325592205911168" fill="#6bff28" stroke="none" /><path d="M 118.70294669586156 90.45014215332178 l 26.248154632860878 -13.402494781045135 a50.47189318633124,50.47189318633124 0 0,0 0.38738400591146716,0.7750275100808423 l -26.474358551984082 12.949935414800542" fill="#a7ff21" stroke="none" /><path d="M 119.16976305983485 91.42560881287824 l 31.672326089078407 -14.16662860392079 a55.69624772067353,55.69624772067353 0 0,0 0.3828881461740382,0.8761230092047078 l -31.910848117269417 13.620843524940232" fill="#6cff28" stroke="none" /><path d="M 119.58574465831526 92.42381321644754 l 40.74733316533841 -15.761943820766628 a64.68963301626704,64.68963301626704 0 0,0 0.3917398283320697,1.0391364361421978 l -41.01190367748492 15.060139104430274" fill="#34ff59" stroke="none" /><path d="M 119.94978838288452 93.4421083053983 l 32.367789172606656 -10.639935207020203 a55.07171843526388,55.07171843526388 0 0,0 0.28751445253738195,0.900634927547549 l -32.545668340921296 10.082731245781266" fill="#73ff27" stroke="none" /><path d="M 120.16314734710363 94.1308016681162 l 40.53528513917412 -11.799230736438068 a63.21766439875441,63.21766439875441 0 0,0 0.29435802630634367,1.044572791225065 l -40.73186165755505 11.10165002130999" fill="#32ff46" stroke="none" /><path d="M 120.35273937422433 94.82641323984039 l 24.48559887378715 -6.224143483527126 a46.26429326760477,46.26429326760477 0 0,0 0.1890501637747077,0.7713891817273685 l -24.58883656407815 5.802898477191662" fill="#daff1b" stroke="none" /><path d="M 120.43855184770803 95.1765574152323 l 28.423699498713226 -6.707915687975134 a50.20450009964446,50.20450009964446 0 0,0 0.19075113375612776,0.8404846912757012 l -28.534661494027024 6.218996662760406" fill="#abff21" stroke="none" /><path d="M 120.592083275326 95.88100663000786 l 33.133064440572426 -6.627540833703211 a54.78941042287551,54.78941042287551 0 0,0 0.17656202604717253,0.9238471282893905 l -33.24195275890175 6.057791140380506" fill="#76ff27" stroke="none" /><path d="M 120.7213421655516 96.59031103205396 l 33.78182855197962 -5.5587870327348226 a55.236122058297525,55.236122058297525 0 0,0 0.14592464913633346,0.9369409267353801 l -33.87227469325422 4.978057924068001" fill="#71ff27" stroke="none" /><path d="M 120.82617615685814 97.30363454192243 l 41.84507674530732 -5.417682952302144 a63.194332989067675,63.194332989067675 0 0,0 0.13005367771426754,1.0770310171140323 l -41.93191250928125 4.698558258264698" fill="#32ff46" stroke="none" /><path d="M 120.9064616781168 98.02013634271609 l 33.89325964730279 -3.209726927288769 a55.044902650283,55.044902650283 0 0,0 0.08101135856551304,0.9414747848208236 l -33.943364628566044 2.6274310950922835" fill="#73ff27" stroke="none" /><path d="M 120.96210409425399 98.7389718711861 l 33.77423611211296 -2.03177417567789 a54.83529416537865,54.83529416537865 0 0,0 0.04845980482812867,0.9401072675247952 l -33.80413750639766 1.451695114776364" fill="#75ff27" stroke="none" /><path d="M 120.99303781780057 99.45929381324524 l 34.83871374585365 -0.897321684667685 a55.85026774174493,55.85026774174493 0 0,0 0.016458723912028794,0.9586381548316822 l -34.84898390136435 0.29913661386693635" fill="#6aff28" stroke="none" /><line stroke="#e1ed5e" stroke-width="0.3" x1="184.99686870605535" x2="189.99668451229388" y1="99.2704041080226" y2="99.22748670261217" /><path d="M 185.99683186730306 99.26182062694052 a86.0,86.0 0 0,1 -10.086455211305974,41.156179273409016" fill="none" id="id28" stroke="none" /><text fill="#e1ed5e" style="font-size:6.75px; font-family:Arial;" text-anchor="middle"><textPath startOffset="21.40746469413373" xlink:href="#id28">April</textPath></text><path d="M 120.99922638620191 100.18025310272382 l 34.95939608795351 0.30008436969589425 a55.96068399593113,55.96068399593113 0 0,0 -0.01649126289019641,0.9605333871816012 l -34.94909339346464 -0.9001646728465665" fill="#69ff28" stroke="none" /><path d="M 120.86939407059847 102.33845913500097 l 33.839162905061826 3.791748785251575 a55.05093691759111,55.05093691759111 0 0,0 -0.11329460204900715,0.9382418292426865 l -33.76908621675315 -4.3720842914176705" fill="#73ff27" stroke="none" /><path d="M 120.77682067341334 103.0534771498775 l 35.43636173045646 5.207924856241513 a56.817010120891126,56.817010120891126 0 0,0 -0.1501010925081901,0.9637566891610382 l -35.34173914581 -5.815469727334001" fill="#60ff29" stroke="none" /><path d="M 120.65975698304385 103.76489593502545 l 33.278324130196495 6.06441921582453 a54.82638078984626,54.82638078984626 0 0,0 -0.1766811651809093,0.9244705145805391 l -33.16931667273343 -6.634792295438383" fill="#76ff27" stroke="none" /><path d="M 120.51834098615036 104.47187691870673 l 41.39654881133689 9.022185140040694 a63.36831455451785,63.36831455451785 0 0,0 -0.24076682013561504,1.0608630339771883 l -41.23557112964362 -9.7314825079569" fill="#32ff48" stroke="none" /><path d="M 120.35273937422433 105.17358676015961 l 20.38506312493012 5.181803331187977 a42.03335171508565,42.03335171508565 0 0,0 -0.18376684973711405,0.6977926606873203 l -20.293106794388276 -5.5309764962481" fill="#ffee16" stroke="none" /><path d="M 120.16314734710363 105.8691983318838 l 32.33147300908079 9.411220589006968 a54.67336068633287,54.67336068633287 0 0,0 -0.2700439127693012,0.8988883585862864 l -32.165152776307856 -9.964846551183976" fill="#77ff27" stroke="none" /><path d="M 119.94978838288452 106.5578916946017 l 32.24728637807398 10.600323544967683 a54.94487204288023,54.94487204288023 0 0,0 -0.3022349395616028,0.8935038951845291 l -32.06056601694001 -11.152329114626372" fill="#74ff27" stroke="none" /><path d="M 119.71291397450082 107.23885506374661 l 33.32485807047954 12.237349480861637 a56.50068855296119,56.50068855296119 0 0,0 -0.34215018701396843,0.9075940209421237 l -33.10987719965113 -12.80761178199792" fill="#63ff29" stroke="none" /><path d="M 119.4528033332814 107.91128576633889 l 42.56715750732073 17.31169238343219 a66.95277566623844,66.95277566623844 0 0,0 -0.4421247438787504,1.0609384354473925 l -42.26370691890549 -18.039863328320862" fill="#37ff74" stroke="none" /><path d="M 119.16976305983485 108.57439118712176 l 31.36967076977979 14.031254729218771 a55.36469632457998,55.36469632457998 0 0,0 -0.39550307367948456,0.8642455929302494 l -31.12418323124525 -14.56768930436371" fill="#70ff27" stroke="none" /><path d="M 118.8641267826498 109.22738970284198 l 30.710562600109906 15.02207509363082 a55.1877374994888,55.1877374994888 0 0,0 -0.423579253324559,0.8474422511420283 l -30.448163433573615 -15.547049200936593" fill="#71ff27" stroke="none" /><line stroke="#e1ed5e" stroke-width="0.3" x1="174.33088141563837" x2="178.70328620479359" y1="141.23008692659167" y2="143.65538615756765" /><path d="M 175.20536237346943 141.71514677278685 a86.0,86.0 0 0,1 -30.301960400862466,31.631185727798858" fill="none" id="id29" stroke="none" /><text fill="#e1ed5e" style="font-size:6.75px; font-family:Arial;" text-anchor="middle"><textPath startOffset="22.145653131862474" xlink:href="#id29">May</textPath></text><path d="M 117.423217284605 111.72311816256416 l 29.093983864772838 19.575730767464822 a56.066638450298186,56.066638450298186 0 0,0 -0.5441407780207406,0.7939176569764275 l -28.75365334993678 -20.072283159511294" fill="#68ff28" stroke="none" /><path d="M 117.01052211995028 112.31430620078461 l 32.24099599343445 23.339994744534156 a60.802477024973435,60.802477024973435 0 0,0 -0.6193108114258339,0.8402140577843491 l -31.835583162424786 -23.89001511158738" fill="#35ff2f" stroke="none" /><path d="M 116.57777611688842 112.89097897827486 l 28.932773948982426 22.498300021047466 a57.650769599286456,57.650769599286456 0 0,0 -0.6142101170813955,0.7760344182708566 l -28.542297401259468 -22.991654383233005" fill="#57ff2a" stroke="none" /><path d="M 116.1254893667686 113.45245675266167 l 35.488250721878394 29.60556093556564 a67.21585418023119,67.21585418023119 0 0,0 -0.7467535332743324,0.8796737845121121 l -34.97480262509695 -30.21040150252731" fill="#37ff77" stroke="none" /><path d="M 115.6541949942343 113.99807769240083 l 27.46714478323669 24.561290235989922 a57.846994729554545,57.846994729554545 0 0,0 -0.6682768533703615,0.7345533267278856 l -27.041470229024448 -25.02918113827548" fill="#54ff2b" stroke="none" /><path d="M 115.16444852881244 114.52719865689866 l 26.136348268894157 25.038030413483746 a57.19408332613859,57.19408332613859 0 0,0 -0.685275536235096,0.7031530696569511 l -25.702685931508253 -25.483006175208434" fill="#5cff2a" stroke="none" /><path d="M 114.65682725009322 115.03919595460226 l 26.528519844301588 27.22059839529519 a59.00951646795116,59.00951646795116 0 0,0 -0.7315143205900788,0.7007741716019107 l -26.057333037846195 -27.67198469720268" fill="#48ff2c" stroke="none" /><path d="M 114.13192950727249 115.5334660781643 l 23.63449545332805 25.978450657418826 a56.12078122555546,56.12078122555546 0 0,0 -0.718172220823844,0.6421940283303558 l -23.18505820568083 -26.380340215632568" fill="#67ff28" stroke="none" /><path d="M 113.59037401385872 116.0094264158162 l 21.770255543458997 25.645306289665772 a54.639645674683884,54.639645674683884 0 0,0 -0.7202693473834523,0.6008743068543202 l -21.32681186191365 -26.01524278043196" fill="#78ff26" stroke="none" /><path d="M 113.03279911837588 116.46651593811092 l 21.172434566217692 26.75067942554774 a55.11555122212146,55.11555122212146 0 0,0 -0.7469208463696823,0.5808101678474185 l -20.71010377521278 -27.11019064501595" fill="#72ff27" stroke="none" /><path d="M 112.45986205192187 116.90419585922612 l 20.58765130724102 27.931102971190178 a55.698672878595396,55.698672878595396 0 0,0 -0.7745271513103955,0.5606979277180182 l -20.105143145556656 -28.28040167028127" fill="#6cff28" stroke="none" /><path d="M 111.8722381534696 117.32195027204791 l 18.988980506649096 27.70549005175877 a54.58832475265778,54.58832475265778 0 0,0 -0.7775033600041036,0.5231389594832428 l -18.51058085854799 -28.027378685299134" fill="#78ff26" stroke="none" /><path d="M 110.96478420261333 117.91015095944535 l 28.573716845517602 46.673019068965814 a75.72502173028224,75.72502173028224 0 0,0 -1.114482082181264,0.6692144686787309 l -27.7683020067789 -47.156647538180465" fill="#42ffd8" stroke="none" /><line stroke="#e1ed5e" stroke-width="0.3" x1="143.1302829299769" x2="145.66735839644613" y1="173.24464959558577" y2="177.55315839532614" /><path d="M 143.63769802327073 174.10635135553383 a86.0,86.0 0 0,1 -40.68552437913181,11.842963189579606" fill="none" id="id30" stroke="none" /><text fill="#e1ed5e" style="font-size:6.75px; font-family:Arial;" text-anchor="middle"><textPath startOffset="21.407464694133747" xlink:href="#id30">June</textPath></text><path d="M 110.65571695917076 118.09573695890943 l 2.1914418678684395 3.721547386594105 a25.318834612590777,25.318834612590777 0 0,0 -0.37641575576417563,0.21732373791766407 l -2.1272336442438653 -3.7586180217879406" fill="#ff0000" stroke="none" /><path d="M 110.34350942703117 118.27599006163325 l 10.666379122410564 18.84646987659198 a42.65550900792417,42.65550900792417 0 0,0 -0.6403522439003886,0.3551925952824274 l -10.341282690354081 -19.026795387307548" fill="#fff617" stroke="none" /><path d="M 110.02825361518725 118.45085714620011 l 12.195981693961535 22.43923265484287 a46.53940350943247,46.53940350943247 0 0,0 -0.7052075573011393,0.37548330328922846 l -11.808985320873841 -22.645286425854668" fill="#d7ff1c" stroke="none" /><path d="M 109.3889696526874 118.78422872680471 l 19.013675138710614 38.04008703345545 a63.5272625946379,63.5272625946379 0 0,0 -0.9796501373195523,0.4791959730574056 l -18.35786475212899 -38.36087675661008" fill="#32ff4a" stroke="none" /><path d="M 106.72888874123015 119.89276391827305 l 10.894042204504597 32.20630003317523 a54.99891053225721,54.99891053225721 0 0,0 -0.8969464910211736,0.29484412721972847 l -10.339572975835688 -32.38856508179698" fill="#74ff27" stroke="none" /><path d="M 106.0420521117495 120.11202640906438 l 9.791089247910412 32.59135172709755 a55.03030467186463,55.03030467186463 0 0,0 -0.9070566179883632,0.2640309619116166 l -9.230172617540441 -32.75462638331169" fill="#73ff27" stroke="none" /><path d="M 105.3480935250658 120.30758222061773 l 10.731522836071175 40.74934017599676 a63.13875065969826,63.13875065969826 0 0,0 -1.0504926320409536,0.2670311191453235 l -10.030424910804824 -40.927556526977355" fill="#32ff45" stroke="none" /><path d="M 104.9986988182912 120.39639698878246 l 5.141352877260681 20.978474230194923 a42.599303008094246,42.599303008094246 0 0,0 -0.711748842792015,0.16797078890729356 l -4.780471880728787 -21.06364116274844" fill="#fff517" stroke="none" /><path d="M 104.29559338865022 120.5559693870025 l 6.92897463929382 33.15765196607591 a54.873892210010276,54.873892210010276 0 0,0 -0.9237197023254277,0.18476981074413962 l -6.358758451437434 -33.27171117348291" fill="#75ff27" stroke="none" /><path d="M 103.58742460773223 120.69131181640829 l 3.5993692449626162 20.76020530978932 a42.06992129710473,42.06992129710473 0 0,0 -0.7126294023888965,0.11726289697579731 l -3.2424623395206478 -20.81893420526079" fill="#ffee16" stroke="none" /><path d="M 102.51750503828377 120.84855314841334 l 6.0911240290667275 50.4432448485377 a71.80967174453107,71.80967174453107 0 0,0 -1.2250870144712849,0.13727355525848872 l -5.2243011129946435 -50.54037416430316" fill="#3dffad" stroke="none" /><path d="M 101.80034050326958 120.92268563240118 l 3.6524777105516573 42.44732747968498 a63.6041805882204,63.6041805882204 0 0,0 -1.088634026920071,0.08426715868638827 l -2.923274688856351 -42.50377240536642" fill="#32ff4b" stroke="none" /><line stroke="#e1ed5e" stroke-width="0.3" x1="101.45913802915013" x2="101.54496967792366" y1="184.9874750549273" y2="189.98673829345242" /><path d="M 101.47630435890484 185.9873277026323 a86.0,86.0 0 0,1 -42.54439059252881,-10.42667462771756" fill="none" id="id31" stroke="none" /><text fill="#e1ed5e" style="font-size:6.75px; font-family:Arial;" text-anchor="middle"><textPath startOffset="22.145653131862474" xlink:href="#id31">July</textPath></text><path d="M 100.36049292484886 120.99690560180557 l 0.5969964293324151 34.772049067435475 a55.77717356377278,55.77717356377278 0 0,0 -0.9574893541812632,0.00821889453173434 l -4.258975428826628e-15 -34.77717356377278" fill="#6bff28" stroke="none" /><path d="M 99.63950707515114 120.99690560180557 l -0.7227278486581348 42.095273909837736 a63.101477659192575,63.101477659192575 0 0,0 -1.0829015433731144,-0.02789170244106156 l 1.4452427061019932 -42.076664490046625" fill="#32ff45" stroke="none" /><path d="M 98.91894614982273 120.97215588758144 l -1.3000699284166624 25.22100929481009 a46.25449448450058,46.25449448450058 0 0,0 -0.792616241881245,-0.04768182487181629 l 1.7328305224303535 -25.194975492113585" fill="#daff1b" stroke="none" /><path d="M 98.55909050195518 120.95050786540614 l -2.0209648119202117 29.38438482451199 a50.45380060851282,50.45380060851282 0 0,0 -0.8635552509584555,-0.06684463792929275 l 2.5250890576539033 -29.345362419587644" fill="#a8ff21" stroke="none" /><path d="M 98.19965949673042 120.92268563240118 l -1.88365514808644 21.89092809482009 a42.97182035174819,42.97182035174819 0 0,0 -0.7344097660182435,-0.06954936840488288 l 2.2591644774896986 -21.855366970910023" fill="#fffa17" stroke="none" /><path d="M 97.48249496171623 120.84855314841334 l -4.249139821085402 35.18897322856241 a56.444590928653916,56.444590928653916 0 0,0 -0.9609615757759751,-0.12441571510518759 l 4.8525792187521715 -35.110845917256825" fill="#64ff29" stroke="none" /><path d="M 97.12497278360702 120.80226474461374 l -2.918911462123006 21.11978928580368 a42.32054276045666,42.32054276045666 0 0,0 -0.7187940533195873,-0.1056379728053281 l 3.281030621050278 -21.06657023969947" fill="#fff216" stroke="none" /><path d="M 96.76829788921471 120.74984581791261 l -4.077103879991338 26.17793162652491 a47.4935252522433,47.4935252522433 0 0,0 -0.8045007329304937,-0.13238028945527724 l 4.525882115974895 -26.104085338573963" fill="#cbff1d" stroke="none" /><path d="M 95.70440661134978 120.55596938700252 l -12.886780165950636 61.667908161007546 a84.0,84.0 0 0,0 -1.4089503335234541,-0.30707416746512495 l 13.943492916093227 -61.43760253540871" fill="#4dd2ff" stroke="none" /><path d="M 95.00130118170881 120.39639698878247 l -6.000712123409009 24.48495321154198 a46.20955135974117,46.20955135974117 0 0,0 -0.7688272689296938,-0.19543288528628186 l 6.420144685564082 -24.378335094420436" fill="#dbff1b" stroke="none" /><path d="M 94.6519064749342 120.30758222061772 l -5.363293551081204 20.36529919520249 a42.05968492226758,42.05968492226758 0 0,0 -0.6966257469900589,-0.1898684450992356 l 5.712100699005958 -20.27023025595911" fill="#ffee16" stroke="none" /><path d="M 94.30408787586889 120.21278271476187 l -6.913502418036254 24.533581124210983 a46.48907841532201,46.48907841532201 0 0,0 -0.7662728108128606,-0.22305084744802345 l 7.333635241230722 -24.411286582460445" fill="#d8ff1c" stroke="none" /><path d="M 92.93061703081489 119.77432235084164 l -8.924067985745383 24.96220643303143 a47.50944622996643,47.50944622996643 0 0,0 -0.7656053334821887,-0.2811408831935151 l 9.351262470881691 -24.805334700829192" fill="#cbff1d" stroke="none" /><path d="M 92.59220618246901 119.65005319985036 l -2.470879289370187 6.554300873173503 a28.004577389016518,28.004577389016518 0 0,0 -0.44837693787304383,-0.17344183180297085 l 2.583028489736759 -6.510919153232491" fill="#ff2904" stroke="none" /><path d="M 92.25597844496254 119.51999308798841 l -9.325520904393938 23.506404560205347 a46.28866140163079,46.28866140163079 0 0,0 -0.736090093930516,-0.299361433058464 l 9.727665459514895 -23.34285587056759" fill="#daff1c" stroke="none" /><path d="M 91.26138138417905 119.09545874513695 l -14.027482579875585 30.65258099457373 a54.70980553425984,54.70980553425984 0 0,0 -0.8506366175634219,-0.39814088818044047 l 14.551607911310496 -30.40726387482276" fill="#77ff27" stroke="none" /><path d="M 90.6110303473126 118.78422872680471 l -11.49214884481398 22.9919959749451 a46.70411181082223,46.70411181082223 0 0,0 -0.7140675684047708,-0.36460798836033703 l 11.885143634932334 -22.791330034911926" fill="#d5ff1c" stroke="none" /><line stroke="#e1ed5e" stroke-width="0.3" x1="58.13341422392154" x2="55.67067388415222" y1="173.97424548756322" y2="178.32567169271397" /><path d="M 57.64086615596768 174.84453072859336 a86.0,86.0 0 0,1 -31.369924170532247,-30.572349798747897" fill="none" id="id32" stroke="none" /><text fill="#e1ed5e" style="font-size:6.75px; font-family:Arial;" text-anchor="middle"><textPath startOffset="22.145653131862474" xlink:href="#id32">August</textPath></text><path d="M 88.1277618465304 117.32195027204791 l -11.894942943746912 17.355077239603403 a42.04016096962175,42.04016096962175 0 0,0 -0.5917751404983459,-0.41310500764134866 l 12.191113175419023 -17.148327416156924" fill="#ffee16" stroke="none" /><path d="M 87.54013794807813 116.9041958592261 l -15.78596370651566 21.416691550001193 a47.6058513694135,47.6058513694135 0 0,0 -0.6536669025108898,-0.4905238298684963 l 16.15128359793732 -21.142548692868683" fill="#caff1d" stroke="none" /><path d="M 86.68645165197938 116.24036423190432 l -22.10398856252521 26.963271988014185 a55.86551801812036,55.86551801812036 0 0,0 -0.7364290106074738,-0.6143552726541325 l 22.563591907294576 -26.57985453144818" fill="#6aff28" stroke="none" /><path d="M 85.86807049272751 115.53346607816431 l -23.61714883568604 25.959383685950126 a56.09500420973504,56.09500420973504 0 0,0 -0.7067175281863605,-0.6541271934092239 l 24.05929613518637 -25.550138746408525" fill="#67ff28" stroke="none" /><path d="M 84.58840730492382 114.26474011684316 l -15.861388819323945 14.68106469438065 a42.612896979312254,42.612896979312254 0 0,0 -0.49228508480806027,-0.541107543857832 l 16.111071604973887 -14.406619574965145" fill="#fff517" stroke="none" /><path d="M 84.1078160697243 113.72728997021213 l -26.95908627729901 23.28661663394363 a56.62385222239605,56.62385222239605 0 0,0 -0.6290786932692803,-0.7410531188753362 l 27.354859534075405 -22.820396732618743" fill="#62ff29" stroke="none" /><path d="M 83.8745106332314 113.45245675266167 l -16.784624006040723 14.002330311678287 a42.85838185185498,42.85838185185498 0 0,0 -0.46644854735842073,-0.5689913843043709 l 17.022519372637774 -13.71213664567542" fill="#fff917" stroke="none" /><path d="M 82.98947788004972 112.3143062007846 l -20.77916156263167 15.042510528099427 a46.652498479367104,46.652498479367104 0 0,0 -0.464047740390179,-0.6527412611494424 l 21.03432440155181 -14.683592040240482" fill="#d6ff1c" stroke="none" /><path d="M 82.576782715395 111.72311816256416 l -21.281237210296364 14.318966146528064 a46.65002629055805,46.65002629055805 0 0,0 -0.4413438165542606,-0.6682507897243655 l 21.523905465771353 -13.951535478464637" fill="#d6ff1c" stroke="none" /><path d="M 82.37810715431573 111.42229804090323 l -24.847298227255934 16.105718514366718 a50.610511614259735,50.610511614259735 0 0,0 -0.4662970769105563,-0.7330964547892411 l 25.120112995792383 -15.676808384898804" fill="#a6ff21" stroke="none" /><path d="M 81.99639281039703 110.81064883170644 l -18.041554404890373 10.833435044174479 a42.04426288091286,42.04426288091286 0 0,0 -0.36623814376828645,-0.6219524354244796 l 18.224866258788428 -10.52213144045644" fill="#ffee16" stroke="none" /><line stroke="#e1ed5e" stroke-width="0.3" x1="26.387840678322732" x2="22.057713659400548" y1="142.50000000000003" y2="145.00000000000006" /><path d="M 25.521815274538298 143.00000000000003 a86.0,86.0 0 0,1 -11.493303480769221,-40.785679425670985" fill="none" id="id33" stroke="none" /><text fill="#e1ed5e" style="font-size:6.75px; font-family:Arial;" text-anchor="middle"><textPath startOffset="21.40746469413373" xlink:href="#id33">September</textPath></text><path d="M 81.81346652052679 110.50000000000001 l -22.84156811708857 13.187585501114276 a47.37517100222853,47.37517100222853 0 0,0 -0.4005833188763093,-0.7077923413021721 l 23.064584800986257 -12.793536389712981" fill="#cdff1d" stroke="none" /><path d="M 81.63589988554817 110.18625677009913 l -23.09764425103803 12.811873909373997 a47.41297565624154,47.41297565624154 0 0,0 -0.3886840117998643,-0.7151348033191229 l 23.314173612453224 -12.413484272580288" fill="#ccff1d" stroke="none" /><path d="M 81.29705330413844 109.54985784667822 l -23.37538829970693 11.935639822066197 a47.24630023687468,47.24630023687468 0 0,0 -0.3626267986954187,-0.7254965114530965 l 23.576835011614083 -11.532611454449347" fill="#ceff1d" stroke="none" /><path d="M 81.1358732173502 109.22738970284198 l -30.936186068129846 15.132438837975544 a55.43890697491751,55.43890697491751 0 0,0 -0.4108306591108607,-0.8584780689247067 l 31.191395985200618 -14.599148266985733" fill="#6fff28" stroke="none" /><path d="M 80.83023694016515 108.57439118712176 l -23.34172078595232 10.440454812854156 a46.57027621963846,46.57027621963846 0 0,0 -0.32015095196317694,-0.7325680312553501 l 23.51750561993246 -10.038224711822958" fill="#d7ff1c" stroke="none" /><path d="M 80.68587082218212 108.24405325689762 l -31.44794716385298 13.423258633718921 a55.192941569397014,55.192941569397014 0 0,0 -0.3644683123658682,-0.8745912696477254 l 31.673741320755337 -12.881434854629914" fill="#71ff27" stroke="none" /><path d="M 80.28708602549918 107.23885506374661 l -24.23356596814451 8.89890109336727 a46.81581221271074,46.81581221271074 0 0,0 -0.2705504290185362,-0.7567777016595448 l 24.38275656720699 -8.481588435326803" fill="#d4ff1c" stroke="none" /><path d="M 80.05021161711548 106.5578916946017 l -33.23623371550108 10.925410177770049 a55.98588028253587,55.98588028253587 0 0,0 -0.292287042725543,-0.9155849983366359 l 33.41888547400387 -10.353256145742021" fill="#69ff28" stroke="none" /><path d="M 79.94057633289273 106.21446072829308 l -24.647661163146598 7.635908433092974 a46.803377655102935,46.803377655102935 0 0,0 -0.23117231269748412,-0.7694974442499631 l 24.775109795847712 -7.211673385252287" fill="#d4ff1c" stroke="none" /><path d="M 79.64726062577567 105.17358676015961 l -33.459067371925094 8.505164085278182 a55.52313724904688,55.52313724904688 0 0,0 -0.22688465442457287,-0.9257668146304204 l 33.60013955286596 -7.9295414460396625" fill="#6eff28" stroke="none" /><path d="M 79.48165901384964 104.47187691870673 l -33.64231822707006 7.332186674983587 a55.43205682395777,55.43205682395777 0 0,0 -0.19465175066249643,-0.9314790916470035 l 33.76322768855692 -6.753591132051175" fill="#6fff28" stroke="none" /><path d="M 79.34024301695615 103.76489593502545 l -41.65072411875861 7.590149393058239 a63.3366648122627,63.3366648122627 0 0,0 -0.18574286009030375,-1.071315457756612 l 41.77488179634115 -6.874040902381034" fill="#32ff48" stroke="none" /><path d="M 79.22317932658666 103.0534771498775 l -35.768387160431644 5.256721160524253 a57.152602083640325,57.152602083640325 0 0,0 -0.134323538379316,-0.9718982105169575 l 35.85335521536617 -4.64193464180721" fill="#5cff2a" stroke="none" /><path d="M 79.17382384314188 102.69636545807758 l -27.03301954856232 3.4999656004674797 a48.258648262843266,48.258648262843266 0 0,0 -0.09931609989756691,-0.8224797788762486 l 27.089117734719547 -3.0353921446678322" fill="#c2ff1e" stroke="none" /><path d="M 79.13060592940153 102.33845913500099 l -33.606873123759335 3.765720230746514 a54.817193408275486,54.817193408275486 0 0,0 -0.0967591528816456,-0.9360570313023567 l 33.66656466912264 -3.1882586771612256" fill="#76ff27" stroke="none" /><path d="M 79.0935383218832 101.97986365728391 l -29.52377649016639 2.795932329373439 a50.655869837719095,50.655869837719095 0 0,0 -0.07455187741803229,-0.8664058225041305 l 29.567421990282163 -2.288705459493646" fill="#a5ff21" stroke="none" /><path d="M 79.06263194458094 101.62068470465958 l -31.34481905113157 2.426287233048033 a52.438583795798316,52.438583795798316 0 0,0 -0.0617677545343716,-0.8980895947710648 l 31.381850766831008 -1.8878542141226249" fill="#91ff24" stroke="none" /><path d="M 79.03789590574601 101.26102812881392 l -27.754662711785148 1.6696515878335745 a48.80483840394891,48.80483840394891 0 0,0 -0.04313048702886249,-0.8367199259577229 l 27.779234788270582 -1.192959868499121" fill="#bbff1f" stroke="none" /><line stroke="#e1ed5e" stroke-width="0.3" x1="15.003131293944662" x2="10.003315487706104" y1="100.72959589197737" y2="100.7725132973878" /><path d="M 14.003168132696942 100.73817937305945 a86.0,86.0 0 0,1 10.791469493833604,-42.45332614584628" fill="none" id="id34" stroke="none" /><text fill="#e1ed5e" style="font-size:6.75px; font-family:Arial;" text-anchor="middle"><textPath startOffset="22.145653131862435" xlink:href="#id34">October</textPath></text><path d="M 79.13060592940154 97.66154086499901 l -28.028575561807212 -3.140660353714528 a49.20398545385618,49.20398545385618 0 0,0 0.10126159995358529,-0.8385913102143996 l 27.97053187559396 3.621345340852364" fill="#b7ff1f" stroke="none" /><path d="M 79.17382384314186 97.30363454192245 l -27.63435749398328 -3.5778208367072706 a48.865005222408385,48.865005222408385 0 0,0 0.1148455217278218,-0.8309649849898486 l 27.56886745570025 4.051674129897186" fill="#bbff1f" stroke="none" /><path d="M 79.2786578344484 96.59031103205396 l -46.170333502595206 -7.597310807979583 a67.79122596442531,67.79122596442531 0 0,0 0.19880642968782458,-1.1466626556865849 l 46.03311225541515 8.38876649658676" fill="#38ff7e" stroke="none" /><path d="M 79.34024301695615 96.23510406497455 l -37.73356766413237 -6.876312999678333 a59.35499718593656,59.35499718593656 0 0,0 0.19127489195973008,-1.0008310598092842 l 37.60996647989048 7.523046624520932" fill="#44ff2d" stroke="none" /><path d="M 79.48165901384962 95.52812308129327 l -33.58112990250808 -7.318850964436228 a55.369432130437524,55.369432130437524 0 0,0 0.21037520408233962,-0.9269519660169594 l 33.45054383686808 7.894237264392196" fill="#6fff27" stroke="none" /><line stroke="#e1ed5e" stroke-width="0.3" x1="26.387840678322718" x2="22.05771365940052" y1="57.49999999999999" y2="54.99999999999999" /><path d="M 25.521815274538284 56.99999999999999 a86.0,86.0 0 0,1 29.574782752854787,-30.34633250058573" fill="none" id="id35" stroke="none" /><text fill="#e1ed5e" style="font-size:6.75px; font-family:Arial;" text-anchor="middle"><textPath startOffset="21.40746469413373" xlink:href="#id35">November</textPath></text><line stroke="#e1ed5e" stroke-width="0.3" x1="56.869717070023135" x2="54.33264160355391" y1="26.7553504044142" y2="22.446841604673864" /><path d="M 56.362301976729285 25.89364864446614 a86.0,86.0 0 0,1 42.16139366436587,-11.88097634709845" fill="none" id="id36" stroke="none" /><text fill="#e1ed5e" style="font-size:6.75px; font-family:Arial;" text-anchor="middle"><textPath startOffset="22.145653131862474" xlink:href="#id36">December</textPath></text></svg>