<?xml version="1.0" encoding="utf-8" ?>
<svg baseProfile="full" height="200mm" version="1.1" viewBox="0,0,200,200" width="200mm" xmlns="http://www.w3.org/2000/svg" xmlns:ev="http://www.w3.org/2001/xml-events" xmlns:xlink="http://www.w3.org/1999/xlink"><defs /><rect fill="#1a1a1a" height="200" width="200" x="0" y="0" /><text alignment-baseline="middle" fill="#e1ed5e" style="dominant-baseline: central; font-size:9.0px; font-family:Arial;" text-anchor="middle" x="100.0" y="100.0">2025</text><line stroke="#e1ed5e" stroke-width="0.3" x1="100.0" x2="100.0" y1="15.0" y2="10.0" /><path d="M 100.0 14.0 a86.0,86.0 0 0,1 42.46469731375804,11.215312516191453" fill="none" id="id37" stroke="none" /><text fill="#e1ed5e" style="font-size:6.75px; font-family:Arial;" text-anchor="middle"><textPath startOffset="22.20632615414155" xlink:href="#id37">January</textPath></text><path d="M 100.36148047927253 79.00311137660856 l 0.8792213797591132 -51.070291328756774 a72.07785906475246,72.07785906475246 0 0,0 1.240334212294271,0.03203417336119247 l -1.7581822272482521 51.04759036325323" fill="#3bff9b" stroke="none" /><path d="M 101.44485096284872 79.0497635885617 l 4.315509357286104 -62.57457938267956 a83.7232142506432,83.7232142506432 0 0,0 1.4368889425738312,0.11153023654289305 l -5.3919884892222765 62.4910238839482" fill="#4dd5ff" stroke="none" /><path d="M 102.16513564639614 79.11191278185805 l 5.254235286410609 -50.69009191634909 a71.96167586464246,71.96167586464246 0 0,0 1.2310014305628643,0.13831735394923667 l -6.126003420483199 50.592138608929254" fill="#3bff99" stroke="none" /><path d="M 102.88285421437855 79.19881850522331 l 7.106439182660225 -51.27638105417445 a72.76648270715086,72.76648270715086 0 0,0 1.2392167333894737,0.1826283336605866 l -7.988024896478354 51.14645823635289" fill="#3cffa4" stroke="none" /><path d="M 103.59715602781102 79.31037775812273 l 8.790541653578947 -50.56021610069286 a72.3187010232339,72.3187010232339 0 0,0 1.2246134723506004,0.223790284539748 l -9.659550247032447 50.40141033480237" fill="#3bff9e" stroke="none" /><path d="M 104.307194497241 79.44645832069477 l 10.622398382673248 -50.689122126319134 a72.79017715104975,72.79017715104975 0 0,0 1.2241133652879448,0.2675437689176868 l -11.49335447211472 50.49876485930558" fill="#3cffa4" stroke="none" /><path d="M 105.01212808612495 79.60689891045804 l 12.205733316021602 -49.6620894575066 a72.14003378046624,72.14003378046624 0 0,0 1.2033339334885407,0.3067566129939189 l -13.058776138195167 49.444629848343816" fill="#3bff9c" stroke="none" /><path d="M 105.71112130821622 79.79150937346287 l 17.006504954175277 -60.1765883456519 a83.5335349686745,83.5335349686745 0 0,0 1.3803311324891536,0.40295650874545924 l -18.03982630438786 59.87493350798774" fill="#4cd7ff" stroke="none" /><path d="M 106.74666289553966 80.11325718540242 l 16.51158854742628 -48.67024186434562 a72.39479545142095,72.39479545142095 0 0,0 1.1766498333203919,0.41051002272036957 l -17.346920384809945 48.37881098845304" fill="#3bff9f" stroke="none" /><path d="M 107.4271985657038 80.35727306442388 l 17.95935910225371 -47.49715301977985 a71.7791111023823,71.7791111023823 0 0,0 1.151941373469626,0.4469353564232163 l -18.774283640723002 47.18097495946609" fill="#3aff97" stroke="none" /><line stroke="#e1ed5e" stroke-width="0.3" x1="143.23703022742887" x2="145.7803849466894" y1="26.81831364943548" y2="22.513508569990506" /><path d="M 143.74570117128098 25.957352633546492 a86.0,86.0 0 0,1 28.547481713284135,27.462654790039103" fill="none" id="id38" stroke="none" /><text fill="#e1ed5e" style="font-size:6.75px; font-family:Arial;" text-anchor="middle"><textPath startOffset="19.985693538727396" xlink:href="#id38">February</textPath></text><path d="M 115.4437574822437 85.77008943001954 l 22.991610733736593 -21.184518403441224 a52.26336488795491,52.26336488795491 0 0,0 0.6039065644222309,0.666848711887716 l -23.352860938774857 20.785616904283962" fill="#cdff1d" stroke="none" /><path d="M 116.82858285166822 87.43820079747576 l 32.64142553308112 -24.365392905919368 a61.73248129308483,61.73248129308483 0 0,0 0.6283113940302563,0.8570160353467229 l -33.055999539625 23.79991442690115" fill="#50ff2b" stroke="none" /><path d="M 117.2510076193507 88.02491185347247 l 33.70294024468685 -23.395484433880615 a62.027269870573676,62.027269870573676 0 0,0 0.6012968860481768,0.8823289841370348 l -34.10066159640376 22.811877426473174" fill="#4cff2c" stroke="none" /><path d="M 117.65298651832404 88.62581576622439 l 33.343020013700006 -21.4835972458612 a60.66487027908164,60.66487027908164 0 0,0 0.55803708643988,0.8826806578517112 l -33.70788469638584 20.906468940295284" fill="#5dff2a" stroke="none" /><line stroke="#e1ed5e" stroke-width="0.3" x1="172.23445277983987" x2="176.4835382374775" y1="55.19839476539836" y2="52.563006222186495" /><path d="M 173.08426987136738 54.67131705675599 a86.0,86.0 0 0,1 12.851231095245387,41.99856678651699" fill="none" id="id39" stroke="none" /><text fill="#e1ed5e" style="font-size:6.75px; font-family:Arial;" text-anchor="middle"><textPath startOffset="22.20632615414155" xlink:href="#id39">March</textPath></text><path d="M 118.03404312379186 89.2402003453031 l 43.74396819028774 -26.099323961800817 a71.9382907476874,71.9382907476874 0 0,0 0.6253161433871952,1.0688679882547505 l -44.18674400814526 25.34247656119217" fill="#3bff99" stroke="none" /><path d="M 118.3937258080291 89.86733742301442 l 32.718448937504924 -18.02380912851028 a58.35444547007876,58.35444547007876 0 0,0 0.47709455532429845,0.8839837529105292 l -33.023851592047684 17.45794439226729" fill="#7aff26" stroke="none" /><path d="M 118.89224826269711 90.83032412892265 l 44.676863029277186 -21.684679727816807 a70.66132725808669,70.66132725808669 0 0,0 0.5216885620777384,1.0988091589063822 l -45.043509785196676 20.912428153269886" fill="#39ff88" stroke="none" /><path d="M 120.28053869075195 94.5502522615342 l 32.334109991366766 -8.688760465771525 a54.48117720996916,54.48117720996916 0 0,0 0.23557574927091754,0.9077694593368913 l -32.478882072507986 8.130894580885784" fill="#aeff20" stroke="none" /><path d="M 120.45610955862082 95.25157060432595 l 60.4340095213654 -14.02840684282318 a83.04083901251056,83.04083901251056 0 0,0 0.3112276256354645,1.3951724201190832 l -60.6665315340029 12.986056253154134" fill="#4cddff" stroke="none" /><path d="M 120.73433829027371 96.67025291283417 l 50.338544461676044 -8.083914685237865 a71.98351434687825,71.98351434687825 0 0,0 0.18593721061170235,1.2250939009862656 l -50.47023756572705 7.216221671859518" fill="#3bff9a" stroke="none" /><path d="M 120.83666639777658 97.38593545837742 l 40.147300805635666 -5.036680699032853 a61.46200581338256,61.46200581338256 0 0,0 0.12265956987286807,1.0508722877337768 l -40.22805072851212 4.344864672974224" fill="#53ff2b" stroke="none" /><path d="M 120.98425023603335 99.18683210126433 l 49.82159349522455 -1.9306537063976896 a70.85898717520672,70.85898717520672 0 0,0 0.036739728710818036,1.219212732839587 l -49.84744491839101 1.0727708261331035" fill="#39ff8b" stroke="none" /><line stroke="#e1ed5e" stroke-width="0.3" x1="184.98032266829074" x2="189.97916517819016" y1="98.17113171792111" y2="98.06355123074" /><path d="M 185.9800911702706 98.14961562048488 a86.0,86.0 0 0,1 -9.607161424134198,41.387399972396054" fill="none" id="id40" stroke="none" /><text fill="#e1ed5e" style="font-size:6.75px; font-family:Arial;" text-anchor="middle"><textPath startOffset="21.466115282336823" xlink:href="#id40">April</textPath></text><path d="M 120.99513854157772 99.54816195383933 l 31.797015062276888 -0.6843060897659056 a52.80437771274819,52.80437771274819 0 0,0 0.01173512642565978,0.9088984742304127 l -31.80408319582026 0.13687135747503018" fill="#c5ff1e" stroke="none" /><path d="M 120.8583938346157 102.4346265915055 l 31.26540794409621 3.649350672851875 a52.47766659465404,52.47766659465404 0 0,0 -0.11244837119078699,0.8963241573298985 l -31.197958063658575 -4.186992584469168" fill="#caff1d" stroke="none" /><path d="M 120.81339534386255 102.79330883721812 l 36.99204237660014 4.964600785703815 a58.32369837186009,58.32369837186009 0 0,0 -0.14210416073417736,0.9938761692009029 l -36.901104164849365 -5.600622426885127" fill="#7bff26" stroke="none" /><path d="M 120.70491114924044 103.5080841355445 l 37.297569215532526 6.319419094159336 a58.82913859811065,58.82913859811065 0 0,0 -0.1777580065795749,0.9969613017897269 l -37.18326476661376 -6.960499146682282" fill="#74ff27" stroke="none" /><path d="M 120.32669344350535 105.2749913415812 l 36.026536116628414 9.34926610717877 a58.219888249504095,58.219888249504095 0 0,0 -0.26008189104060664,0.9678614694003923 l -35.86026614924603 -9.96801850975471" fill="#7cff26" stroke="none" /><path d="M 120.02730092923936 106.31721596034902 l 47.89613367340213 15.107888034921425 a71.22238446884145,71.22238446884145 0 0,0 -0.3788615355366519,1.1660159107900991 l -47.62897988684923 -15.93010284568932" fill="#3aff90" stroke="none" /><path d="M 119.67450827220406 107.3425965602758 l 32.98261274963922 12.309228549643398 a56.204685075711446,56.204685075711446 0 0,0 -0.3460755854254737,0.9034941483392905 l -32.76584288462024 -12.875146264815834" fill="#97ff23" stroke="none" /><path d="M 119.41010516605496 108.01547362559984 l 35.052323782209356 14.474984776673898 a58.92348331598484,58.92348331598484 0 0,0 -0.39520546713275334,0.9341489824941026 l -34.797967333884294 -15.076208284834163" fill="#73ff27" stroke="none" /><path d="M 119.26925614724726 108.34839909993367 l 45.93672288079257 19.902070584426593 a71.06270990042619,71.06270990042619 0 0,0 -0.4959463656696522,1.1182281285682565 l -45.58733543039165 -20.689847049487536" fill="#39ff8d" stroke="none" /><path d="M 118.97047184881838 109.00673069616215 l 45.91916402690692 21.8013314312479 a71.83175854822554,71.83175854822554 0 0,0 -0.5399242456416933,1.1124038663008895 l -45.53708652465051 -22.588524253514063" fill="#3bff98" stroke="none" /><line stroke="#e1ed5e" stroke-width="0.3" x1="174.80103733775053" x2="179.2010983576182" y1="140.37084112569926" y2="142.7455964860345" /><path d="M 175.68104954172406 140.8457921977663 a86.0,86.0 0 0,1 -30.038265399797805,32.042727171017184" fill="none" id="id41" stroke="none" /><text fill="#e1ed5e" style="font-size:6.75px; font-family:Arial;" text-anchor="middle"><textPath startOffset="22.206326154141568" xlink:href="#id41">May</textPath></text><path d="M 118.48025628344425 109.97397251340804 l 44.637184967318355 24.09111914420747 a71.72337038710057,71.72337038710057 0 0,0 -0.5957260851979692,1.0814158849728512 l -44.21588247266887 -24.85590554757813" fill="#3aff96" stroke="none" /><path d="M 118.30583269289576 110.29060199501025 l 32.57661290128121 18.312904052854154 a58.37108725965788,58.37108725965788 0 0,0 -0.4999011202887971,0.8716197400143455 l -32.25655978484003 -18.870943638726814" fill="#7aff26" stroke="none" /><path d="M 117.55443506779139 111.5257021239791 l 31.441390541790167 20.6434499514749 a58.61267160280457,58.61267160280457 0 0,0 -0.5609983321783302,0.8386163893533493 l -31.081389104201115 -21.18160325503406" fill="#77ff27" stroke="none" /><path d="M 117.35343817320211 111.8261652097733 l 31.23424604826069 21.28577347512918 a58.79764911522675,58.79764911522675 0 0,0 -0.5771663833148508,0.8314512222680115 l -30.863218757783702 -21.820265959584212" fill="#75ff27" stroke="none" /><path d="M 116.93607887273984 112.41649034213515 l 40.91167184181191 29.993919024674526 a71.7286908105348,71.7286908105348 0 0,0 -0.7385962496423542,0.9894703760700231 l -40.389314325474466 -30.693702280253863" fill="#3aff96" stroke="none" /><path d="M 116.498646956653 112.99209946851258 l 48.70096511641004 38.35028318790807 a82.98812970127855,82.98812970127855 0 0,0 -0.8934347446441736,1.1146972158156567 l -48.033612459711016 -39.18290823730198" fill="#4bddff" stroke="none" /><path d="M 115.80600337817218 113.82643327865902 l 24.086779009381065 21.070110824531813 a53.001913899090674,53.001913899090674 0 0,0 -0.6065971884451038,0.6815183717107175 l -23.72052297128762 -21.481603365983396" fill="#c2ff1e" stroke="none" /><path d="M 115.56566222782051 114.09645910891815 l 37.351215364455854 33.82572950300813 a71.39140071096097,71.39140071096097 0 0,0 -0.8327419067793645,0.9037768712849555 l -36.76342704968077 -34.46365762909441" fill="#3aff92" stroke="none" /><path d="M 115.07121518719521 114.62390073753431 l 35.792589491837504 34.730263576400894 a70.87284502229119,70.87284502229119 0 0,0 -0.8570868296379508,0.8682244333628353 l -35.18946203714402 -35.34122850374439" fill="#39ff8b" stroke="none" /><path d="M 114.55890576462653 115.13401014063108 l 21.569652091323643 22.42169423701536 a52.11241333935621,52.11241333935621 0 0,0 -0.6518125508411117,0.6163294509083759 l -21.180503706091724 -22.789658324669656" fill="#cfff1d" stroke="none" /><path d="M 114.0293411484842 115.62618273729858 l 42.088023445452606 46.878548211895726 a84.0,84.0 0 0,0 -1.0842305883736492,0.9567074329108447 l -41.27485050417237 -47.59607878657886" fill="#4dd2ff" stroke="none" /><path d="M 113.48314897796784 116.09983520530334 l 33.46149654278276 39.95539772956107 a73.1162696152562,73.1162696152562 0 0,0 -0.9718540447141986,0.7997697153132821 l -32.768772369523866 -40.52546256373153" fill="#3dffa9" stroke="none" /><path d="M 113.20401910651253 116.32954008644616 l 20.933972986903772 25.889249954933927 a54.293910678162504,54.293910678162504 0 0,0 -0.7317849813584428,0.5813742470263665 l -20.48523051282798 -26.24575811596542" fill="#b1ff20" stroke="none" /><path d="M 112.92097659922987 116.55440617244103 l 19.113602753602223 24.488423221869905 a52.06465325922579,52.06465325922579 0 0,0 -0.7112311086199747,0.5453416856394759 l -18.689242916488755 -24.81380424933675" fill="#d0ff1d" stroke="none" /><path d="M 112.34349029814194 116.9893568818739 l 29.36055906491409 40.41134267187376 a70.95116660447395,70.95116660447395 0 0,0 -0.9942375899494063,0.7093621217836241 l -28.660594147115795 -40.910749055501604" fill="#39ff8c" stroke="none" /><path d="M 111.7513745106137 117.40417183066458 l 28.486449321738313 42.18936758361897 a71.90599701474949,71.90599701474949 0 0,0 -1.031766486327268,0.6837985666308202 l -27.75600813667108 -42.6734641713411" fill="#3bff99" stroke="none" /><line stroke="#e1ed5e" stroke-width="0.3" x1="143.8653032363475" x2="146.44561519142675" y1="172.8068346515853" y2="177.08958963109032" /><path d="M 144.38136562736335 173.6633856474863 a86.0,86.0 0 0,1 -40.68145358897372,12.25698825130547" fill="none" id="id42" stroke="none" /><text fill="#e1ed5e" style="font-size:6.75px; font-family:Arial;" text-anchor="middle"><textPath startOffset="21.466115282336833" xlink:href="#id42">June</textPath></text><path d="M 110.8373102113329 117.98757091392108 l 31.994148271504677 53.10330696840078 a82.9966671249288,82.9966671249288 0 0,0 -1.2300585431828706,0.726740268847254 l -31.075321857293424 -53.64616580954178" fill="#4bddff" stroke="none" /><path d="M 110.21172684928248 118.3499491758327 l 18.071730128152616 32.47397176455669 a58.16377634188974,58.16377634188974 0 0,0 -0.8790407517376086,0.47932310594847233 l -17.510066564546356 -32.78023552226493" fill="#7dff26" stroke="none" /><path d="M 109.89434966115114 118.52300852407294 l 21.069589801100335 39.44394577208585 a65.71859202231082,65.71859202231082 0 0,0 -1.0023934713283724,0.5244048881577964 l -20.38750542724547 -39.800780079188364" fill="#31ff42" stroke="none" /><path d="M 109.2508944713604 118.85261126421891 l 22.419651853648226 45.689525740941576 a71.89374766777306,71.89374766777306 0 0,0 -1.1156791245197644,0.5355937794782296 l -21.62986006112823 -46.06867379691936" fill="#3bff99" stroke="none" /><path d="M 108.2653958097858 119.30500536409082 l 4.789618064427853 11.18683297855547 a33.169045701828466,33.169045701828466 0 0,0 -0.5268011144187076,0.2202029085518552 l -4.596345490511685 -11.267620930127299" fill="#ff0000" stroke="none" /><path d="M 105.53697534728816 120.25689768951611 l 8.95675930213455 32.76809908532883 a54.970161242806924,54.970161242806924 0 0,0 -0.9148855578359064,0.24162959108990145 l -8.391383301487148 -32.917420025722315" fill="#a7ff21" stroke="none" /><path d="M 104.48393922423573 120.51570834832081 l 10.864211262187181 49.70785252504507 a71.8812508592415,71.8812508592415 0 0,0 -1.211057157958881,0.25378880233847284 l -10.006962642798923 -49.887497308110085" fill="#3bff98" stroke="none" /><line stroke="#e1ed5e" stroke-width="0.3" x1="102.19456741930631" x2="102.32365962044197" y1="184.97166512339345" y2="189.96999836594603" /><path d="M 102.22038585953345 185.97133177190398 a86.0,86.0 0 0,1 -42.740103519485714,-10.115201625700543" fill="none" id="id43" stroke="none" /><text fill="#e1ed5e" style="font-size:6.75px; font-family:Arial;" text-anchor="middle"><textPath startOffset="22.20632615414155" xlink:href="#id43">July</textPath></text><line stroke="#e1ed5e" stroke-width="0.3" x1="58.666819895761336" x2="56.23545636021788" y1="174.27360380694188" y2="178.64263932499728" /><path d="M 58.180547188652646 175.14741091055294 a86.0,86.0 0 0,1 -31.652253787137756,-30.449443065178592" fill="none" id="id44" stroke="none" /><text fill="#e1ed5e" style="font-size:6.75px; font-family:Arial;" text-anchor="middle"><textPath startOffset="22.20632615414155" xlink:href="#id44">August</textPath></text><line stroke="#e1ed5e" stroke-width="0.3" x1="26.63291911575756" x2="22.317208475507996" y1="142.92168965132927" y2="145.44649492493687" /><path d="M 25.769776987707644 143.4266507060508 a86.0,86.0 0 0,1 -11.730757126820373,-40.83630448921669" fill="none" id="id45" stroke="none" /><text fill="#e1ed5e" style="font-size:6.75px; font-family:Arial;" text-anchor="middle"><textPath startOffset="21.46611528233685" xlink:href="#id45">September</textPath></text><line stroke="#e1ed5e" stroke-width="0.3" x1="15.007084014347285" x2="10.007500721073583" y1="101.09737516637583" y2="101.16192664675087" /><path d="M 14.007167355692545 101.11028546245083 a86.0,86.0 0 0,1 10.666146001902534,-42.60595125391555" fill="none" id="id46" stroke="none" /><text fill="#e1ed5e" style="font-size:6.75px; font-family:Arial;" text-anchor="middle"><textPath startOffset="22.20632615414155" xlink:href="#id46">October</textPath></text><line stroke="#e1ed5e" stroke-width="0.3" x1="26.266209847984243" x2="21.928928074336255" y1="57.711370442889674" y2="55.22380399835377" /><path d="M 25.398753493254645 57.213857153982495 a86.0,86.0 0 0,1 29.58750427330803,-30.492523968695096" fill="none" id="id47" stroke="none" /><text fill="#e1ed5e" style="font-size:6.75px; font-family:Arial;" text-anchor="middle"><textPath startOffset="21.46611528233685" xlink:href="#id47">November</textPath></text><line stroke="#e1ed5e" stroke-width="0.3" x1="56.762969772571076" x2="54.21961505331055" y1="26.818313649435495" y2="22.513508569990535" /><path d="M 56.25429882871897 25.957352633546506 a86.0,86.0 0 0,1 42.265352541879196,-11.944610805530505" fill="none" id="id48" stroke="none" /><text fill="#e1ed5e" style="font-size:6.75px; font-family:Arial;" text-anchor="middle"><textPath startOffset="22.20632615414155" xlink:href="#id48">December</textPath></text></svg>