<?xml version="1.0" encoding="utf-8" ?>
<svg baseProfile="full" height="300mm" version="1.1" viewBox="0,0,200,300" width="200mm" xmlns="http://www.w3.org/2000/svg" xmlns:ev="http://www.w3.org/2001/xml-events" xmlns:xlink="http://www.w3.org/1999/xlink"><defs /><rect fill="#222222" height="300" width="200" x="0" y="0" /><text fill="#FFFFFF" style="font-size:12px; font-family:Arial; font-weight:bold;" x="10" y="20">Over 10km Runs</text><text fill="#FFFFFF" style="font-size:4px; font-family:Arial" x="10" y="280">ATHLETE</text><text fill="#FFFFFF" style="font-size:9px; font-family:Arial" x="10" y="290">rdshoep</text><text fill="#FFFFFF" style="font-size:4px; font-family:Arial" x="120" y="280">STATISTICS</text><text fill="#FFFFFF" style="font-size:3px; font-family:Arial" x="120" y="285">Number: 3</text><text fill="#FFFFFF" style="font-size:3px; font-family:Arial" x="120" y="290">Weekly: 1.0</text><text fill="#FFFFFF" style="font-size:3px; font-family:Arial" x="141" y="285">Total: 32.6 km</text><text fill="#FFFFFF" style="font-size:3px; font-family:Arial" x="141" y="290">Avg: 10.9 km</text><text fill="#FFFFFF" style="font-size:3px; font-family:Arial" x="167" y="285">Min: 10.1 km</text><text fill="#FFFFFF" style="font-size:3px; font-family:Arial" x="167" y="290">Max: 12.1 km</text><polyline fill="none" points="41.127436608076096,110.71524422895163 37.29034460708499,111.39878118573688 19.87585013359785,82.69010908831842 19.580689212307334,73.12049712333828 20.46617198176682,62.18376430799253 32.272608909755945,50.221671959385276 39.06131014600396,44.75327267963439 41.42259753122926,43.04439607565291 47.620976919308305,40.99374300218187 50.57258615270257,40.99374300218187 59.427413849160075,39.96841599652544 63.264505852013826,38.94308867584914 70.0532070863992,37.57598509429954 83.9257704783231,61.50021732202731 86.28705786541104,73.46226944960654 85.1064141727984,91.91792334220372 60.312896620482206,101.48748168325983 53.22903446108103,105.93048163340427 43.7838849183172,108.32286378415301 36.109700912609696,110.37347569875419 31.97744798846543,112.42408635863103 23.122620292007923,109.3481698979158 20.46617198176682,98.41155519383028 18.695206442847848,80.63948025205173 18.695206442847848,76.19644680456258 23.41778121329844,56.37361049512401 33.45325260423124,47.82924837106839 36.99518368206918,45.77859822358005 55.59032184816897,42.36084519117139 59.13225292600691,41.33551860181615 66.80643693171442,38.25953695457429 81.5644830930978,44.75327267963439 82.74512678571045,52.95586825767532 85.69673601724207,67.6521351733245 82.15480493940413,95.67739594634622 76.84190832078457,98.41155519383028 61.19837938807905,102.1710205192212 54.70483907684684,105.5887126151938 51.162907999008894,107.98109501018189 44.669367687776685,111.05701272422448 38.175827376544476,112.76585468114354 35.81453999131918,113.44939121906646 23.712942136451602,105.5887126151938 18.695206442847848,77.90530651900917 18.104884596541524,70.38631726289168 19.285528287291527,59.4495755310636 22.532298443838954,55.00651401770301 25.188746752217412,53.63941698311828 29.91132152453065,50.56344661884941 55.59032184816897,40.99374300218187 59.13225292600691,40.31019170070067 69.46288524195552,35.52532867784612 80.088678477332,38.60131283197552 81.5644830930978,50.90522124362178 82.44996586255729,54.32296557049267 86.87737971171737,73.46226944960654 87.76286248117685,89.1837588029448 85.69673601724207,90.89261190150864 83.33544863201678,93.2850047769025 65.33063231408596,102.85455921688117 61.788701236248016,104.56340535241179 54.70483907684684,107.98109501018189 47.91613784246147,110.37347569875419 44.07904584147036,110.71524422895163 37.29034460708499,113.1076229675673 34.338735373690724,114.47469576681033 23.122620292007923,111.39878118573688 21.94197659753263,106.95578847802244 20.171011058613658,98.75332494266331 18.99036736600101,89.1837588029448 18.695206442847848,78.93062193039805 18.104884596541524,71.41163497255184 18.40004551783204,65.60149714304134 18.695206442847848,60.47489658347331 25.188746752217412,52.61409384245053 28.43551690876484,50.221671959385276 38.7661492228508,43.72794682113454 45.85001138225198,41.33551860181615 56.475804617628455,39.96841599652544 63.264505852013826,38.60131283197552 70.0532070863992,35.86710483557545 73.8902990873903,34.841776261338964 80.97416124679148,38.94308867584914 84.22093140147626,58.42425416689366 86.5822187885642,71.75340747204609 87.46770155802369,75.1711305573117 88.05802340619266,77.56353464513086 79.20319570787251,98.41155519383028 58.24677015654743,106.6140195641201 55.000000001862645,107.63932620105334 48.506459690630436,110.71524422895163 34.92905721999705,114.13292761868797 31.387126142159104,115.5 19.87585013359785,99.43686433671974 18.695206442847848,96.36093596671708 18.40004551783204,91.91792334220372 18.695206442847848,86.44959203409962 18.40004551783204,84.39896549517289 18.104884596541524,66.96858930261806 22.827459366992116,55.34828819008544 26.369390446692705,53.981191294733435 32.862930757924914,48.85457297577523 39.356471069157124,44.41149742831476 46.44033322669566,42.019069695845246 53.22903446108103,40.99374300218187 56.475804617628455,40.31019170070067 63.55966677330434,38.60131283197552 67.10159785486758,37.23420911259018 73.8902990873903,34.5 81.5644830930978,38.25953695457429 81.85964401625097,48.51279814285226 84.81125324964523,57.74070641538128 86.5822187885642,67.6521351733245 88.05802340619266,74.82935840589926 90.12414986640215,84.39896549517289 89.23866709694266,90.20907076634467 84.22093140147626,94.3103154876735 81.269322168082,97.0444758485537 64.44514954462647,103.19632851425558 58.24677015654743,106.6140195641201 52.04839076846838,109.3481698979158 48.506459690630436,109.68993853242137 38.47098829969764,111.74054961116053 35.22421814315021,112.76585468114354 29.32099968008697,114.81646387884393 23.122620292007923,112.08231800212525 22.237137520685792,108.32286378415301 20.171011058613658,98.06978540937416 18.695206442847848,83.0318804399576 17.809723671525717,71.75340747204609 17.514562748372555,67.31036225473508 18.104884596541524,63.892631160095334 21.351654751226306,61.50021732202731 28.140355987474322,56.37361049512401 31.387126142159104,54.32296557049267 49.09678153693676,46.46214841213077 52.04839076846838,45.77859822358005 58.54193107970059,44.069722142769024 61.493540313094854,43.3861714664381 66.80643693171442,40.99374300218187 70.0532070863992,39.626640257425606 82.15480493940413,50.56344661884941 82.74512678571045,53.63941698311828 83.9257704783231,56.715384527342394 85.99189694225788,62.52553774788976 86.87737971171737,64.91795085463673 89.53382802195847,77.2217627374921 88.35318432748318,92.2596937539056 85.40157509595156,94.65208565420471 78.9080347828567,98.75332494266331 71.82417262718081,101.14571221265942 65.0354713909328,103.53809777623974 60.60805754177272,105.5887126151938 57.06612646393478,106.6140195641201 50.57258615270257,108.32286378415301 43.7838849183172,110.03170713270083 36.99518368206918,112.42408635863103 20.171011058613658,99.77863398101181 18.40004551783204,91.57615289720707 18.40004551783204,81.6647948268801 18.40004551783204,74.14581399760209 18.695206442847848,63.892631160095334 21.94197659753263,59.4495755310636 25.48390767723322,57.05715852417052 33.7484135273844,50.90522124362178 36.109700912609696,49.19634777447209 43.193563072010875,46.120373335666955 46.73549414984882,45.436823076801375 54.40967815555632,44.069722142769024 59.72257477231324,42.36084519117139 69.16772431693971,38.60131283197552 72.4144944716245,37.23420911259018 81.5644830930978,42.019069695845246 81.5644830930978,45.095047895563766 83.63060955703259,51.93054490699433 85.69673601724207,58.76602798956446 86.5822187885642,62.18376430799253 87.76286248117685,72.09517993801273 88.64834525063634,75.51290267403238 82.74512678571045,96.36093596671708 79.49835663102567,98.41155519383028 74.48062093555927,101.48748168325983 66.51127600669861,103.87986700283363 63.85482769832015,104.9051744742319 52.34355169162154,109.00640122732148 48.80162061192095,110.03170713270083 35.51937906630337,113.1076229675673 29.32099968008697,114.47469576681033 23.122620292007923,107.63932620105334 21.94197659753263,105.24694356136024 20.761332904919982,100.80394270713441 19.285528287291527,88.500217319699 18.695206442847848,87.13313393504359 18.99036736600101,80.98125181160867 18.99036736600101,63.20908452384174 20.761332904919982,59.1078017775435 27.25487321615219,55.34828819008544 30.79680429585278,53.63941698311828 37.880666453391314,50.221671959385276 41.717758456245065,48.17102327453904 49.687103383243084,45.77859822358005 52.34355169162154,45.095047895563766 58.54193107970059,43.3861714664381 62.37902308255434,42.36084519117139 64.44514954462647,40.65196736808866 69.46288524195552,39.626640257425606 72.4144944716245,38.94308867584914 78.31771293655038,36.8924330950249 82.44996586255729,37.57598509429954 83.04028770886362,38.94308867584914 84.51609232462943,42.019069695845246 84.22093140147626,42.70262065087445 84.51609232462943,43.72794682113454 85.40157509595156,44.41149742831476 85.40157509595156,45.095047895563766 85.1064141727984,48.17102327453904 85.99189694225788,53.63941698311828 87.46770155802369,66.62681631464511 89.23866709694266,79.95593702699989 90.41931079141796,84.74073667218909 85.69673601724207,92.60146412951872 82.15480493940413,95.33562588319182 61.493540313094854,102.51278988597915 57.951609233394265,104.22163619450293 46.44033322669566,108.32286378415301 42.89840214699507,109.3481698979158 36.109700912609696,112.08231800212525 20.171011058613658,91.57615289720707 20.171011058613658,88.8419880780857 19.87585013359785,87.81667569722049 19.580689212307334,81.32302333740517 19.285528287291527,77.56353464513086 24.303263982757926,59.1078017775435 28.140355987474322,57.05715852417052 35.22421814315021,51.93054490699433 38.175827376544476,49.879897265695035 45.55485045723617,46.46214841213077 52.933873537927866,44.069722142769024 55.88548277132213,43.04439607565291 61.19837938807905,41.677294166525826 63.55966677330434,41.33551860181615 68.57740247063339,38.94308867584914 75.0709427818656,36.8924330950249 82.74512678571045,45.095047895563766 85.1064141727984,56.031836428446695 88.64834525063634,72.77872476330958 92.48543725349009,85.76604999345727 88.9435061737895,92.60146412951872 85.99189694225788,94.65208565420471 79.20319570787251,98.75332494266331 65.33063231408596,102.85455921688117 62.6741840057075,103.87986700283363 60.60805754177272,104.9051744742319 52.638712614774704,107.98109501018189 45.55485045723617,110.03170713270083 42.30808030255139,110.37347569875419 35.51937906630337,112.42408635863103 32.56776983477175,113.44939121906646 24.303263982757926,109.3481698979158 21.646815674379468,102.1710205192212 19.87585013359785,88.8419880780857 19.580689212307334,86.79136300133541 18.695206442847848,79.61416536266916 18.695206442847848,75.85467475675978 25.48390767723322,57.39893248700537 29.025838755071163,55.34828819008544 34.338735373690724,52.95586825767532 36.99518368206918,51.58877038792707 39.651631992310286,50.221671959385276 50.27742522768676,47.487473433837295 59.72257477231324,43.72794682113454 62.969344928860664,42.36084519117139 70.0532070863992,39.96841599652544 73.59513816609979,38.94308867584914 81.85964401625097,41.33551860181615 83.33544863201678,51.58877038792707 85.1064141727984,58.42425416689366 88.05802340619266,71.75340747204609 89.23866709694266,75.51290267403238 88.35318432748318,92.2596937539056 83.63060955703259,95.33562588319182 81.5644830930978,96.70270592579618 76.5467473976314,98.75332494266331 63.264505852013826,102.51278988597915 56.475804617628455,102.85455921688117 49.687103383243084,104.9051744742319 39.06131014600396,107.98109501018189 35.51937906630337,109.3481698979158 21.94197659753263,102.85455921688117 21.056493828073144,100.12040359154344 20.46617198176682,93.62677504820749 19.87585013359785,86.44959203409962 19.580689212307334,77.56353464513086 19.285528287291527,74.82935840589926 19.580689212307334,71.06986243720166 23.122620292007923,58.08248030790128 33.45325260423124,50.90522124362178 36.99518368206918,49.19634777447209 54.70483907684684,44.069722142769024 57.951609233394265,43.04439607565291 64.74031046777964,40.99374300218187 67.6919197011739,39.28486448340118 74.77578185871243,36.550657043233514 83.33544863201678,52.27231939183548 84.81125324964523,56.031836428446695 86.5822187885642,62.52553774788976 89.53382802195847,77.90530651900917 91.59995448216796,85.08250781381503 88.05802340619266,91.91792334220372 85.1064141727984,93.96854528505355 75.36610370501876,98.06978540937416 68.57740247063339,100.46217316621915 62.37902308255434,103.87986700283363 59.72257477231324,104.9051744742319 57.36128738708794,105.93048163340427 52.34355169162154,108.32286378415301 47.030655074864626,109.68993853242137 41.127436608076096,110.37347569875419 23.41778121329844,104.22163619450293 21.351654751226306,99.77863398101181 19.580689212307334,94.99385578627698 19.580689212307334,78.24707835796289 19.285528287291527,73.46226944960654 24.303263982757926,59.79134925012477 27.550034139305353,57.39893248700537 34.633896296843886,51.58877038792707 41.42259753122926,47.487473433837295 48.80162061192095,45.436823076801375 62.08386215753853,41.33551860181615 68.28224154748023,38.60131283197552 71.52901170216501,38.25953695457429 82.15480493940413,43.72794682113454 82.15480493940413,46.120373335666955 83.9257704783231,55.00651401770301 85.1064141727984,58.42425416689366 87.76286248117685,73.80404174164869 89.53382802195847,80.63948025205173 84.22093140147626,93.96854528505355 80.97416124679148,95.67739594634622 67.39675877802074,99.43686433671974 63.85482769832015,101.14571221265942 57.36128738708794,103.53809777623974 53.81935630738735,104.9051744742319 47.030655074864626,106.27225061622448 43.48872399330139,106.95578847802244 36.700022760778666,109.3481698979158 31.091965217143297,112.08231800212525 23.122620292007923,107.63932620105334 20.46617198176682,99.43686433671974 19.580689212307334,95.67739594634622 21.646815674379468,74.14581399760209 25.48390767723322,60.47489658347331 28.140355987474322,58.42425416689366" stroke="#4dd2ff" stroke-linecap="round" stroke-linejoin="round" stroke-width="0.5"><title>2023-03-02 10.1km</title></polyline><polyline fill="none" points="175.30983369448222,44.674944701080676 175.0640367665328,44.81724951756769 174.81823983846698,44.923978092032485 173.80432750994805,44.24802990339231 173.4663567339303,43.53650408075191 173.40490750188474,43.18074062571395 173.3127336539328,42.93170599156292 173.2820090377936,42.11344808596186 173.1898351898417,41.54422406424419 173.1898351898417,41.29518826294225 173.15911057393532,41.01057570107514 173.03621210972778,40.26346662256401 174.14229828619864,38.69809003654518 174.51099367823917,38.52020588950836 175.18693523050752,38.200014196539996 175.86287678277586,37.84424530446995 176.63099218299612,37.63078379520448 177.2454845032189,37.417322155379225 177.95215067151003,37.097129451081855 178.29012144752778,36.954821488267044 179.1811353119556,37.061552465864224 179.67272916797083,38.05770668317564 179.97997532819863,39.08943484094925 180.0414245602442,39.4807792067586 180.13359840819612,40.156736623786855 180.348670720472,40.83269273213227 180.5944676484214,41.89998918661149 180.07214917626698,42.68267117982032 179.39620762388222,43.0028587623965 179.05823684774805,43.109587891201954 178.10577375162393,43.53650408075191 177.36838296742644,43.892267173243454 177.03041219117586,43.99899603042286 175.55563062266447,44.49706359874108 175.18693523050752,44.639368487813044 174.38809521438088,44.923978092032485 174.01939982210752,45.06628280703444 173.15911057393532,44.03457230879576 173.12838595779613,43.18074062571395 173.09766134177335,42.93170599156292 173.005487493705,42.18460102347308 172.97476287779864,41.43749445688445 172.8825890297303,40.33461993705714 172.94403826165944,40.01442990786745 173.83505212608725,38.52020588950836 174.51099367823917,38.093283566995524 175.5249060067581,37.595206864352804 176.99968757515308,37.417322155379225 177.73707835946698,37.097129451081855 178.41301991173532,36.84809047810268 179.36548300797585,37.097129451081855 179.8878014802467,38.48462904928601 179.97997532819863,38.80482048128033 180.22577225626446,39.72981630207505 180.2872214881936,40.08558327294304 180.41011995240115,40.797116127447225 181.70055382477585,43.18074062571395 182.31504614499863,42.8249768083042 182.6530169211328,42.647094763669884 184.2814215697581,44.46148736748728 184.31214618578088,44.88840190411429 184.37359541782644,45.63550108749769 184.4043200336164,45.991262041497976 184.46576926577836,46.63163084545522 184.46576926577836,47.09411869579344 184.43504464975558,47.34315036147018 184.4043200336164,47.556605933612445 184.4043200336164,47.80563726942637 184.43504464975558,48.5171543933684 184.5579431137303,49.33539729358745 184.65011696179863,49.79788156304858 183.94345079374034,50.97187734229374 183.3596830893075,51.04302847478539 182.71446615329478,51.2564817853563 182.3764953770442,51.43435944445082 181.39330766478088,52.003567344741896 180.65591688035056,52.181444623391144 180.3179461043328,52.181444623391144 179.67272916797083,52.21702006817213 178.50519375968724,52.9285282039782 177.85997682344168,53.39100771484664 177.52200604742393,53.49773366880254 176.78461526311003,53.711185478954576 176.41591987095308,53.8179113350634 175.6785290867556,54.066938205913175 175.30983369448222,54.20923919524648 174.57244291028474,54.45826578701963 174.173022902105,54.56499141486711 173.49708134995308,54.778442572656786 173.12838595779613,54.88516810259898 172.45244440552779,54.991893600003095 172.05302439746447,55.06304391345475 171.34635822905693,55.312069896404864 170.20954743679613,55.38322014454752 169.41070742055308,55.24091963371029 167.6286796919303,56.62834714198834 167.6286796919303,56.62834714198834 167.65940430795308,56.5927721465996 167.69012892385945,56.5927721465996 167.69012892385945,56.5927721465996 167.69012892385945,56.55719714742736 167.65940430795308,56.521622144733556 167.65940430795308,56.521622144733556 167.69012892385945,56.55719714742736 167.6286796919303,56.521622144733556 167.65940430795308,56.55719714742736 167.5979550757911,56.55719714742736 167.6286796919303,56.5927721465996 167.6286796919303,56.5927721465996 167.5979550757911,56.5927721465996 167.5979550757911,56.5927721465996 167.5979550757911,56.5927721465996 167.65940430795308,57.339846290211426 167.69012892385945,57.802319959242595 167.6286796919303,58.54939151540748 167.56723046000116,58.97628883010475 167.4750566118164,59.86565655947197 167.41360737977084,60.32812688362901 167.25998429977335,61.14634211099474 167.22925968375057,61.5732362511917 167.10636121977586,62.3914485614514 167.07563660363667,62.78276681469288 166.95273813977838,63.49425342475297 166.86056429159362,63.885570442449534 166.64549197955057,65.48640822197194 166.584042747505,65.87772300760844 166.43041966750752,66.62477729000966 166.36897043534555,67.01609080005437 166.24607197137084,67.79871650526184 166.1846227394417,68.154454882344 166.0309996593278,68.90150429477217 165.93882581125945,69.25724154873751 165.96955042739864,70.39559832628584 166.000275043305,70.78690761167672 166.06172427535057,71.46280443563592 166.12317350739613,71.81853908085031 166.1538981234189,72.56558065634454 166.09244889125694,72.92131417838391 166.000275043305,73.6683533952164 165.90810119535308,74.02408579399344 165.78520273126196,75.0201345832611 165.69302888319362,75.37586560539785 165.5701304191025,76.12289957259782 165.50868118717335,76.51420244155452 165.38578272308223,77.2256610802142 165.32433349103667,77.5813898560009 165.20143502706196,78.22170073972666 165.20143502706196,78.57742850115756 165.04781194694806,79.217737558909 164.9863627149025,79.5734643061005 164.86346425081138,80.21377153793583 164.83273963502143,80.53392471373081 164.77129040285945,80.81850506810588 164.64839193888474,81.45881001758971 164.58694270683918,81.77896205233992 164.46404424274806,82.49040996763506 164.43331962672528,82.88170570330112 164.34114577877335,83.59315137259546 164.2796965467278,83.98444587306585 164.15679808263667,84.69588929641759 164.06462423480116,85.05161046475405 163.94172577059362,85.72747968643671 163.91100115457084,86.0120558096969 163.84955192252528,86.29663170102867 163.78810269059613,86.83021087240195 163.75737807457335,87.18592986726435 163.665204226505,87.5060766528768 163.57303037855309,88.14636934397276 163.51158114650752,88.46651524936897 163.48085653036833,88.78666086145677 163.3886826823,89.39137955024489 163.29650883446448,89.67595268858713 163.2657842184417,89.99609719228465 163.17361037037335,90.70752837206237 163.081436522305,91.02767193014733 162.98926267435309,91.73910100909416 162.89708882628474,92.09481500528636 162.7741903620772,92.80624191093375 162.71274113014806,93.16195482038893 162.58984266605694,93.87337955282419 162.5283934341278,94.26466253810213 162.09824880992528,95.2250825529627 161.88317649788223,95.47407990368083 161.57593033777084,96.07878701621667 161.54520572163165,96.29221280603088 161.54520572163165,96.47006753124879 161.45303187379614,97.25262724683853 161.42230725777335,97.57276480697328 161.3608580257278,98.46203426815919 161.29940879368223,98.888882805506 161.17651032970753,99.67143710274831 161.11506109754555,100.09828416240634 160.99216263357084,100.80969476964674 160.86926416947972,101.16539952994208 160.7463657053886,101.91237834776985 160.71564108948223,102.16137093215366 160.68491647345945,102.73049617296783 160.71564108948223,103.05062871336122 160.65419185743667,103.79760350036668 160.5927426253911,104.18887537060073 159.24085952108726,105.71838847652543 158.90288874483667,105.75395846902393 158.22694719256833,105.75395846902393 157.91970103257336,105.71838847652543 157.64317948848475,105.71838847652543 157.05941178416833,105.71838847652543 156.6907163921278,105.68281848027254 155.9533256078139,105.71838847652543 155.52318098361138,105.71838847652543 154.72434096736833,105.78952845791355 154.4785440393025,105.75395846902393 153.74115325510502,105.78952845791355 151.03738704614807,105.78952845791355 150.73014088603668,105.75395846902393 150.48434395797085,105.71838847652543 150.2692716458114,105.68281848027254 150.02347471774556,105.6472484805272 149.77767778967973,105.6472484805272 149.59333009354305,105.61167847714387 149.3782577816164,105.57610847003525 149.16318546934053,105.57610847003525 148.3643454532139,105.46939842714346 120.98871258751024,112.15649813876371 119.75972794706468,114.2906519563694 121.41885721171275,115.5 107.96147539897356,90.56524225199246 118.53074330673553,98.67545860196697 118.65364177082665,98.81774141883943 118.62291715480387,98.8533121139044 124.86001420486718,101.27211088739568 124.64494189294055,101.12982907018159 124.12262342078611,100.84526526191621 123.47740648454055,100.41841911498341 123.17016032442916,100.16942528830259 122.5249433881836,99.7425783155777 122.2176972279558,99.56472525629215 121.63392952387221,99.13787754473742 121.35740797966719,98.99559485830832 120.7429156594444,98.56874645137577 120.43566949944943,98.39089279450127 119.29885870707221,97.71504807291785 119.0223371629836,97.53719398140674 118.43856945855077,97.11034379256307 118.00842483458109,96.6479221660702 117.82407713844441,96.47006753124879 117.57828021037858,96.18549992740736 117.08668635424692,95.65193504543277 116.81016481015831,95.40293782157823 116.34929556993302,94.94051393499831 115.9498755618697,94.47808943630662 115.6733540177811,94.22909137568786 115.24320939357858,93.76666593537084 114.69016630528495,92.98409841096145 114.53654322528746,92.73509928557905 114.41364476131275,92.45052863919409 114.075673985295,91.88138665113365 113.9220509051811,91.56124387521413 113.64552936097607,90.95652894268278 113.39973243291024,90.35181296322844 113.00031242484692,89.81823917088332 112.8774139607558,89.49809450434987 112.69306626473553,88.82223257794976 112.41654472053051,88.03965397700085 111.77132778440136,87.04364231281215 111.18756008008495,86.0120558096969 111.0032123841811,85.76305171460262 110.66524160793051,84.94489415222779 110.3887200638419,84.34016776591307 110.20437236782163,84.02001807873603 109.86640159168746,83.37971782402019 109.74350312771276,83.02399495308055 109.43625696760137,82.34812050050823 109.31335850362666,82.06354139230098 108.91393849533051,81.03194018176873 108.63741695135832,80.00033592438558 108.33017079124693,79.18216486429446 108.11509847920388,78.8264377186133 107.37770769488998,77.47467126138508 107.28553384682164,77.11894237675006 107.07046153466217,76.40748352074297 106.94756307080388,75.26914633676643 106.88611383875832,74.98456146119861 106.7632153746672,74.20195185762714 106.70176614262164,73.84621963990503 106.57886767864693,73.09918080337229 106.51741844660137,72.77902081306092 106.39451998251025,72.06755311688175 106.3330707505811,71.74739218081231 106.24089690251276,70.96477532375138 106.24089690251276,70.6446133767895 106.08727382239886,70.00428860247484 106.05654920637608,69.68412577509298 106.0258245903533,68.97265177458758 106.0258245903533,68.61691423080629 106.05654920637608,67.94101189952926 105.96437535842415,66.90936897721258 105.96437535842415,66.12674127932405 105.96437535842415,65.73542677270598 106.11799843842164,63.992293189425254 106.11799843842164,63.63655057284632 106.11799843842164,62.92506425268948 105.93365074228495,61.96455542134936 105.93365074228495,61.60881073935889 105.93365074228495,61.32421473279828 105.90292612626217,60.612723701808136 105.93365074228495,60.32812688362901 105.93365074228495,59.50990973945591 105.87220151035581,58.6916906783008 105.90292612626217,57.94461942650378 105.81075227842666,57.16197163902689 105.78002766228747,56.308172052376904 105.81075227842666,55.88127147630439 105.71857843035832,55.312069896404864 105.53423073422164,54.778442572656786 105.50350611831527,54.1736639534065 105.50350611831527,53.782336053292966 105.50350611831527,52.750651305919746 105.34988303820137,52.25259550931514 105.34988303820137,51.54108599637402 105.38060765422415,51.04302847478539 105.68785381421912,49.72673017671332 105.65712919831276,49.65557877611718 106.21017228637356,49.477700210904004 106.73249075864442,49.44212448701728 109.52843081555329,49.86903293474461 109.95857543963939,49.86903293474461 110.88031392008997,49.620003070274834 111.7098785523558,49.477700210904004 113.24610935291275,48.97963974639424 114.50581860926468,48.659457644069334 114.84378938539885,48.58830602595117 115.5197309377836,48.58830602595117 115.98060017789248,48.659457644069334 117.2710340503836,48.55273021134781 118.03914945060387,48.41042691716575 119.23740947502665,48.1258201545279 119.69827871513553,48.01909255888313 120.92726335558109,47.80563726942637 121.63392952387221,47.80563726942637 122.27914646011777,47.627757761860266 122.9550880122697,47.52103001388605 123.2623341724975,47.449878163810354 123.96900034067221,47.34315036147018 124.64494189294055,47.41430223334464 125.19798498111777,47.52103001388605 125.5666803731583,47.52103001388605 126.05827422940638,47.41430223334464 126.42696962144691,47.34315036147018 127.13363578973804,47.27199847510201 128.57769274222665,46.88066284096567 128.57769274222665,46.84508685252513 128.60841735824943,46.77393486458459 128.6391419742722,46.73835886528832 128.6391419742722,46.73835886528832 128.6391419742722,46.73835886528832 128.60841735824943,46.73835886528832 128.57769274222665,46.77393486458459 128.57769274222665,46.809510860359296 128.60841735824943,46.809510860359296 128.60841735824943,46.809510860359296 128.60841735824943,46.809510860359296 128.60841735824943,46.809510860359296 128.60841735824943,46.809510860359296 128.60841735824943,46.84508685252513 128.60841735824943,46.84508685252513 128.6391419742722,46.809510860359296 128.6391419742722,46.77393486458459 128.70059120620135,46.73835886528832 129.59160507062916,46.52490279293852 130.02174969483167,46.3825986723823 130.8205897109583,46.20471843992709 131.22000971913803,46.133566321688704 131.95740050345194,45.955685962399 132.3260958956089,45.92010987966205 133.09421129582915,45.74222941172775 133.4629066879861,45.59992497210624 134.23102208820637,45.49319660424953 134.59971748036332,45.422044341044966 135.73652827274054,45.17301130533451 136.13594828092027,45.06628280703444 136.87333906511776,44.88840190411429 137.2727590732975,44.81724951756769 138.01014985749498,44.674944701080676 138.77826525783166,44.60379227096564 139.17768526589498,44.53263982641511 139.91507605009247,44.46148736748728 140.68319145042915,44.35475865169428 141.0518868425861,44.24802990339231 141.82000224292278,44.14130112231942 142.18869763496332,44.0701485836762 142.92608841927722,43.892267173243454 143.32550842745695,43.82111458372674 144.00144997960888,43.60765672827256 144.37014537176583,43.50092775162193 145.07681153994054,43.35862239851849 145.4455069322139,43.25189334581955 146.21362233243417,43.109587891201954 146.5823177244747,43.03843514228356 149.04028700536583,42.504789062659256 149.43970701354556,42.39805974892806 150.20782241388224,42.18460102347308 150.60724242194556,42.11344808596186 151.34463320625946,41.93556567889755 151.74405321432278,41.864412690658355 152.45071938249748,41.75768318105838 152.8808640067,41.68653015670134 153.6489794071531,41.579800592851825 155.30810867168475,41.33076481692842 155.67680406360887,41.18845857947599 156.44491946394555,40.93942252447596 156.78289024019614,40.797116127447225 157.76607795245945,40.441349881497445 158.10404872859363,40.26346662256401 158.77999028086197,39.94327652818174 159.48665644903667,39.76539301552111 159.85535184131004,39.72981630207505 161.45303187379614,39.30289545850246 162.15969804185443,38.911550893302774 162.46694420208223,38.80482048128033 163.3886826823,38.62693638858036 163.8188273065025,38.66251321439631 164.64839193888474,38.69809003654518 165.38578272308223,38.62693638858036 165.75447811512277,38.59135955918464 166.49186889955308,38.55578272623825 166.8912889076164,38.52020588950836 167.6286796919303,38.342321651929524 168.73476586816832,38.44905220530927 168.70404125226196,38.48462904928601 168.70404125226196,38.44905220530927 168.73476586816832,38.44905220530927 169.13418587634806,38.306744793546386 170.2402720528189,38.093283566995524 170.51679359690752,37.95097601015004 171.5921551573556,37.559629929746734 171.9915751654189,37.3817452029034 173.03621210972778,37.0259754769213 173.40490750188474,36.84809047810268 174.11157367017586,36.52789725182811 174.51099367823917,36.421166111162165 175.4634567744797,36.029818316193996 175.6785290867556,35.95866412448231 177.06113680731505,35.95866412448231 177.4298321993556,35.85193280983367 178.1672229836695,35.745201462559635 178.8738891518442,35.496161525312345 179.21185992797837,35.38943006921909 179.97997532819863,35.06923550530337 180.348670720472,34.92692671593977 181.0553368886467,34.677886195102474 181.39330766478088,34.5 181.85417690488975,34.784617868688656 182.00779998488724,35.175967059185496 182.16142306500115,35.88750991830602 182.19214768102393,36.24328080419218 182.28432152897585,36.8125134674774 182.56084307306446,37.524052991648205 182.74519076908473,38.235591065866174 182.8066400011303,38.59135955918464 182.9295384652214,39.338472215342335 183.02171231328975,39.694239585107425 183.48258155351505,41.29518826294225 183.7898277133936,42.3624833037029 183.8205523295328,42.75382400126546 183.23678462544922,43.57208040627302 182.83736461715307,43.57208040627302 182.0692492169328,43.714385672385106 181.70055382477585,43.785538283584174 180.99388765648473,43.892267173243454 179.8878014802467,43.785538283584174 178.75099068775307,43.99899603042286 178.38229529559612,44.0701485836762 177.61417989537586,44.212453646730864 177.2454845032189,44.31918240591767 176.47736910299864,44.46148736748728 176.10867371084169,44.639368487813044 175.34055831062142,44.88840190411429 174.57244291028474,45.06628280703444 173.83505212608725,45.31531591882231 173.3127336539328,45.20858746414888 173.25128442177083,44.959554276196286 173.09766134177335,44.28360615641577 172.75969056563918,42.54036549341981 172.75969056563918,42.149024556565564 172.75969056563918,40.797116127447225 173.25128442177083,39.231741933792364 173.8965013581328,38.66251321439631 174.23447213426698,38.306744793546386 174.9411383024417,37.773091482551536 176.04722447891254,37.346168246585876 176.3851952549303,37.31059128663037 177.1225860392442,37.2038603851106 177.55273066321388,37.0259754769213 178.25939683162142,36.705782413861016 178.62809222366195,36.563474291411694 179.33475839195307,37.84424530446995 179.48838147206698,38.306744793546386 179.76490301615559,40.29904328158591 179.91852609615307,40.725962907337816 180.13359840819612,41.508647532056784 180.0414245602442,42.39805974892806 179.76490301615559,42.575941920425976 179.48838147206698,42.75382400126546 178.84316453582142,43.07401151856175 178.1364983675303,43.287469700328074 177.4298321993556,43.50092775162193 177.1225860392442,43.60765672827256 176.0779490948189,43.85669088034774 174.72606599039864,44.212453646730864 173.1898351898417,43.892267173243454 172.94403826165944,42.75382400126546 172.85186441370752,42.042295133986045 172.85186441370752,41.72210667069885 172.79041518166196,41.4730709962605 172.79041518166196,40.33461993705714 174.01939982210752,38.271167931496166 174.3573705982417,37.98655290482566 175.03331215051003,37.595206864352804 175.34055831062142,37.488476049824385 175.98577524686698,37.346168246585876 176.35447063890751,37.3817452029034 177.3991075832164,37.061552465864224 177.79852759151254,36.84809047810268 178.47446914366446,36.52789725182811 179.27330916002393,36.8125134674774 179.51910608797334,38.37789850664558 179.91852609615307,40.40577323702746 180.07214917626698,40.83269273213227 180.22577225626446,41.54422406424419 179.24258454388473,42.8249768083042 178.8738891518442,43.0028587623965 178.19794759957585,43.21631698755664 177.8292522074189,43.35862239851849 177.15331065515056,43.60765672827256 176.44664448697586,43.785538283584174 174.6338921423303,44.35475865169428 173.8965013581328,44.60379227096564 173.22055980586447,44.0701485836762 172.94403826165944,43.429775082331616 172.82113979780115,42.68267117982032 172.85186441370752,42.042295133986045 172.79041518166196,40.5125031597272 172.79041518166196,40.01442990786745 173.22055980586447,39.37404896860244 173.86577674211003,38.69809003654518 174.54171829426195,38.093283566995524 175.30983369448222,37.63078379520448 176.10867371084169,37.3817452029034 176.44664448697586,37.31059128663037" stroke="#4dd2ff" stroke-linecap="round" stroke-linejoin="round" stroke-width="0.5"><title>2023-02-19 12.1km</title></polyline><polyline fill="none" points="86.86469948315062,220.2048660824221 86.88672831107397,220.0008060403925 86.97484362253454,219.38862491618784 86.95281479461119,219.15905660868157 86.97484362253454,218.903980464529 87.34933369595092,217.96019647159846 87.59165080229286,217.80715008340485 87.9441120477859,217.6030880870385 88.64903453900479,217.32250257032865 88.91338047315367,217.32250257032865 89.35395703022368,217.2459791930596 89.55221648083534,217.1949635951314 90.14699483267032,216.965393276143 90.43336959474254,216.8378541189595 91.53481098718476,217.37351814216527 91.62292629864533,218.03671963060333 91.77712809341028,218.62339640589198 91.93132988852449,220.0008060403925 91.77712809341028,220.8935674965469 91.5568398151081,221.09762681092252 91.11626325803809,221.3782080967503 90.36728311120532,221.60777436940407 89.8606200707145,221.81183310165943 89.57424530864228,221.86284775883541 88.78120750607923,222.09241358703002 88.51686157181393,222.14342818694422 87.15107424522284,221.83734043156437 87.06295893376227,220.97008975892095 87.12904541741591,220.7150154599949 87.15107424522284,220.5364632960991 87.19513190095313,220.10283608218015 87.2832472124137,219.8477608996618 87.34933369595092,219.33760975491896 87.21716072887648,218.36831971596985 87.48150666302536,217.78164234300493 87.98816970351618,217.52656479543657 88.25251563778147,217.4500414805516 88.75917867815588,217.37351814216527 89.02352461242117,217.34801035755663 89.79453358717728,217.143947986915 90.34525428328197,216.91437762106943 90.60960021754727,216.8633619555767 91.16032091376837,216.68480704465765 91.6669839542592,217.6285958456574 91.75509926571976,217.90918101927673 91.90930106060114,218.3938273966487 91.97538754413836,219.15905660868157 94.70696219743695,221.7608184341807 94.7950775087811,221.99038435600232 94.97130813158583,222.3985010306642 95.10348109866027,222.85763149432023 95.12550992658362,223.0871964105172 95.14753875439055,223.29125393697177 95.19159641012084,223.7503827636392 95.21362523792777,223.95443974959198 95.2356540657347,224.15849656923092 95.30174054927193,224.59211675892584 95.3457982048858,224.84718710786547 95.47797117207665,225.35732702624227 95.5,225.612396595694 94.70696219743695,226.6071654335101 94.17827032902278,226.70919278317888 93.67160728853196,226.9387541678443 93.42929018219002,227.06628817948513 92.68031003535725,227.39787630578212 92.15161816694308,227.4233830665762 91.38060919230338,227.57642357649456 90.94003263523336,227.85699760184798 90.27916779974476,228.36713138782943 90.01482186559588,228.44365136607666 89.48612999729812,228.62219789103256 89.22178406303283,228.69871779139794 88.20845798193477,229.05581035025534 87.92208321997896,229.13233011805278 87.39339135156479,229.25986301233934 87.12904541741591,229.33638271781092 86.5783247211948,229.4384089553496 86.04963285278063,229.56594169378513 85.80731574643869,229.66796783776954 84.97022028826177,229.69347436726093 84.72790318191983,229.56594169378513 84.59573021472897,229.59144823365205 84.59573021472897,229.59144823365205 84.57370138692204,229.59144823365205 84.35341310850345,229.61695477098692 83.38414468313567,230.05056550743757 82.78936633118428,230.4586690440483 82.3047321185004,230.58620126289316 82.06241501215845,230.63721413222083 81.57778079959098,230.7137334166764 81.31343486532569,230.73923983963323 80.78474299702793,230.81575909299136 80.54242589056958,230.84126550554356 80.03576285007875,230.91778472767328 79.77141691592988,230.99430392644717 79.2427250475157,231.0708231018216 78.97837911336683,231.12183587242907 78.42765841714572,231.19835500886256 78.11925482726656,231.27487412186747 77.54650530323852,231.3513932115311 76.75346750067547,231.24936775342212 76.53317922214046,231.12183587242907 76.04854500957299,231.0198103208968 75.7841990753077,231.09632948842773 73.88971988030244,231.91253248760768 73.62537394603714,231.93803878844483 73.09668207773939,232.01455767547304 72.81030731566716,232.04006396597833 71.95118302956689,232.11658282166172 71.37843350553885,232.1420891017915 70.91582812077831,232.2696204631211 70.40916508017108,232.29512672765122 69.88047321187332,232.2696204631211 69.35178134345915,232.34613924880978 68.86714713077527,232.57569546543527 68.36048409016803,232.70322660595411 68.1181669839425,232.70322660595411 67.43527332064696,233.11132581914717 67.14889855857473,233.16233817403554 66.64223551808391,233.2388566869049 66.37788958393503,233.31537517627294 65.84919771540444,233.34088133425394 65.56282295344863,233.34088133425394 64.79181397869252,233.31537517627294 64.04283383185975,233.49391822745383 62.43472939892672,233.4429059400427 61.972124014166184,233.57043663895456 61.70777807990089,233.6214489002159 61.53154745709617,233.6469550270267 61.04691324441228,233.69796727280482 60.80459613807034,233.7234733918158 59.791270057088695,233.77448562193604 59.52692412293982,233.85100394776964 59.02026108233258,234.0295466169482 58.79997280379757,234.106064864769 58.425482730497606,234.2591012902849 57.742589067085646,234.2591012902849 57.72056023939513,234.20808915884118 57.72056023939513,234.2335952259018 57.69853141147178,234.2335952259018 57.69853141147178,234.2335952259018 57.67650258354843,234.2591012902849 57.67650258354843,234.2335952259018 57.67650258354843,234.2335952259018 57.69853141147178,234.2591012902849 57.67650258354843,234.2335952259018 57.67650258354843,234.2335952259018 57.67650258354843,234.2335952259018 57.67650258354843,234.20808915884118 57.67650258354843,234.18258308926306 57.65447375574149,234.18258308926306 57.65447375574149,234.18258308926306 57.01563774817623,234.43764366852702 56.6191188468365,234.43764366852702 56.15651346195955,234.28460735207773 55.407533315126784,234.48865575318632 55.23130269232206,234.5906798913784 54.70261082390789,234.7947280429944 54.41623606195208,234.87124605703866 53.86551536573097,234.97327003927785 53.60116943146568,234.99877602841298 52.78610280121211,235.0497879987961 52.521756866946816,235.12630593482754 52.015093826455995,235.27934173682297 51.7507478921907,235.3558596027142 50.60524884413462,235.48338932724437 50.40698939352296,235.45788338755665 49.591922763036564,235.50889526434185 49.591922763036564,235.5344011989073 49.327576828887686,235.712942667873 48.97511558327824,235.712942667873 48.60062550986186,235.6619308325171 48.4023660592502,235.63642491103383 48.24816426425241,235.61091898691666 47.653385912417434,235.5599071308825 47.34498232253827,235.5344011989073 46.706146314856596,235.50889526434185 45.97919499583077,235.5344011989073 45.69282023375854,235.5344011989073 44.98789774265606,235.10079995874548 44.50326352997217,235.0497879987961 43.95254283375107,235.10079995874548 43.4238509653369,235.1518119083048 42.89515909703914,235.10079995874548 42.6528419906972,235.07529398004408 42.14617895020638,234.99877602841298 41.617487081792206,234.97327003927785 41.37516997545026,234.97327003927785 40.84647810703609,234.99877602841298 40.58213217288721,234.99877602841298 40.07546913239639,234.9477640476398 39.89923850947525,234.8967520564911 38.77576828922611,234.84574005496688 38.643595322268084,234.7947280429944 38.68765297799837,234.7947280429944 38.70968180568889,234.82023405024665 38.73171063361224,234.82023405024665 38.73171063361224,234.82023405024665 38.73171063361224,234.7692220331519 38.75373946141917,234.7437160207337 38.73171063361224,234.7437160207337 38.73171063361224,234.7437160207337 38.73171063361224,234.7437160207337 38.73171063361224,234.7437160207337 38.577508838730864,234.7437160207337 38.291134076658636,234.7437160207337 36.70505847153254,234.64169194480928 36.418683709576726,234.69270398801018 35.60361707909033,234.7947280429944 35.16304052202031,234.7182100056234 34.96478107152507,234.66719796770485 34.74449279299006,234.61618591941078 34.28188740822952,234.56517386069754 33.753195539698936,234.64169194480928 33.22450367140118,234.64169194480928 32.71784063091036,234.56517386069754 30.867419091635384,234.5396678274701 30.360756051028147,234.66719796770485 29.87612183834426,234.64169194480928 29.611775904195383,234.61618591941078 29.105112863588147,234.514161791667 28.422219200292602,234.48865575318632 27.91555615980178,234.5906798913784 27.739325537113473,234.5906798913784 27.47497960284818,234.56517386069754 27.034403045894578,234.5396678274701 26.7700571117457,234.514161791667 26.26339407125488,234.48865575318632 25.999048137106,234.4631497121154 24.87557791674044,234.106064864769 24.17065542563796,233.927522250131 23.399646450881846,234.05505270219874 22.89298341027461,233.97853443873464 22.650666303932667,233.927522250131 22.12197443563491,233.85100394776964 21.637340222951025,233.90201615195838 21.39502311660908,233.9530283457134 20.88836007611826,234.0295466169482 20.624014141852967,234.05505270219874 20.07329344563186,234.106064864769 19.63271688867826,234.0295466169482 19.21416915964801,233.97853443873464 18.949823225382715,233.9530283457134 18.42113135708496,233.927522250131 18.134756595012732,233.927522250131 17.363747620256618,234.00404052916565 16.835055751842447,234.0295466169482 16.59273864561692,233.97853443873464 16.108104432816617,233.8765100511373 15.623470220249146,233.77448562193604 15.403181941830553,233.7489795081783 14.940576556953602,233.79999173319084 14.764345934148878,233.8765100511373 14.5,233.46841208497062 14.588115311344154,233.21335051853384 14.720288278418593,232.77974525907484 14.808403589879163,232.52468299103202 15.05072069610469,231.75949462791323 15.491297253174707,231.4789249755704 15.909844982321374,231.3513932115311 16.37245036708191,231.32588685087103 17.033315202686936,231.30038048763527 17.297661136719398,231.24936775342212 18.39910252916161,231.3513932115311 18.663448463426903,231.37689956951363 19.390399782336317,231.4534186279634 19.875033995020203,231.32588685087103 20.337639379897155,231.14734225379652 20.712129453313537,230.84126550554356 20.844302420387976,230.66272056293383 20.97647538757883,229.69347436726093 20.95444655965548,229.46391550826957 20.95444655965548,229.23435643868288 20.97647538757883,228.85175752187206 20.95444655965548,228.69871779139794 20.88836007611826,228.16307799810602 20.844302420387976,227.95902444219973 20.668071797583252,227.52541008354456 21.10864835465327,227.0152745826199 21.725455534411594,226.9897677803092 21.945743812830187,226.9387541678443 23.377617622958496,226.83672691174434 23.972395974909887,226.8112200912583 24.258770736982115,226.83672691174434 25.051808539545164,226.65817911352497 26.439624694059603,226.5561517430906 26.63788414467126,226.58165858962457 26.858172423089854,226.63267227484903 27.276720152120106,226.70919278317888 27.541066086501814,226.70919278317888 28.59844982321374,226.70919278317888 28.86279575736262,226.6836859495961 29.633804732118733,226.6836859495961 30.162496600300074,226.6071654335101 31.10973619786091,226.4541243311105 31.90277400042396,226.50513804228103 32.93812890944537,226.5561517430906 33.202474843594246,226.47963118802 33.73116671200842,226.47963118802 34.48014685884118,226.50513804228103 34.92072341579478,226.5561517430906 35.207098177750595,226.6071654335101 35.38332880055532,226.53064489393728 35.62564590689726,226.47963118802 36.13230894762091,226.4541243311105 36.37462605384644,226.4541243311105 36.9033179221442,226.47963118802 37.16766385640949,226.42861747161078 37.52012510190252,226.58165858962457 37.58621158543974,226.58165858962457 37.58621158543974,226.53064489393728 37.696355724707246,226.27557626002817 37.71838455251418,226.32659000762214 37.71838455251418,226.27557626002817 37.71838455251418,226.30108313515666 37.71838455251418,226.30108313515666 37.696355724707246,226.22456250210234 37.850557519705035,226.22456250210234 38.07084579824004,226.17354873367003 38.357220560195856,226.12253495497862 39.41460429690778,225.86746590521943 40.736333967885,226.02050736619276 42.212265433743596,226.30108313515666 42.71892847423442,226.35209687748284 43.31370682618581,226.40311060956446 44.305004079360515,225.86746590521943 45.20818602119107,225.48486184343346 46.08933913509827,225.30631308116426 46.64005983131938,225.25529912576894 46.926434593391605,225.2297921441059 47.78555887949187,224.82168008459848 48.55656785413157,224.61762380551954 49.6139515908435,224.61762380551954 49.569893935113214,224.4135673600249 49.569893935113214,224.49008854654676 49.547865107422695,224.5666097096837 49.547865107422695,224.59211675892584 50.054528147913516,224.5411026579386 50.627277671941556,224.31153907488624 50.869594778399915,224.2350178337947 51.94900734280236,224.15849656923092 52.742045145481825,224.31153907488624 53.35885232524015,224.1840036600479 53.64522708719596,224.08197528135497 54.195947783533484,223.92893263546284 55.09912972524762,223.67386135095148 55.12115855317097,223.6993684910558 55.31941800378263,223.64835420819873 56.442888224031776,223.13821080767957 56.68520533037372,223.11270361037168 57.16983954294119,223.06168920802884 57.41215664939955,223.03618200289202 57.918819690006785,222.95966037194012 58.425482730497606,222.85763149432023 58.9762034266023,222.70458810000855 59.262578188674524,222.67908085849194 59.791270057088695,222.628066367688 60.31996192538645,222.55154461212805 60.87068262160756,222.4240083007171 61.1129997279495,222.37299375794828 61.57560511282645,222.32197920480394 62.01618166978005,222.16893548298685 62.45675822685007,222.09241358703002 62.6990753330756,222.04139897676941 63.20573837356642,221.99038435600232 64.24109328258783,221.83734043156437 64.46138156100642,221.81183310165943 64.99007342942059,221.7608184341807 65.18833288003225,221.6842964134994 65.67296709271614,221.50574494089233 66.17963013320696,221.3782080967503 66.44397606735583,221.32719334091234 66.92861028003972,221.27617857466976 67.1929562141886,221.2506711876049 67.74367691052612,221.09762681092252 68.03005167248193,221.04661199796828 68.58077236881945,220.94458234075864 69.13149306492414,220.8170452107588 69.72627141687553,220.51095583375718 69.90250203968026,220.5364632960991 70.43119390797801,220.48544836872315 70.62945335870609,220.40892595822515 72.12741365237162,220.23037357602152 72.59001903724857,220.07732857564406 72.81030731566716,219.92428348169778 73.3830568396952,219.54167033756676 73.47117215115577,219.54167033756676 73.49320097907912,219.6692081172514 73.47117215115577,219.69471566543507 73.51522980688605,219.72022321094119 73.75754691311158,219.64370056655025 74.35232526517939,219.4141324928787 74.61667119932827,219.23557940122555 75.10130541201215,218.903980464529 75.56391079677269,218.903980464529 76.13666032080073,218.98050333510037 76.31289094372187,219.03151856911427 76.26883328787517,219.13354900600098 76.20274680445436,219.05702618221403 76.40100625506602,218.95499571415712 76.59926570567768,218.77644229504222 77.06187109055463,218.54687342618126 77.30418819689658,218.47035042314383 77.85490889311768,218.3938273966487 78.20737013861071,218.3173043468123 78.75809083483182,218.08773505693534 79.66127277666237,217.9346887467982 79.92561871081125,217.9346887467982 80.41025292349514,217.88367328916502 81.66589611081872,217.90918101927673 82.17255915154237,217.88367328916502 82.39284742996097,217.80715008340485 82.83342398691457,217.75613459994202 83.09776992106345,217.75613459994202 84.41949959204067,217.6030880870385 85.05833559960593,217.32250257032865 85.96151754143648,216.78683843801264 86.20383464777842,216.60828347245115 86.75455534399953,216.2001573588641 87.39339135156479,215.9195702697907 88.07628501486033,215.7920305798907 89.61830296425615,215.40941112031578 90.23511014413089,215.2308551724127 90.98409029096365,214.77171072163037 92.12958933913615,214.41459778872377 92.39393527316861,214.28705733211245 93.16494424792472,215.2308551724127 93.18697307584807,216.09812572653755 93.27508838719223,216.76133059355197 93.3632036986528,217.09293236825033 93.51740549353417,217.6796113551536 94.26638564036693,219.4396400669939 94.70696219743695,220.23037357602152 94.81710633670446,221.02110458759125 94.77304868097417,221.30168595904252 94.37652977975085,221.55675966033596 94.0240685341414,221.58226701612875 93.34117487072945,221.6587890679948 93.05480010877363,221.7353110965778 92.52610824035946,221.88835508344346 91.60089747072197,221.81183310165943 91.11626325803809,221.9138624054467 89.83859124279115,222.2199500673887 89.53018765291199,222.29647192436096 89.04555344034452,222.47502283306676 88.78120750607923,222.55154461212805 88.1644003263209,222.73009533892036 87.90005439217202,222.78110980882775 87.12904541741591,222.67908085849194 87.12904541741591,222.3985010306642 87.12904541741591,222.24545735561696 87.0189012781484,221.22516379802255 86.90875713899732,219.7967458319472 86.88672831107397,219.28659458324546 86.82064182753675,218.4448427502939 87.2832472124137,217.83265782133094 87.54759314656258,217.7051191060018 88.29657329351176,217.1949635951314 88.53889039973728,217.06742455495987 89.70641827571671,216.93988544985768 89.99279303778894,216.8633619555767 90.80785966815893,216.6337913324969 91.05017677450087,216.5062520064239" stroke="#4dd2ff" stroke-linecap="round" stroke-linejoin="round" stroke-width="0.5"><title>2023-02-06 10.5km</title></polyline></svg>