<?xml version="1.0" encoding="utf-8" ?>
<svg baseProfile="full" height="300mm" version="1.1" viewBox="0,0,200,300" width="200mm" xmlns="http://www.w3.org/2000/svg" xmlns:ev="http://www.w3.org/2001/xml-events" xmlns:xlink="http://www.w3.org/1999/xlink"><defs /><rect fill="#222222" height="300" width="200" x="0" y="0" /><text fill="#FFFFFF" style="font-size:12px; font-family:Arial; font-weight:bold;" x="10" y="20">Over 10km Runs</text><text fill="#FFFFFF" style="font-size:4px; font-family:Arial" x="10" y="280">ATHLETE</text><text fill="#FFFFFF" style="font-size:9px; font-family:Arial" x="10" y="290">rdshoep</text><text fill="#FFFFFF" style="font-size:4px; font-family:Arial" x="120" y="280">STATISTICS</text><text fill="#FFFFFF" style="font-size:3px; font-family:Arial" x="120" y="285">Number: 1</text><text fill="#FFFFFF" style="font-size:3px; font-family:Arial" x="120" y="290">Weekly: 1.0</text><text fill="#FFFFFF" style="font-size:3px; font-family:Arial" x="141" y="285">Total: 10.5 km</text><text fill="#FFFFFF" style="font-size:3px; font-family:Arial" x="141" y="290">Avg: 10.5 km</text><text fill="#FFFFFF" style="font-size:3px; font-family:Arial" x="167" y="285">Min: 10.5 km</text><text fill="#FFFFFF" style="font-size:3px; font-family:Arial" x="167" y="290">Max: 10.5 km</text><polyline fill="none" points="163.72939896630123,140.40973216484417 163.77345662214793,140.00161208078498 163.94968724506907,138.77724983237567 163.90562958922237,138.31811321736313 163.94968724506907,137.80796092905803 164.69866739190184,135.92039294319693 165.18330160458572,135.6143001668097 165.8882240955718,135.20617617407697 167.29806907800958,134.6450051406573 167.82676094630733,134.6450051406573 168.70791406044737,134.49195838611922 169.10443296167068,134.38992719026282 170.29398966534063,133.930786552286 170.8667391894851,133.67570823791903 173.0696219743695,134.74703628433053 173.24585259729065,136.07343926120666 173.55425618682057,137.24679281178396 173.86265977704898,140.00161208078498 173.55425618682057,141.7871349930938 173.1136796302162,142.19525362184504 172.23252651607618,142.75641619350063 170.73456622241065,143.21554873880814 169.721240141429,143.62366620331886 169.14849061728455,143.72569551767083 167.56241501215845,144.18482717406005 167.03372314362787,144.28685637388844 164.3021484904457,143.67468086312874 164.12591786752455,141.9401795178419 164.25809083483182,141.4300309199898 164.3021484904457,141.0729265921982 164.39026380190626,140.2056721643603 164.5664944248274,139.69552179932361 164.69866739190184,138.67521950983792 164.43432145775296,136.7366394319397 164.9630133260507,135.56328468600987 165.97633940703236,135.05312959087314 166.50503127556294,134.90008296110318 167.51835735631175,134.74703628433053 168.04704922484234,134.69602071511326 169.58906717435457,134.28789597383002 170.69050856656395,133.82875524213887 171.21920043509454,133.72672391115339 172.32064182753675,133.3696140893153 173.3339679085184,135.2571916913148 173.51019853143953,135.81836203855346 173.81860212120228,136.7876547932974 173.9507750882767,138.31811321736313 179.4139243948739,143.52163686836138 179.5901550175622,143.98076871200465 179.94261626317166,144.79700206132839 180.20696219732054,145.71526298864046 180.25101985316724,146.17439282103442 180.2950775087811,146.58250787394354 180.38319282024167,147.50076552727842 180.42725047585554,147.90887949918397 180.4713081314694,148.31699313846184 180.60348109854385,149.18423351785168 180.6915964097716,149.69437421573093 180.9559423441533,150.71465405248455 181.0,151.22479319138802 179.4139243948739,153.21433086702018 178.35654065804556,153.41838556635776 177.34321457706392,153.87750833568862 176.85858036438003,154.13257635897025 175.3606200707145,154.79575261156424 174.30323633388616,154.8467661331524 172.76121838460676,155.15284715298912 171.88006527046673,155.71399520369596 170.5583355994895,156.73426277565886 170.02964373119175,156.88730273215333 168.97225999459624,157.2443957820651 168.44356812606566,157.39743558279588 166.41691596386954,158.11162070051068 165.84416643995792,158.26466023610556 164.78678270312957,158.51972602467868 164.25809083483182,158.67276543562184 163.1566494423896,158.87681791069917 162.09926570556127,159.13188338757027 161.61463149287738,159.33593567553908 159.94044057652354,159.38694873452187 159.45580636383966,159.13188338757027 159.19146042945795,159.1828964673041 159.19146042945795,159.1828964673041 159.14740277384408,159.1828964673041 158.7068262170069,159.23390954197384 156.76828936627135,160.10113101487514 155.57873266236857,160.91733808809659 154.6094642370008,161.1724025257863 154.1248300243169,161.27442826444167 153.15556159918196,161.4274668333528 152.62686973065138,161.47847967926646 151.56948599405587,161.6315181859827 151.08485178113915,161.68253101108712 150.0715257001575,161.83556945534656 149.54283383185975,161.98860785289435 148.4854500950314,162.14164620364318 147.95675822673365,162.24367174485815 146.85531683429144,162.39671001772513 146.23850965453312,162.54974824373494 145.09301060647704,162.7027864230622 143.50693500135094,162.49873550684424 143.06635844428092,162.24367174485815 142.09709001914598,162.0396206417936 141.5683981506154,162.19265897685545 137.77943976060487,163.82506497521535 137.2507478920743,163.87607757688966 136.19336415547878,164.02911535094609 135.62061463133432,164.08012793195667 133.90236605913378,164.23316564332345 132.7568670110777,164.284178203583 131.83165624155663,164.5392409262422 130.81833016034216,164.59025345530245 129.76094642374665,164.5392409262422 128.7035626869183,164.69227849761955 127.73429426155053,165.15139093087055 126.72096818033606,165.40645321190823 126.236333967885,165.40645321190823 124.87054664129391,166.22265163829434 124.29779711714946,166.32467634807108 123.28447103616782,166.47771337380982 122.75577916787006,166.63075035254587 121.69839543080889,166.68176266850787 121.12564590689726,166.68176266850787 119.58362795738503,166.63075035254587 118.0856676637195,166.98783645490767 114.86945879785344,166.88581188008538 113.94424802833237,167.14087327790912 113.41555615980178,167.24289780043182 113.06309491419233,167.2939100540534 112.09382648882456,167.39593454560963 111.60919227614067,167.44694678363157 109.58254011417739,167.54897124387207 109.05384824587964,167.70200789553928 108.04052216466516,168.05909323389642 107.59994560759515,168.212129729538 106.85096546099521,168.51820258056978 105.48517813417129,168.51820258056978 105.44112047879025,168.41617831768235 105.44112047879025,168.46719045180362 105.39706282294355,168.46719045180362 105.39706282294355,168.46719045180362 105.35300516709685,168.51820258056978 105.35300516709685,168.46719045180362 105.35300516709685,168.46719045180362 105.39706282294355,168.51820258056978 105.35300516709685,168.46719045180362 105.35300516709685,168.46719045180362 105.35300516709685,168.46719045180362 105.35300516709685,168.41617831768235 105.35300516709685,168.36516617852612 105.30894751148298,168.36516617852612 105.30894751148298,168.36516617852612 104.03127549635246,168.87528733705403 103.238237693673,168.87528733705403 102.3130269239191,168.56921470415546 100.81506663025357,168.97731150637264 100.46260538464412,169.18135978275677 99.40522164781578,169.5894560859888 98.83247212390415,169.74249211407732 97.73103073146194,169.9465400785557 97.20233886293136,169.99755205682595 95.57220560242422,170.09957599759218 95.04351373389363,170.25261186965508 94.03018765291199,170.55868347364594 93.5014957843814,170.71171920542838 91.21049768826924,170.96677865448873 90.81397878704593,170.9157667751133 89.18384552607313,171.0177905286837 89.18384552607313,171.06880239781458 88.65515365777537,171.425885335746 87.95023116655648,171.425885335746 87.20125101972371,171.3238616650342 86.8047321185004,171.27284982206766 86.49632852850482,171.22183797383332 85.30677182483487,171.119814261765 84.68996464507654,171.06880239781458 83.41229262971319,171.0177905286837 81.95838999166153,171.06880239781458 81.38564046751708,171.06880239781458 79.97579548531212,170.20159991749097 79.00652705994435,170.09957599759218 77.90508566750214,170.20159991749097 76.8477019306738,170.30362381660962 75.79031819407828,170.20159991749097 75.3056839813944,170.15058796008816 74.29235790041275,169.99755205682595 73.23497416358441,169.9465400785557 72.75033995090052,169.9465400785557 71.69295621407218,169.99755205682595 71.16426434577443,169.99755205682595 70.15093826479279,169.8955280952796 69.7984770189505,169.7935041129822 67.55153657845221,169.69148010993376 67.28719064453617,169.5894560859888 67.37530595599674,169.5894560859888 67.41936361137778,169.6404681004933 67.46342126722448,169.6404681004933 67.46342126722448,169.6404681004933 67.46342126722448,169.53844406630378 67.50747892283835,169.4874320414674 67.46342126722448,169.4874320414674 67.46342126722448,169.4874320414674 67.46342126722448,169.4874320414674 67.46342126722448,169.4874320414674 67.15501767746173,169.4874320414674 66.58226815331727,169.4874320414674 63.41011694306508,169.28338388961856 62.83736741915345,169.38540797602036 61.207234158180654,169.5894560859888 60.32608104404062,169.4364200112468 59.929562143050134,169.3343959354097 59.48898558598012,169.23237183882156 58.563774816459045,169.13034772139508 57.50639107939787,169.28338388961856 56.44900734280236,169.28338388961856 55.43568126182072,169.13034772139508 51.73483818327077,169.07933565494022 50.721512102056295,169.3343959354097 49.75224367668852,169.28338388961856 49.223551808390766,169.23237183882156 48.210225727176294,169.028323583334 46.844438400585204,168.97731150637264 45.83111231960356,169.18135978275677 45.478651074226946,169.18135978275677 44.94995920569636,169.13034772139508 44.068806091789156,169.07933565494022 43.5401142234914,169.028323583334 42.52678814250976,168.97731150637264 41.998096274212,168.92629942423082 39.75115583348088,168.212129729538 38.34131085127592,167.855044500262 36.79929290176369,168.11010540439747 35.78596682054922,167.95706887746928 35.301332607865334,167.855044500262 34.24394887126982,167.70200789553928 33.27468044590205,167.80403230391676 32.79004623321816,167.90605669142678 31.77672015223652,168.05909323389642 31.248028283705935,168.11010540439747 30.146586891263723,168.212129729538 29.26543377735652,168.05909323389642 28.428338319296017,167.95706887746928 27.89964645076543,167.90605669142678 26.84226271416992,167.855044500262 26.269513190025464,167.855044500262 24.727495240513235,168.0080810583313 23.670111503684893,168.05909323389642 23.185477291233838,167.95706887746928 22.216208865633234,167.7530201022746 21.246940440498292,167.54897124387207 20.806363883661106,167.49795901635662 19.881153113907203,167.59998346638167 19.528691868297756,167.7530201022746 19.0,166.93682416994125 19.17623062268831,166.4267010370677 19.440576556837186,165.5594905181497 19.616807179758325,165.04936598206405 20.10144139220938,163.51898925582645 20.982594506349415,162.95784995114082 21.81968996464275,162.7027864230622 22.74490073416382,162.65177370174206 24.06663040537387,162.60076097527053 24.595322273438796,162.49873550684424 26.79820505832322,162.7027864230622 27.326896926853806,162.75379913902725 28.780799564672634,162.9068372559268 29.750067990040407,162.65177370174206 30.67527875979431,162.29468450759305 31.424258906627074,161.68253101108712 31.68860484077595,161.32544112586766 31.95295077515766,159.38694873452187 31.90889311931096,158.92783101653913 31.90889311931096,158.46871287736576 31.95295077515766,157.70351504374412 31.90889311931096,157.39743558279588 31.77672015223652,156.32615599621204 31.68860484077595,155.91804888439947 31.336143595166504,155.0508201670891 32.21729670930654,154.0305491652398 33.45091106882319,153.9795355606184 33.891487625660375,153.87750833568862 36.75523524591699,153.67345382348867 37.94479194981977,153.62244018251658 38.51754147396423,153.67345382348867 40.10361707909033,153.31635822704993 42.879249388119206,153.1123034861812 43.27576828934252,153.16331717924913 43.71634484617971,153.26534454969806 44.55344030424021,153.41838556635776 45.08213217300363,153.41838556635776 47.19689964642748,153.41838556635776 47.72559151472524,153.36737189919222 49.26760946423747,153.36737189919222 50.32499320060015,153.21433086702018 52.21947239572182,152.908248662221 53.80554800084792,153.01027608456207 55.876257818890736,153.1123034861812 56.40494968718849,152.95926237604 57.46233342401683,152.95926237604 58.96029371768236,153.01027608456207 59.841446831589565,153.1123034861812 60.41419635550119,153.21433086702018 60.76665760111064,153.06128978787456 61.25129181379452,152.95926237604 62.26461789524183,152.908248662221 62.74925210769288,152.908248662221 63.806635844288394,152.95926237604 64.33532771281898,152.85723494322156 65.04025020380504,153.16331717924913 65.17242317087948,153.16331717924913 65.17242317087948,153.06128978787456 65.39271144941449,152.55115252005635 65.43676910502836,152.6531800152443 65.43676910502836,152.55115252005635 65.43676910502836,152.60216627031332 65.43676910502836,152.60216627031332 65.39271144941449,152.4491250042047 65.70111503941007,152.4491250042047 66.14169159648009,152.34709746734006 66.71444112039171,152.24506990995724 68.82920859381557,151.73493181043887 71.47266793577,152.04101473238552 74.42453086748719,152.60216627031332 75.43785694846883,152.70419375496567 76.62741365237162,152.80622121912893 78.61000815872103,151.73493181043887 80.41637204238214,150.96972368686693 82.17867827019654,150.61262616232852 83.28011966263875,150.51059825153789 83.85286918678321,150.45958428821177 85.57111775898375,149.64336016919697 87.11313570826314,149.23524761103909 89.227903181687,149.23524761103909 89.13978787022643,148.8271347200498 89.13978787022643,148.98017709309352 89.09573021484539,149.13321941936738 89.09573021484539,149.18423351785168 90.10905629582703,149.08220531587722 91.25455534388311,148.62307814977248 91.73918955679983,148.4700356675894 93.89801468560472,148.31699313846184 95.48409029096365,148.62307814977248 96.7177046504803,148.36800732009578 97.29045417439193,148.16395056270994 98.39189556706697,147.85786527092569 100.19825945049524,147.34772270190297 100.24231710634194,147.3987369821116 100.63883600756526,147.29670841639745 102.88577644806355,146.27642161535914 103.37041066074744,146.22540722074336 104.33967908588238,146.12337841605768 104.8243132987991,146.07236400578404 105.83763938001357,145.91932074388023 106.85096546099521,145.71526298864046 107.9524068532046,145.4091762000171 108.52515637734905,145.3581617169839 109.58254011417739,145.256132735376 110.6399238507729,145.1030892242561 111.74136524321511,144.8480166014342 112.225999455899,144.74598751589656 113.1512102256529,144.64395840960788 114.0323633395601,144.3378709659737 114.91351645370014,144.18482717406005 115.3981506661512,144.08279795353883 116.41147674713284,143.98076871200465 118.48218656517565,143.67468086312874 118.92276312201284,143.62366620331886 119.98014685884118,143.52163686836138 120.3766657600645,143.3685928269988 121.34593418543227,143.01148988178466 122.35926026641391,142.75641619350063 122.88795213471167,142.6543866818247 123.85722056007944,142.5523571493395 124.3859124283772,142.5013423752098 125.48735382105224,142.19525362184504 126.06010334496386,142.09322399593657 127.1615447376389,141.8891646815173 128.2629861298483,141.6340904215176 129.45254283375107,141.02191166751436 129.80500407936051,141.0729265921982 130.86238781595603,140.9708967374463 131.25890671741217,140.8178519164503 134.25482730474323,140.46074715204304 135.18003807449713,140.15465715128812 135.62061463133432,139.84856696339557 136.7661136793904,139.0833406751335 136.94234430231154,139.0833406751335 136.98640195815824,139.3384162345028 136.94234430231154,139.38943133087014 137.0304596137721,139.44044642188237 137.51509382622316,139.2874011331005 138.70465053035878,138.82826498575741 139.23334239865653,138.4711588024511 140.2026108240243,137.80796092905803 141.12782159354538,137.80796092905803 142.27332064160146,137.96100667020073 142.62578188744374,138.06303713822854 142.53766657575034,138.26709801200195 142.40549360890873,138.11405236442806 142.80201251013204,137.90999142831424 143.19853141135536,137.55288459008443 144.12374218110926,137.09374685236253 144.60837639379315,136.94070084628765 145.70981778623536,136.7876547932974 146.41474027722143,136.6346086936246 147.51618166966364,136.1754701138707 149.32254555332474,135.8693774935964 149.8512374216225,135.8693774935964 150.82050584699027,135.76734657833003 153.33179222163744,135.81836203855346 154.34511830308475,135.76734657833003 154.78569485992193,135.6143001668097 155.66684797382914,135.51226919988403 156.1955398421269,135.51226919988403 158.83899918408133,135.20617617407697 160.11667119921185,134.6450051406573 161.92303508287296,133.57367687602527 162.40766929555684,133.2165669449023 163.50911068799905,132.40031471772818 164.78678270312957,131.83914053958142 166.15257002972066,131.5840611597814 169.2366059285123,130.81882224063156 170.47022028826177,130.4617103448254 171.9681805819273,129.54342144326074 174.2591786782723,128.82919557744754 174.78787054633722,128.5741146642249 176.32988849584945,130.4617103448254 176.37394615169615,132.1962514530751 176.55017677438445,133.52266118710395 176.7264073973056,134.18586473650066 177.03481098706834,135.35922271030722 178.53277128073387,138.87928013398778 179.4139243948739,140.46074715204304 179.6342126734089,142.0422091751825 179.54609736194834,142.60337191808503 178.7530595595017,143.1135193206719 178.0481370682828,143.1645340322575 176.6823497414589,143.3175781359896 176.10960021754727,143.47062219315558 175.05221648071893,143.77671016688691 173.20179494144395,143.62366620331886 172.23252651607618,143.82772481089341 169.6771824855823,144.43990013477742 169.06037530582398,144.59294384872192 168.09110688068904,144.95004566613352 167.56241501215845,145.1030892242561 166.3288006526418,145.46019067784073 165.80010878434405,145.5622196176555 164.25809083483182,145.3581617169839 164.25809083483182,144.79700206132839 164.25809083483182,144.49091471123393 164.0378025562968,142.4503275960451 163.81751427799463,139.59349166389438 163.77345662214793,138.57318916649092 163.6412836550735,136.8896855005878 164.5664944248274,135.66531564266188 165.09518629312515,135.4102382120036 166.5931465870235,134.38992719026282 167.07778079947457,134.13484910991974 169.41283655143343,133.87977089971537 169.98558607557788,133.72672391115339 171.61571933631785,133.26758266499382 172.10035354900174,133.01250401284778" stroke="#4DD2FF" stroke-linecap="round" stroke-linejoin="round" stroke-width="0.5"><title>2023-02-06 10.5km</title></polyline></svg>