<?xml version="1.0" encoding="utf-8" ?>
<svg baseProfile="full" height="300mm" version="1.1" viewBox="0,0,200,300" width="200mm" xmlns="http://www.w3.org/2000/svg" xmlns:ev="http://www.w3.org/2001/xml-events" xmlns:xlink="http://www.w3.org/1999/xlink"><defs /><rect fill="#222222" height="300" width="200" x="0" y="0" /><text fill="#FFFFFF" style="font-size:12px; font-family:Arial; font-weight:bold;" x="10" y="20">Over 10km Runs</text><text fill="#FFFFFF" style="font-size:4px; font-family:Arial" x="10" y="280">ATHLETE</text><text fill="#FFFFFF" style="font-size:9px; font-family:Arial" x="10" y="290">rdshoep</text><text fill="#FFFFFF" style="font-size:4px; font-family:Arial" x="120" y="280">STATISTICS</text><text fill="#FFFFFF" style="font-size:3px; font-family:Arial" x="120" y="285">Number: 4</text><text fill="#FFFFFF" style="font-size:3px; font-family:Arial" x="120" y="290">Weekly: 1.0</text><text fill="#FFFFFF" style="font-size:3px; font-family:Arial" x="141" y="285">Total: 42.7 km</text><text fill="#FFFFFF" style="font-size:3px; font-family:Arial" x="141" y="290">Avg: 10.7 km</text><text fill="#FFFFFF" style="font-size:3px; font-family:Arial" x="167" y="285">Min: 10.1 km</text><text fill="#FFFFFF" style="font-size:3px; font-family:Arial" x="167" y="290">Max: 12.1 km</text><polyline fill="none" points="67.41592760011554,105.68191971327178 65.29613508284092,106.38321209116839 53.485862486064434,110.2403176149819 49.85193245857954,111.64290037075989 42.58407239988446,113.04548255424015 39.252969874069095,113.74677343084477 20.78049222379923,80.43529893923551 20.174837220460176,77.6301074216608 20.174837220460176,69.21451914845966 30.773799804970622,51.68197748600505 34.40772983431816,49.578066484536976 44.70386491715908,45.019588235067204 52.274552477523685,43.2663257624954 69.53572011739016,38.35718608717434 72.86682264320552,36.95457346388139 83.46578522957861,41.16240961593576 87.40254276059568,66.40931848390028 88.00819776579738,95.86381141841412 81.64882021397352,99.01963499677368 78.92337269335985,100.42222232371569 69.83854761905968,104.98062719218433 67.11310009658337,105.68191971327178 65.29613508284092,106.38321209116839 58.63393002934754,109.88967183651403 55.90848250873387,110.5909633578267 53.18303498625755,111.29225473478436 48.337794944643974,112.3441915330477 45.30951992236078,112.3441915330477 38.041659861803055,114.09741881652735 23.80876724794507,104.62998087867163 19.266354711726308,86.74697149475105 19.56918221525848,78.33140551578254 19.56918221525848,70.26646880758926 19.56918221525848,66.75996869266964 25.020077258348465,54.487190153682604 35.92186734639108,49.227414525114 39.252969874069095,47.47415419644676 46.218002429232,45.37024062196724 49.85193245857954,44.31828335323371 57.11979251727462,42.56502052326687 61.05655004829168,42.214367849286646 68.93006511218846,39.40914517757483 72.26116763986647,37.30522667383775 77.71206268295646,35.55196027108468 86.19123275019228,39.75979813700542 86.19123275019228,39.40914517757483 86.19123275019228,38.70783915417269 85.88840524852276,38.006532984785736 85.58557774499059,38.006532984785736 85.88840524852276,39.05849218275398 85.58557774499059,42.214367849286646 84.97992274165154,52.733932504663244 87.40254276059568,66.05866824090481 90.73364528641105,72.37036716123112 90.73364528641105,73.42231585690752 90.43081778474152,74.47426422988065 91.03647278994322,75.52621228247881 91.64212779514492,76.92880918388255 91.94495529681444,79.73400127375498 88.61385277099907,96.56510579772294 85.88840524852276,97.96769412537105 83.46578522957861,99.72092873114161 78.31771768815815,101.82480908045545 65.90179008804262,104.27933452837169 62.570687560364604,105.33127346984111 55.302827501669526,107.78579641855322 51.97172497585416,108.83773428783752 44.09820991195738,110.5909633578267 40.464279882609844,111.99354596924968 32.59076481871307,115.14935475727543 24.414422253146768,109.188380172709 21.0833197273314,98.31834111828357 20.174837220460176,90.95474676811136 20.174837220460176,87.09761963132769 20.174837220460176,79.73400127375498 19.56918221525848,68.51321919681504 22.59745723940432,56.941749362740666 25.020077258348465,55.88979563000612 27.442697279155254,54.487190153682604 33.49924732744694,51.33132574171759 47.126484936103225,43.2663257624954 52.57737997919321,42.915673160459846 56.21131000854075,43.2663257624954 68.32441010698676,39.75979813700542 76.19792517088354,36.60392021946609 83.16295772604644,42.915673160459846 83.46578522957861,55.1884929635562 87.7053702622652,73.77296535111964 89.5223352778703,80.78594771912321 90.73364528641105,84.64308192883618 89.5223352778703,96.56510579772294 86.49406025372446,97.96769412537105 83.46578522957861,99.72092873114161 77.10640767775476,101.82480908045545 66.50744509138167,103.92868814361282 63.1763425655663,105.33127346984111 56.21131000854075,107.43515038955957 52.88020748272538,108.83773428783752 45.91517492569983,110.5909633578267 42.58407239988446,111.99354596924968 35.61903984285891,113.74677343084477 24.111594749614596,110.2403176149819 22.900284741073847,106.38321209116839 21.0833197273314,98.6689880748745 19.56918221525848,91.30539447604679 19.872009716928005,87.79891579528339 19.266354711726308,79.73400127375498 19.266354711726308,69.21451914845966 19.266354711726308,66.40931848390028 25.32290476001799,54.83784157712944 28.654007287696004,53.08458410575986 39.252969874069095,47.82480633398518 42.88689990155399,46.77284981450066 56.81696501374245,42.56502052326687 68.02158260531723,39.40914517757483 71.3526851311326,38.35718608717434 78.31771768815815,35.201306883012876 84.67709523811936,42.915673160459846 85.88840524852276,54.83784157712944 86.49406025372446,58.69500486832112 88.00819776579738,65.70801796088926 88.3110252674669,71.3184181463439 89.21950777620077,76.57816001260653 89.5223352778703,79.73400127375498 89.21950777620077,97.2664000322111 86.19123275019228,98.6689880748745 80.1346827019006,101.47416244540364 77.10640767775476,102.8767487721052 62.873515063896775,104.98062719218433 59.84524003788829,106.73385822586715 45.91517492569983,111.29225473478436 38.95014237053692,113.04548255424015 31.682282311841846,114.7987094798591 23.203112244606018,106.38321209116839 20.174837220460176,96.56510579772294 19.872009716928005,93.7599274259992 19.872009716928005,90.95474676811136 19.872009716928005,83.59113666415215 19.872009716928005,80.0846501251217 19.56918221525848,72.7210167623125 19.266354711726308,68.86386918998323 23.505939746275544,56.24044691002928 26.837042272090912,54.136538696009666 37.436004858464,47.123502023750916 40.76710738427937,45.72089297394268 47.42931243777275,43.61697832820937 54.697172498330474,42.214367849286646 58.02827502414584,41.51306239585392 64.69048007763922,39.40914517757483 68.02158260531723,38.006532984785736 75.28944266214967,35.201306883012876 83.46578522957861,42.214367849286646 83.46578522957861,48.17545843543485 84.37426773458719,53.785887201083824 87.09971525706351,65.00671729445457 88.3110252674669,72.37036716123112 89.5223352778703,79.73400127375498 89.82516278140247,95.51316417590715 84.67709523811936,98.31834111828357 81.95164771564305,99.72092873114161 75.59227016568184,102.17545567965135 65.29613508284092,103.57804172276519 62.26786005869508,104.62998087867163 55.6056550052017,107.08450432610698 45.30951992236078,110.2403176149819 41.978417394682765,111.29225473478436 35.61903984285891,113.74677343084477 29.8653172980994,114.7987094798591 25.32290476001799,111.29225473478436 24.111594749614596,108.13644241122529 19.56918221525848,94.46122223325074 19.56918221525848,90.95474676811136 19.266354711726308,80.0846501251217 18.963527208194137,77.27945832069963 18.05504470318556,69.91581895644777 18.05504470318556,67.46126900077797 25.32290476001799,54.487190153682604 28.956834791228175,51.33132574171759 35.92186734639108,47.123502023750916 39.252969874069095,45.72089297394268 46.218002429232,43.2663257624954 53.18303498625755,41.86371514108032 59.84524003788829,40.811756800394505 62.26786005869508,40.46110394760035 68.93006511218846,38.006532984785736 71.3526851311326,36.95457346388139 74.07813265174627,35.902613622602075 84.37426773458719,45.019588235067204 83.76861273124814,53.435235670534894 84.37426773458719,56.941749362740666 85.88840524852276,71.3184181463439 87.40254276059568,78.68205450847745 90.43081778474152,93.05863247602247 85.28275024332106,98.31834111828357 82.86013022251427,99.3702818818856 79.5290276966989,100.42222232371569 62.873515063896775,105.68191971327178 59.54241253621876,106.38321209116839 54.09151749312878,107.78579641855322 41.06993488781154,110.9416090643499 37.436004858464,111.99354596924968 21.38614722713828,101.82480908045545 20.477664722129703,87.09761963132769 20.174837220460176,79.38335238746367 20.174837220460176,75.87686156132258 19.266354711726308,64.65606690826826 28.654007287696004,52.733932504663244 41.67558989301324,45.72089297394268 44.401037415489554,44.66893581231125 47.126484936103225,43.61697832820937 52.274552477523685,42.214367849286646 59.84524003788829,41.51306239585392 67.11310009658337,39.05849218275398 70.7470301259309,38.006532984785736 77.10640767775476,35.201306883012876 83.46578522957861,41.16240961593576 84.07144023478031,59.39630682091229 84.97992274165154,97.96769412537105 79.83185520023108,101.12351577426307 77.71206268295646,102.17545567965135 65.59896258451045,104.98062719218433 62.873515063896775,106.38321209116839 52.57737997919321,108.83773428783752 45.30951992236078,110.9416090643499 41.978417394682765,112.3441915330477 35.316212341189384,114.44806416565552 31.98510981351137,115.14935475727543 21.38614722713828,102.17545567965135 20.477664722129703,91.30539447604679 20.477664722129703,87.44826773158275 20.477664722129703,80.0846501251217 19.56918221525848,70.26646880758926 21.0833197273314,58.344353838358074 24.414422253146768,56.24044691002928 26.534214770421386,54.136538696009666 40.76710738427937,46.422197569627315 44.09820991195738,44.66893581231125 58.33110252767801,42.56502052326687 65.59896258451045,40.811756800394505 68.93006511218846,38.70783915417269 76.19792517088354,35.902613622602075 83.46578522957861,41.16240961593576 83.16295772604644,48.526110500562936 83.76861273124814,56.59109815466218 83.76861273124814,59.74695774377324 85.58557774499059,70.96776840207167 88.00819776579738,86.04567511589266 81.64882021397352,100.77286906726658 75.59227016568184,103.92868814361282 71.9583401363343,104.27933452837169 65.59896258451045,106.73385822586715 58.936757531017065,108.13644241122529 55.6056550052017,109.188380172709 45.61234742216766,111.99354596924968 32.28793731704354,115.5 24.414422253146768,109.188380172709 21.688974730670452,99.01963499677368 20.78049222379923,89.2015076961834 20.78049222379923,84.29243354336359 20.174837220460176,81.48724516876973 19.872009716928005,78.33140551578254 26.837042272090912,56.941749362740666 30.168144799768925,54.136538696009666 37.13317735493183,48.526110500562936 40.16145238094032,46.77284981450066 47.73213994130492,43.967630858300254 58.33110252767801,42.214367849286646 61.96503255516291,41.51306239585392 80.7403377071023,48.17545843543485 82.25447521917522,55.539144314825535 85.58557774499059,60.44825948122889 87.40254276059568,67.81191910221241 87.40254276059568,70.26646880758926 89.21950777620077,77.98075648606755 90.127990283072,82.18854247662239 90.43081778474152,94.8118695828598 88.00819776579738,96.91575293289497 81.95164771564305,100.77286906726658 65.29613508284092,106.0325659206137 61.96503255516291,107.43515038955957 55.0,109.88967183651403 51.36606997065246,109.88967183651403 37.436004858464,113.39612801047042 34.10490233078599,114.44806416565552 23.80876724794507,108.83773428783752 22.900284741073847,106.73385822586715 21.688974730670452,103.92868814361282 19.56918221525848,95.16251689661294 18.963527208194137,91.6560421467293 20.174837220460176,70.61711862310767 20.174837220460176,67.11061886418611 21.991802234202623,57.29240053612739 24.71724975667894,55.1884929635562 31.076627308502793,50.63002214557491 34.10490233078599,48.526110500562936 44.09820991195738,43.61697832820937 58.33110252767801,41.16240961593576 61.96503255516291,40.811756800394505 68.93006511218846,38.35718608717434 72.56399513967335,36.95457346388139 82.55730272270739,42.56502052326687 82.86013022251427,48.17545843543485 87.7053702622652,77.27945832069963 88.61385277099907,94.11057484801859 86.19123275019228,96.21445862553082 83.76861273124814,98.31834111828357 77.71206268295646,102.17545567965135 67.11310009658337,105.33127346984111 64.08482507243752,107.08450432610698 57.11979251727462,109.53902602335438 53.788689989596605,110.5909633578267 46.8236574344337,112.3441915330477 42.88689990155399,113.74677343084477 23.203112244606018,108.48708836757578 21.688974730670452,100.77286906726658 21.38614722713828,97.2664000322111 20.174837220460176,83.94178512133658 19.872009716928005,79.03270346554928 19.872009716928005,68.16256916685961 23.203112244606018,60.09760863031261 25.92855976521969,57.64305167249404 32.28793731704354,51.33132574171759 38.95014237053692,46.422197569627315 50.45758746378124,42.915673160459846 58.02827502414584,42.214367849286646 61.96503255516291,41.51306239585392 68.02158260531723,39.40914517757483 73.77530515193939,35.902613622602075 76.80358017422259,34.5 82.86013022251427,51.68197748600505 84.67709523811936,55.88979563000612 87.09971525706351,70.26646880758926 91.33930029347539,88.14956382475793 88.00819776579738,95.51316417590715 80.1346827019006,100.77286906726658 72.86682264320552,102.8767487721052 62.26786005869508,106.38321209116839 58.936757531017065,107.43515038955957 52.57737997919321,109.188380172709 49.24627745337784,110.5909633578267 39.85862487740815,113.04548255424015 36.22469484806061,114.44806416565552 25.020077258348465,110.9416090643499 21.688974730670452,103.22739526559599 21.0833197273314,100.77286906726658 20.477664722129703,97.61704709636979 20.477664722129703,89.90280343242921 19.266354711726308,77.98075648606755 19.266354711726308,74.47426422988065 22.29462973587215,62.902814438566566 25.32290476001799,59.74695774377324 31.682282311841846,53.435235670534894 38.344487365335226,48.17545843543485 41.978417394682765,46.07154528982937 47.42931243777275,42.915673160459846 55.90848250873387,42.56502052326687 67.11310009658337,39.40914517757483 70.7470301259309,37.65587984654121 81.95164771564305,40.46110394760035 84.97992274165154,54.487190153682604 88.00819776579738,76.2275108047761 84.97992274165154,97.2664000322111 81.345992712304,99.72092873114161 72.86682264320552,103.22739526559599 60.14806754142046,107.08450432610698 56.81696501374245,107.43515038955957 50.760414965450764,109.53902602335438 48.03496744483709,110.5909633578267 37.13317735493183,113.74677343084477 32.893592320382595,114.7987094798591 23.80876724794507,109.53902602335438 22.29462973587215,106.38321209116839" stroke="#4dd2ff" stroke-linecap="round" stroke-linejoin="round" stroke-width="0.5"><title>2023-05-16 10.1km</title></polyline><polyline fill="none" points="131.1274366080761,110.71524422895163 127.29034460708499,111.39878118573688 109.87585013359785,82.69010908831842 109.58068921230733,73.12049712333828 110.46617198176682,62.18376430799253 122.27260890975595,50.221671959385276 129.06131014600396,44.75327267963439 131.42259753122926,43.04439607565291 137.6209769193083,40.99374300218187 140.57258615270257,40.99374300218187 149.42741384916008,39.96841599652544 153.26450585201383,38.94308867584914 160.0532070863992,37.57598509429954 173.9257704783231,61.50021732202731 176.28705786541104,73.46226944960654 175.1064141727984,91.91792334220372 150.3128966204822,101.48748168325983 143.22903446108103,105.93048163340427 133.7838849183172,108.32286378415301 126.1097009126097,110.37347569875419 121.97744798846543,112.42408635863103 113.12262029200792,109.3481698979158 110.46617198176682,98.41155519383028 108.69520644284785,80.63948025205173 108.69520644284785,76.19644680456258 113.41778121329844,56.37361049512401 123.45325260423124,47.82924837106839 126.99518368206918,45.77859822358005 145.59032184816897,42.36084519117139 149.1322529260069,41.33551860181615 156.80643693171442,38.25953695457429 171.5644830930978,44.75327267963439 172.74512678571045,52.95586825767532 175.69673601724207,67.6521351733245 172.15480493940413,95.67739594634622 166.84190832078457,98.41155519383028 151.19837938807905,102.1710205192212 144.70483907684684,105.5887126151938 141.1629079990089,107.98109501018189 134.66936768777668,111.05701272422448 128.17582737654448,112.76585468114354 125.81453999131918,113.44939121906646 113.7129421364516,105.5887126151938 108.69520644284785,77.90530651900917 108.10488459654152,70.38631726289168 109.28552828729153,59.4495755310636 112.53229844383895,55.00651401770301 115.18874675221741,53.63941698311828 119.91132152453065,50.56344661884941 145.59032184816897,40.99374300218187 149.1322529260069,40.31019170070067 159.46288524195552,35.52532867784612 170.088678477332,38.60131283197552 171.5644830930978,50.90522124362178 172.4499658625573,54.32296557049267 176.87737971171737,73.46226944960654 177.76286248117685,89.1837588029448 175.69673601724207,90.89261190150864 173.33544863201678,93.2850047769025 155.33063231408596,102.85455921688117 151.78870123624802,104.56340535241179 144.70483907684684,107.98109501018189 137.91613784246147,110.37347569875419 134.07904584147036,110.71524422895163 127.29034460708499,113.1076229675673 124.33873537369072,114.47469576681033 113.12262029200792,111.39878118573688 111.94197659753263,106.95578847802244 110.17101105861366,98.75332494266331 108.99036736600101,89.1837588029448 108.69520644284785,78.93062193039805 108.10488459654152,71.41163497255184 108.40004551783204,65.60149714304134 108.69520644284785,60.47489658347331 115.18874675221741,52.61409384245053 118.43551690876484,50.221671959385276 128.7661492228508,43.72794682113454 135.85001138225198,41.33551860181615 146.47580461762846,39.96841599652544 153.26450585201383,38.60131283197552 160.0532070863992,35.86710483557545 163.8902990873903,34.841776261338964 170.97416124679148,38.94308867584914 174.22093140147626,58.42425416689366 176.5822187885642,71.75340747204609 177.4677015580237,75.1711305573117 178.05802340619266,77.56353464513086 169.2031957078725,98.41155519383028 148.24677015654743,106.6140195641201 145.00000000186265,107.63932620105334 138.50645969063044,110.71524422895163 124.92905721999705,114.13292761868797 121.3871261421591,115.5 109.87585013359785,99.43686433671974 108.69520644284785,96.36093596671708 108.40004551783204,91.91792334220372 108.69520644284785,86.44959203409962 108.40004551783204,84.39896549517289 108.10488459654152,66.96858930261806 112.82745936699212,55.34828819008544 116.3693904466927,53.981191294733435 122.86293075792491,48.85457297577523 129.35647106915712,44.41149742831476 136.44033322669566,42.019069695845246 143.22903446108103,40.99374300218187 146.47580461762846,40.31019170070067 153.55966677330434,38.60131283197552 157.10159785486758,37.23420911259018 163.8902990873903,34.5 171.5644830930978,38.25953695457429 171.85964401625097,48.51279814285226 174.81125324964523,57.74070641538128 176.5822187885642,67.6521351733245 178.05802340619266,74.82935840589926 180.12414986640215,84.39896549517289 179.23866709694266,90.20907076634467 174.22093140147626,94.3103154876735 171.269322168082,97.0444758485537 154.44514954462647,103.19632851425558 148.24677015654743,106.6140195641201 142.04839076846838,109.3481698979158 138.50645969063044,109.68993853242137 128.47098829969764,111.74054961116053 125.22421814315021,112.76585468114354 119.32099968008697,114.81646387884393 113.12262029200792,112.08231800212525 112.23713752068579,108.32286378415301 110.17101105861366,98.06978540937416 108.69520644284785,83.0318804399576 107.80972367152572,71.75340747204609 107.51456274837255,67.31036225473508 108.10488459654152,63.892631160095334 111.3516547512263,61.50021732202731 118.14035598747432,56.37361049512401 121.3871261421591,54.32296557049267 139.09678153693676,46.46214841213077 142.04839076846838,45.77859822358005 148.5419310797006,44.069722142769024 151.49354031309485,43.3861714664381 156.80643693171442,40.99374300218187 160.0532070863992,39.626640257425606 172.15480493940413,50.56344661884941 172.74512678571045,53.63941698311828 173.9257704783231,56.715384527342394 175.99189694225788,62.52553774788976 176.87737971171737,64.91795085463673 179.53382802195847,77.2217627374921 178.35318432748318,92.2596937539056 175.40157509595156,94.65208565420471 168.9080347828567,98.75332494266331 161.82417262718081,101.14571221265942 155.0354713909328,103.53809777623974 150.60805754177272,105.5887126151938 147.06612646393478,106.6140195641201 140.57258615270257,108.32286378415301 133.7838849183172,110.03170713270083 126.99518368206918,112.42408635863103 110.17101105861366,99.77863398101181 108.40004551783204,91.57615289720707 108.40004551783204,81.6647948268801 108.40004551783204,74.14581399760209 108.69520644284785,63.892631160095334 111.94197659753263,59.4495755310636 115.48390767723322,57.05715852417052 123.7484135273844,50.90522124362178 126.1097009126097,49.19634777447209 133.19356307201087,46.120373335666955 136.73549414984882,45.436823076801375 144.40967815555632,44.069722142769024 149.72257477231324,42.36084519117139 159.1677243169397,38.60131283197552 162.4144944716245,37.23420911259018 171.5644830930978,42.019069695845246 171.5644830930978,45.095047895563766 173.63060955703259,51.93054490699433 175.69673601724207,58.76602798956446 176.5822187885642,62.18376430799253 177.76286248117685,72.09517993801273 178.64834525063634,75.51290267403238 172.74512678571045,96.36093596671708 169.49835663102567,98.41155519383028 164.48062093555927,101.48748168325983 156.5112760066986,103.87986700283363 153.85482769832015,104.9051744742319 142.34355169162154,109.00640122732148 138.80162061192095,110.03170713270083 125.51937906630337,113.1076229675673 119.32099968008697,114.47469576681033 113.12262029200792,107.63932620105334 111.94197659753263,105.24694356136024 110.76133290491998,100.80394270713441 109.28552828729153,88.500217319699 108.69520644284785,87.13313393504359 108.99036736600101,80.98125181160867 108.99036736600101,63.20908452384174 110.76133290491998,59.1078017775435 117.25487321615219,55.34828819008544 120.79680429585278,53.63941698311828 127.88066645339131,50.221671959385276 131.71775845624506,48.17102327453904 139.68710338324308,45.77859822358005 142.34355169162154,45.095047895563766 148.5419310797006,43.3861714664381 152.37902308255434,42.36084519117139 154.44514954462647,40.65196736808866 159.46288524195552,39.626640257425606 162.4144944716245,38.94308867584914 168.31771293655038,36.8924330950249 172.4499658625573,37.57598509429954 173.04028770886362,38.94308867584914 174.51609232462943,42.019069695845246 174.22093140147626,42.70262065087445 174.51609232462943,43.72794682113454 175.40157509595156,44.41149742831476 175.40157509595156,45.095047895563766 175.1064141727984,48.17102327453904 175.99189694225788,53.63941698311828 177.4677015580237,66.62681631464511 179.23866709694266,79.95593702699989 180.41931079141796,84.74073667218909 175.69673601724207,92.60146412951872 172.15480493940413,95.33562588319182 151.49354031309485,102.51278988597915 147.95160923339427,104.22163619450293 136.44033322669566,108.32286378415301 132.89840214699507,109.3481698979158 126.1097009126097,112.08231800212525 110.17101105861366,91.57615289720707 110.17101105861366,88.8419880780857 109.87585013359785,87.81667569722049 109.58068921230733,81.32302333740517 109.28552828729153,77.56353464513086 114.30326398275793,59.1078017775435 118.14035598747432,57.05715852417052 125.22421814315021,51.93054490699433 128.17582737654448,49.879897265695035 135.55485045723617,46.46214841213077 142.93387353792787,44.069722142769024 145.88548277132213,43.04439607565291 151.19837938807905,41.677294166525826 153.55966677330434,41.33551860181615 158.5774024706334,38.94308867584914 165.0709427818656,36.8924330950249 172.74512678571045,45.095047895563766 175.1064141727984,56.031836428446695 178.64834525063634,72.77872476330958 182.4854372534901,85.76604999345727 178.9435061737895,92.60146412951872 175.99189694225788,94.65208565420471 169.2031957078725,98.75332494266331 155.33063231408596,102.85455921688117 152.6741840057075,103.87986700283363 150.60805754177272,104.9051744742319 142.6387126147747,107.98109501018189 135.55485045723617,110.03170713270083 132.3080803025514,110.37347569875419 125.51937906630337,112.42408635863103 122.56776983477175,113.44939121906646 114.30326398275793,109.3481698979158 111.64681567437947,102.1710205192212 109.87585013359785,88.8419880780857 109.58068921230733,86.79136300133541 108.69520644284785,79.61416536266916 108.69520644284785,75.85467475675978 115.48390767723322,57.39893248700537 119.02583875507116,55.34828819008544 124.33873537369072,52.95586825767532 126.99518368206918,51.58877038792707 129.65163199231029,50.221671959385276 140.27742522768676,47.487473433837295 149.72257477231324,43.72794682113454 152.96934492886066,42.36084519117139 160.0532070863992,39.96841599652544 163.5951381660998,38.94308867584914 171.85964401625097,41.33551860181615 173.33544863201678,51.58877038792707 175.1064141727984,58.42425416689366 178.05802340619266,71.75340747204609 179.23866709694266,75.51290267403238 178.35318432748318,92.2596937539056 173.63060955703259,95.33562588319182 171.5644830930978,96.70270592579618 166.5467473976314,98.75332494266331 153.26450585201383,102.51278988597915 146.47580461762846,102.85455921688117 139.68710338324308,104.9051744742319 129.06131014600396,107.98109501018189 125.51937906630337,109.3481698979158 111.94197659753263,102.85455921688117 111.05649382807314,100.12040359154344 110.46617198176682,93.62677504820749 109.87585013359785,86.44959203409962 109.58068921230733,77.56353464513086 109.28552828729153,74.82935840589926 109.58068921230733,71.06986243720166 113.12262029200792,58.08248030790128 123.45325260423124,50.90522124362178 126.99518368206918,49.19634777447209 144.70483907684684,44.069722142769024 147.95160923339427,43.04439607565291 154.74031046777964,40.99374300218187 157.6919197011739,39.28486448340118 164.77578185871243,36.550657043233514 173.33544863201678,52.27231939183548 174.81125324964523,56.031836428446695 176.5822187885642,62.52553774788976 179.53382802195847,77.90530651900917 181.59995448216796,85.08250781381503 178.05802340619266,91.91792334220372 175.1064141727984,93.96854528505355 165.36610370501876,98.06978540937416 158.5774024706334,100.46217316621915 152.37902308255434,103.87986700283363 149.72257477231324,104.9051744742319 147.36128738708794,105.93048163340427 142.34355169162154,108.32286378415301 137.03065507486463,109.68993853242137 131.1274366080761,110.37347569875419 113.41778121329844,104.22163619450293 111.3516547512263,99.77863398101181 109.58068921230733,94.99385578627698 109.58068921230733,78.24707835796289 109.28552828729153,73.46226944960654 114.30326398275793,59.79134925012477 117.55003413930535,57.39893248700537 124.63389629684389,51.58877038792707 131.42259753122926,47.487473433837295 138.80162061192095,45.436823076801375 152.08386215753853,41.33551860181615 158.28224154748023,38.60131283197552 161.529011702165,38.25953695457429 172.15480493940413,43.72794682113454 172.15480493940413,46.120373335666955 173.9257704783231,55.00651401770301 175.1064141727984,58.42425416689366 177.76286248117685,73.80404174164869 179.53382802195847,80.63948025205173 174.22093140147626,93.96854528505355 170.97416124679148,95.67739594634622 157.39675877802074,99.43686433671974 153.85482769832015,101.14571221265942 147.36128738708794,103.53809777623974 143.81935630738735,104.9051744742319 137.03065507486463,106.27225061622448 133.4887239933014,106.95578847802244 126.70002276077867,109.3481698979158 121.0919652171433,112.08231800212525 113.12262029200792,107.63932620105334 110.46617198176682,99.43686433671974 109.58068921230733,95.67739594634622 111.64681567437947,74.14581399760209 115.48390767723322,60.47489658347331 118.14035598747432,58.42425416689366" stroke="#4dd2ff" stroke-linecap="round" stroke-linejoin="round" stroke-width="0.5"><title>2023-03-02 10.1km</title></polyline><polyline fill="none" points="85.30983369448222,194.67494470108068 85.06403676653281,194.8172495175677 84.81823983846698,194.92397809203248 83.80432750994805,194.2480299033923 83.4663567339303,193.5365040807519 83.40490750188474,193.18074062571395 83.31273365393281,192.93170599156292 83.28200903779361,192.11344808596186 83.18983518984169,191.5442240642442 83.18983518984169,191.29518826294225 83.15911057393532,191.01057570107514 83.03621210972778,190.263466622564 84.14229828619864,188.69809003654518 84.51099367823917,188.52020588950836 85.18693523050752,188.20001419654 85.86287678277586,187.84424530446995 86.63099218299612,187.63078379520448 87.2454845032189,187.41732215537922 87.95215067151003,187.09712945108186 88.29012144752778,186.95482148826704 89.18113531195559,187.06155246586422 89.67272916797083,188.05770668317564 89.97997532819863,189.08943484094925 90.0414245602442,189.4807792067586 90.13359840819612,190.15673662378686 90.348670720472,190.83269273213227 90.59446764842141,191.8999891866115 90.07214917626698,192.68267117982032 89.39620762388222,193.0028587623965 89.05823684774805,193.10958789120195 88.10577375162393,193.5365040807519 87.36838296742644,193.89226717324345 87.03041219117586,193.99899603042286 85.55563062266447,194.49706359874108 85.18693523050752,194.63936848781304 84.38809521438088,194.92397809203248 84.01939982210752,195.06628280703444 83.15911057393532,194.03457230879576 83.12838595779613,193.18074062571395 83.09766134177335,192.93170599156292 83.005487493705,192.18460102347308 82.97476287779864,191.43749445688445 82.8825890297303,190.33461993705714 82.94403826165944,190.01442990786745 83.83505212608725,188.52020588950836 84.51099367823917,188.09328356699552 85.5249060067581,187.5952068643528 86.99968757515308,187.41732215537922 87.73707835946698,187.09712945108186 88.41301991173532,186.84809047810268 89.36548300797585,187.09712945108186 89.88780148024671,188.484629049286 89.97997532819863,188.80482048128033 90.22577225626446,189.72981630207505 90.28722148819361,190.08558327294304 90.41011995240115,190.79711612744723 91.70055382477585,193.18074062571395 92.31504614499863,192.8249768083042 92.6530169211328,192.64709476366988 94.2814215697581,194.46148736748728 94.31214618578088,194.8884019041143 94.37359541782644,195.6355010874977 94.40432003361639,195.99126204149798 94.46576926577836,196.63163084545522 94.46576926577836,197.09411869579344 94.43504464975558,197.34315036147018 94.40432003361639,197.55660593361245 94.40432003361639,197.80563726942637 94.43504464975558,198.5171543933684 94.55794311373029,199.33539729358745 94.65011696179863,199.79788156304858 93.94345079374034,200.97187734229374 93.35968308930751,201.0430284747854 92.71446615329478,201.2564817853563 92.3764953770442,201.43435944445082 91.39330766478088,202.0035673447419 90.65591688035056,202.18144462339114 90.3179461043328,202.18144462339114 89.67272916797083,202.21702006817213 88.50519375968724,202.9285282039782 87.85997682344168,203.39100771484664 87.52200604742393,203.49773366880254 86.78461526311003,203.71118547895458 86.41591987095308,203.8179113350634 85.67852908675559,204.06693820591317 85.30983369448222,204.20923919524648 84.57244291028474,204.45826578701963 84.173022902105,204.5649914148671 83.49708134995308,204.7784425726568 83.12838595779613,204.88516810259898 82.45244440552779,204.9918936000031 82.05302439746447,205.06304391345475 81.34635822905693,205.31206989640486 80.20954743679613,205.38322014454752 79.41070742055308,205.2409196337103 77.6286796919303,206.62834714198834 77.6286796919303,206.62834714198834 77.65940430795308,206.5927721465996 77.69012892385945,206.5927721465996 77.69012892385945,206.5927721465996 77.69012892385945,206.55719714742736 77.65940430795308,206.52162214473356 77.65940430795308,206.52162214473356 77.69012892385945,206.55719714742736 77.6286796919303,206.52162214473356 77.65940430795308,206.55719714742736 77.5979550757911,206.55719714742736 77.6286796919303,206.5927721465996 77.6286796919303,206.5927721465996 77.5979550757911,206.5927721465996 77.5979550757911,206.5927721465996 77.5979550757911,206.5927721465996 77.65940430795308,207.33984629021143 77.69012892385945,207.8023199592426 77.6286796919303,208.54939151540748 77.56723046000116,208.97628883010475 77.4750566118164,209.86565655947197 77.41360737977084,210.328126883629 77.25998429977335,211.14634211099474 77.22925968375057,211.5732362511917 77.10636121977586,212.3914485614514 77.07563660363667,212.78276681469288 76.95273813977838,213.49425342475297 76.86056429159362,213.88557044244953 76.64549197955057,215.48640822197194 76.58404274750501,215.87772300760844 76.43041966750752,216.62477729000966 76.36897043534555,217.01609080005437 76.24607197137084,217.79871650526184 76.18462273944169,218.154454882344 76.03099965932779,218.90150429477217 75.93882581125945,219.2572415487375 75.96955042739864,220.39559832628584 76.00027504330501,220.78690761167672 76.06172427535057,221.46280443563592 76.12317350739613,221.81853908085031 76.15389812341891,222.56558065634454 76.09244889125694,222.9213141783839 76.00027504330501,223.6683533952164 75.90810119535308,224.02408579399344 75.78520273126196,225.0201345832611 75.69302888319362,225.37586560539785 75.5701304191025,226.12289957259782 75.50868118717335,226.51420244155452 75.38578272308223,227.2256610802142 75.32433349103667,227.5813898560009 75.20143502706196,228.22170073972666 75.20143502706196,228.57742850115756 75.04781194694806,229.217737558909 74.9863627149025,229.5734643061005 74.86346425081138,230.21377153793583 74.83273963502143,230.5339247137308 74.77129040285945,230.81850506810588 74.64839193888474,231.4588100175897 74.58694270683918,231.77896205233992 74.46404424274806,232.49040996763506 74.43331962672528,232.88170570330112 74.34114577877335,233.59315137259546 74.27969654672779,233.98444587306585 74.15679808263667,234.6958892964176 74.06462423480116,235.05161046475405 73.94172577059362,235.7274796864367 73.91100115457084,236.0120558096969 73.84955192252528,236.29663170102867 73.78810269059613,236.83021087240195 73.75737807457335,237.18592986726435 73.66520422650501,237.5060766528768 73.57303037855309,238.14636934397276 73.51158114650752,238.46651524936897 73.48085653036833,238.78666086145677 73.38868268229999,239.3913795502449 73.29650883446448,239.67595268858713 73.2657842184417,239.99609719228465 73.17361037037335,240.70752837206237 73.08143652230501,241.02767193014733 72.98926267435309,241.73910100909416 72.89708882628474,242.09481500528636 72.7741903620772,242.80624191093375 72.71274113014806,243.16195482038893 72.58984266605694,243.8733795528242 72.52839343412779,244.26466253810213 72.09824880992528,245.2250825529627 71.88317649788223,245.47407990368083 71.57593033777084,246.07878701621667 71.54520572163165,246.29221280603088 71.54520572163165,246.4700675312488 71.45303187379614,247.25262724683853 71.42230725777335,247.57276480697328 71.3608580257278,248.4620342681592 71.29940879368223,248.888882805506 71.17651032970753,249.6714371027483 71.11506109754555,250.09828416240634 70.99216263357084,250.80969476964674 70.86926416947972,251.16539952994208 70.7463657053886,251.91237834776985 70.71564108948223,252.16137093215366 70.68491647345945,252.73049617296783 70.71564108948223,253.05062871336122 70.65419185743667,253.79760350036668 70.59274262539111,254.18887537060073 69.24085952108726,255.71838847652543 68.90288874483667,255.75395846902393 68.22694719256833,255.75395846902393 67.91970103257336,255.71838847652543 67.64317948848475,255.71838847652543 67.05941178416833,255.71838847652543 66.6907163921278,255.68281848027254 65.9533256078139,255.71838847652543 65.52318098361138,255.71838847652543 64.72434096736833,255.78952845791355 64.4785440393025,255.75395846902393 63.74115325510502,255.78952845791355 61.03738704614807,255.78952845791355 60.73014088603668,255.75395846902393 60.48434395797085,255.71838847652543 60.269271645811386,255.68281848027254 60.02347471774556,255.6472484805272 59.77767778967973,255.6472484805272 59.593330093543045,255.61167847714387 59.37825778161641,255.57610847003525 59.16318546934053,255.57610847003525 58.3643454532139,255.46939842714346 30.988712587510236,262.1564981387637 29.759727947064675,264.2906519563694 31.418857211712748,265.5 17.961475398973562,240.56524225199246 28.53074330673553,248.67545860196697 28.653641770826653,248.81774141883943 28.622917154803872,248.8533121139044 34.860014204867184,251.27211088739568 34.64494189294055,251.1298290701816 34.12262342078611,250.8452652619162 33.47740648454055,250.4184191149834 33.17016032442916,250.1694252883026 32.5249433881836,249.7425783155777 32.217697227955796,249.56472525629215 31.63392952387221,249.13787754473742 31.357407979667187,248.99559485830832 30.742915659444407,248.56874645137577 30.435669499449432,248.39089279450127 29.298858707072213,247.71504807291785 29.022337162983604,247.53719398140674 28.438569458550774,247.11034379256307 28.008424834581092,246.6479221660702 27.82407713844441,246.4700675312488 27.57828021037858,246.18549992740736 27.086686354246922,245.65193504543277 26.810164810158312,245.40293782157823 26.34929556993302,244.9405139349983 25.949875561869703,244.47808943630662 25.673354017781094,244.22909137568786 25.24320939357858,243.76666593537084 24.690166305284947,242.98409841096145 24.53654322528746,242.73509928557905 24.413644761312753,242.4505286391941 24.075673985294998,241.88138665113365 23.922050905181095,241.56124387521413 23.64552936097607,240.95652894268278 23.39973243291024,240.35181296322844 23.000312424846925,239.81823917088332 22.877413960755803,239.49809450434987 22.693066264735535,238.82223257794976 22.41654472053051,238.03965397700085 21.771327784401365,237.04364231281215 21.18756008008495,236.0120558096969 21.003212384181097,235.76305171460262 20.66524160793051,234.9448941522278 20.3887200638419,234.34016776591307 20.204372367821634,234.02001807873603 19.866401591687463,233.3797178240202 19.743503127712756,233.02399495308055 19.436256967601366,232.34812050050823 19.31335850362666,232.06354139230098 18.913938495330513,231.03194018176873 18.63741695135832,230.00033592438558 18.33017079124693,229.18216486429446 18.11509847920388,228.8264377186133 17.377707694889978,227.47467126138508 17.285533846821636,227.11894237675006 17.070461534662172,226.40748352074297 16.94756307080388,225.26914633676643 16.88611383875832,224.9845614611986 16.763215374667197,224.20195185762714 16.701766142621636,223.84621963990503 16.57886767864693,223.0991808033723 16.51741844660137,222.77902081306092 16.394519982510246,222.06755311688175 16.3330707505811,221.7473921808123 16.24089690251276,220.96477532375138 16.24089690251276,220.6446133767895 16.087273822398856,220.00428860247484 16.056549206376076,219.68412577509298 16.025824590353295,218.97265177458758 16.025824590353295,218.6169142308063 16.056549206376076,217.94101189952926 15.96437535842415,216.90936897721258 15.96437535842415,216.12674127932405 15.96437535842415,215.73542677270598 16.117998438421637,213.99229318942525 16.117998438421637,213.63655057284632 16.117998438421637,212.92506425268948 15.933650742284954,211.96455542134936 15.933650742284954,211.6088107393589 15.933650742284954,211.32421473279828 15.902926126262173,210.61272370180814 15.933650742284954,210.328126883629 15.933650742284954,209.5099097394559 15.872201510355808,208.6916906783008 15.902926126262173,207.94461942650378 15.810752278426662,207.1619716390269 15.780027662287466,206.3081720523769 15.810752278426662,205.8812714763044 15.71857843035832,205.31206989640486 15.534230734221637,204.7784425726568 15.503506118315272,204.1736639534065 15.503506118315272,203.78233605329297 15.503506118315272,202.75065130591975 15.34988303820137,202.25259550931514 15.34988303820137,201.54108599637402 15.38060765422415,201.0430284747854 15.687853814219125,199.72673017671332 15.65712919831276,199.65557877611718 16.210172286373563,199.477700210904 16.732490758644417,199.44212448701728 19.528430815553293,199.8690329347446 19.95857543963939,199.8690329347446 20.880313920089975,199.62000307027483 21.709878552355804,199.477700210904 23.246109352912754,198.97963974639424 24.50581860926468,198.65945764406933 24.84378938539885,198.58830602595117 25.519730937783606,198.58830602595117 25.980600177892484,198.65945764406933 27.271034050383605,198.5527302113478 28.039149450603873,198.41042691716575 29.237409475026652,198.1258201545279 29.69827871513553,198.01909255888313 30.92726335558109,197.80563726942637 31.63392952387221,197.80563726942637 32.27914646011777,197.62775776186027 32.9550880122697,197.52103001388605 33.2623341724975,197.44987816381035 33.96900034067221,197.34315036147018 34.64494189294055,197.41430223334464 35.19798498111777,197.52103001388605 35.566680373158306,197.52103001388605 36.05827422940638,197.41430223334464 36.426969621446915,197.34315036147018 37.13363578973804,197.271998475102 38.577692742226645,196.88066284096567 38.577692742226645,196.84508685252513 38.608417358249426,196.7739348645846 38.639141974272206,196.73835886528832 38.639141974272206,196.73835886528832 38.639141974272206,196.73835886528832 38.608417358249426,196.73835886528832 38.577692742226645,196.7739348645846 38.577692742226645,196.8095108603593 38.608417358249426,196.8095108603593 38.608417358249426,196.8095108603593 38.608417358249426,196.8095108603593 38.608417358249426,196.8095108603593 38.608417358249426,196.8095108603593 38.608417358249426,196.84508685252513 38.608417358249426,196.84508685252513 38.639141974272206,196.8095108603593 38.639141974272206,196.7739348645846 38.70059120620135,196.73835886528832 39.59160507062916,196.52490279293852 40.02174969483167,196.3825986723823 40.8205897109583,196.2047184399271 41.220009719138034,196.1335663216887 41.957400503451936,195.955685962399 42.32609589560889,195.92010987966205 43.094211295829155,195.74222941172775 43.462906687986106,195.59992497210624 44.23102208820637,195.49319660424953 44.599717480363324,195.42204434104497 45.73652827274054,195.1730113053345 46.135948280920275,195.06628280703444 46.87333906511776,194.8884019041143 47.27275907329749,194.8172495175677 48.01014985749498,194.67494470108068 48.77826525783166,194.60379227096564 49.17768526589498,194.5326398264151 49.915076050092466,194.46148736748728 50.68319145042915,194.35475865169428 51.0518868425861,194.2480299033923 51.82000224292278,194.14130112231942 52.18869763496332,194.0701485836762 52.92608841927722,193.89226717324345 53.32550842745695,193.82111458372674 54.00144997960888,193.60765672827256 54.37014537176583,193.50092775162193 55.076811539940536,193.3586223985185 55.4455069322139,193.25189334581955 56.21362233243417,193.10958789120195 56.582317724474706,193.03843514228356 59.040287005365826,192.50478906265926 59.43970701354556,192.39805974892806 60.20782241388224,192.18460102347308 60.60724242194556,192.11344808596186 61.34463320625946,191.93556567889755 61.744053214322776,191.86441269065836 62.45071938249748,191.75768318105838 62.880864006699994,191.68653015670134 63.64897940715309,191.57980059285183 65.30810867168475,191.33076481692842 65.67680406360887,191.188458579476 66.44491946394555,190.93942252447596 66.78289024019614,190.79711612744723 67.76607795245945,190.44134988149744 68.10404872859363,190.263466622564 68.77999028086197,189.94327652818174 69.48665644903667,189.7653930155211 69.85535184131004,189.72981630207505 71.45303187379614,189.30289545850246 72.15969804185443,188.91155089330277 72.46694420208223,188.80482048128033 73.38868268229999,188.62693638858036 73.8188273065025,188.6625132143963 74.64839193888474,188.69809003654518 75.38578272308223,188.62693638858036 75.75447811512277,188.59135955918464 76.49186889955308,188.55578272623825 76.8912889076164,188.52020588950836 77.6286796919303,188.34232165192952 78.73476586816832,188.44905220530927 78.70404125226196,188.484629049286 78.70404125226196,188.44905220530927 78.73476586816832,188.44905220530927 79.13418587634806,188.3067447935464 80.24027205281891,188.09328356699552 80.51679359690752,187.95097601015004 81.59215515735559,187.55962992974673 81.99157516541891,187.3817452029034 83.03621210972778,187.0259754769213 83.40490750188474,186.84809047810268 84.11157367017586,186.5278972518281 84.51099367823917,186.42116611116217 85.46345677447971,186.029818316194 85.67852908675559,185.9586641244823 87.06113680731505,185.9586641244823 87.42983219935559,185.85193280983367 88.16722298366949,185.74520146255963 88.8738891518442,185.49616152531235 89.21185992797837,185.3894300692191 89.97997532819863,185.06923550530337 90.348670720472,184.92692671593977 91.0553368886467,184.67788619510247 91.39330766478088,184.5 91.85417690488975,184.78461786868866 92.00779998488724,185.1759670591855 92.16142306500115,185.88750991830602 92.19214768102393,186.24328080419218 92.28432152897585,186.8125134674774 92.56084307306446,187.5240529916482 92.74519076908473,188.23559106586617 92.80664000113029,188.59135955918464 92.92953846522141,189.33847221534234 93.02171231328975,189.69423958510743 93.48258155351505,191.29518826294225 93.7898277133936,192.3624833037029 93.8205523295328,192.75382400126546 93.23678462544922,193.57208040627302 92.83736461715307,193.57208040627302 92.0692492169328,193.7143856723851 91.70055382477585,193.78553828358417 90.99388765648473,193.89226717324345 89.88780148024671,193.78553828358417 88.75099068775307,193.99899603042286 88.38229529559612,194.0701485836762 87.61417989537586,194.21245364673086 87.2454845032189,194.31918240591767 86.47736910299864,194.46148736748728 86.10867371084169,194.63936848781304 85.34055831062142,194.8884019041143 84.57244291028474,195.06628280703444 83.83505212608725,195.3153159188223 83.31273365393281,195.20858746414888 83.25128442177083,194.9595542761963 83.09766134177335,194.28360615641577 82.75969056563918,192.5403654934198 82.75969056563918,192.14902455656556 82.75969056563918,190.79711612744723 83.25128442177083,189.23174193379236 83.89650135813281,188.6625132143963 84.23447213426698,188.3067447935464 84.94113830244169,187.77309148255154 86.04722447891254,187.34616824658588 86.3851952549303,187.31059128663037 87.1225860392442,187.2038603851106 87.55273066321388,187.0259754769213 88.25939683162142,186.70578241386102 88.62809222366195,186.5634742914117 89.33475839195307,187.84424530446995 89.48838147206698,188.3067447935464 89.76490301615559,190.2990432815859 89.91852609615307,190.72596290733782 90.13359840819612,191.50864753205678 90.0414245602442,192.39805974892806 89.76490301615559,192.57594192042598 89.48838147206698,192.75382400126546 88.84316453582142,193.07401151856175 88.1364983675303,193.28746970032807 87.42983219935559,193.50092775162193 87.1225860392442,193.60765672827256 86.0779490948189,193.85669088034774 84.72606599039864,194.21245364673086 83.18983518984169,193.89226717324345 82.94403826165944,192.75382400126546 82.85186441370752,192.04229513398604 82.85186441370752,191.72210667069885 82.79041518166196,191.4730709962605 82.79041518166196,190.33461993705714 84.01939982210752,188.27116793149617 84.35737059824169,187.98655290482566 85.03331215051003,187.5952068643528 85.34055831062142,187.48847604982438 85.98577524686698,187.34616824658588 86.35447063890751,187.3817452029034 87.39910758321639,187.06155246586422 87.79852759151254,186.84809047810268 88.47446914366446,186.5278972518281 89.27330916002393,186.8125134674774 89.51910608797334,188.37789850664558 89.91852609615307,190.40577323702746 90.07214917626698,190.83269273213227 90.22577225626446,191.5442240642442 89.24258454388473,192.8249768083042 88.8738891518442,193.0028587623965 88.19794759957585,193.21631698755664 87.8292522074189,193.3586223985185 87.15331065515056,193.60765672827256 86.44664448697586,193.78553828358417 84.6338921423303,194.35475865169428 83.89650135813281,194.60379227096564 83.22055980586447,194.0701485836762 82.94403826165944,193.42977508233162 82.82113979780115,192.68267117982032 82.85186441370752,192.04229513398604 82.79041518166196,190.5125031597272 82.79041518166196,190.01442990786745 83.22055980586447,189.37404896860244 83.86577674211003,188.69809003654518 84.54171829426195,188.09328356699552 85.30983369448222,187.63078379520448 86.10867371084169,187.3817452029034 86.44664448697586,187.31059128663037" stroke="#4dd2ff" stroke-linecap="round" stroke-linejoin="round" stroke-width="0.5"><title>2023-02-19 12.1km</title></polyline><polyline fill="none" points="176.86469948315062,220.2048660824221 176.88672831107397,220.0008060403925 176.97484362253454,219.38862491618784 176.95281479461119,219.15905660868157 176.97484362253454,218.903980464529 177.34933369595092,217.96019647159846 177.59165080229286,217.80715008340485 177.9441120477859,217.6030880870385 178.6490345390048,217.32250257032865 178.91338047315367,217.32250257032865 179.35395703022368,217.2459791930596 179.55221648083534,217.1949635951314 180.14699483267032,216.965393276143 180.43336959474254,216.8378541189595 181.53481098718476,217.37351814216527 181.62292629864533,218.03671963060333 181.77712809341028,218.62339640589198 181.9313298885245,220.0008060403925 181.77712809341028,220.8935674965469 181.5568398151081,221.09762681092252 181.1162632580381,221.3782080967503 180.36728311120532,221.60777436940407 179.8606200707145,221.81183310165943 179.57424530864228,221.86284775883541 178.78120750607923,222.09241358703002 178.51686157181393,222.14342818694422 177.15107424522284,221.83734043156437 177.06295893376227,220.97008975892095 177.1290454174159,220.7150154599949 177.15107424522284,220.5364632960991 177.19513190095313,220.10283608218015 177.2832472124137,219.8477608996618 177.34933369595092,219.33760975491896 177.21716072887648,218.36831971596985 177.48150666302536,217.78164234300493 177.98816970351618,217.52656479543657 178.25251563778147,217.4500414805516 178.75917867815588,217.37351814216527 179.02352461242117,217.34801035755663 179.79453358717728,217.143947986915 180.34525428328197,216.91437762106943 180.60960021754727,216.8633619555767 181.16032091376837,216.68480704465765 181.6669839542592,217.6285958456574 181.75509926571976,217.90918101927673 181.90930106060114,218.3938273966487 181.97538754413836,219.15905660868157 184.70696219743695,221.7608184341807 184.7950775087811,221.99038435600232 184.97130813158583,222.3985010306642 185.10348109866027,222.85763149432023 185.12550992658362,223.0871964105172 185.14753875439055,223.29125393697177 185.19159641012084,223.7503827636392 185.21362523792777,223.95443974959198 185.2356540657347,224.15849656923092 185.30174054927193,224.59211675892584 185.3457982048858,224.84718710786547 185.47797117207665,225.35732702624227 185.5,225.612396595694 184.70696219743695,226.6071654335101 184.17827032902278,226.70919278317888 183.67160728853196,226.9387541678443 183.42929018219002,227.06628817948513 182.68031003535725,227.39787630578212 182.15161816694308,227.4233830665762 181.38060919230338,227.57642357649456 180.94003263523336,227.85699760184798 180.27916779974476,228.36713138782943 180.01482186559588,228.44365136607666 179.48612999729812,228.62219789103256 179.22178406303283,228.69871779139794 178.20845798193477,229.05581035025534 177.92208321997896,229.13233011805278 177.3933913515648,229.25986301233934 177.1290454174159,229.33638271781092 176.5783247211948,229.4384089553496 176.04963285278063,229.56594169378513 175.8073157464387,229.66796783776954 174.97022028826177,229.69347436726093 174.72790318191983,229.56594169378513 174.59573021472897,229.59144823365205 174.59573021472897,229.59144823365205 174.57370138692204,229.59144823365205 174.35341310850345,229.61695477098692 173.38414468313567,230.05056550743757 172.78936633118428,230.4586690440483 172.3047321185004,230.58620126289316 172.06241501215845,230.63721413222083 171.57778079959098,230.7137334166764 171.3134348653257,230.73923983963323 170.78474299702793,230.81575909299136 170.54242589056958,230.84126550554356 170.03576285007875,230.91778472767328 169.77141691592988,230.99430392644717 169.2427250475157,231.0708231018216 168.97837911336683,231.12183587242907 168.42765841714572,231.19835500886256 168.11925482726656,231.27487412186747 167.54650530323852,231.3513932115311 166.75346750067547,231.24936775342212 166.53317922214046,231.12183587242907 166.048545009573,231.0198103208968 165.7841990753077,231.09632948842773 163.88971988030244,231.91253248760768 163.62537394603714,231.93803878844483 163.0966820777394,232.01455767547304 162.81030731566716,232.04006396597833 161.9511830295669,232.11658282166172 161.37843350553885,232.1420891017915 160.91582812077831,232.2696204631211 160.40916508017108,232.29512672765122 159.88047321187332,232.2696204631211 159.35178134345915,232.34613924880978 158.86714713077527,232.57569546543527 158.36048409016803,232.70322660595411 158.1181669839425,232.70322660595411 157.43527332064696,233.11132581914717 157.14889855857473,233.16233817403554 156.6422355180839,233.2388566869049 156.37788958393503,233.31537517627294 155.84919771540444,233.34088133425394 155.56282295344863,233.34088133425394 154.79181397869252,233.31537517627294 154.04283383185975,233.49391822745383 152.43472939892672,233.4429059400427 151.97212401416618,233.57043663895456 151.7077780799009,233.6214489002159 151.53154745709617,233.6469550270267 151.04691324441228,233.69796727280482 150.80459613807034,233.7234733918158 149.7912700570887,233.77448562193604 149.52692412293982,233.85100394776964 149.02026108233258,234.0295466169482 148.79997280379757,234.106064864769 148.4254827304976,234.2591012902849 147.74258906708565,234.2591012902849 147.72056023939513,234.20808915884118 147.72056023939513,234.2335952259018 147.69853141147178,234.2335952259018 147.69853141147178,234.2335952259018 147.67650258354843,234.2591012902849 147.67650258354843,234.2335952259018 147.67650258354843,234.2335952259018 147.69853141147178,234.2591012902849 147.67650258354843,234.2335952259018 147.67650258354843,234.2335952259018 147.67650258354843,234.2335952259018 147.67650258354843,234.20808915884118 147.67650258354843,234.18258308926306 147.6544737557415,234.18258308926306 147.6544737557415,234.18258308926306 147.01563774817623,234.43764366852702 146.6191188468365,234.43764366852702 146.15651346195955,234.28460735207773 145.40753331512678,234.48865575318632 145.23130269232206,234.5906798913784 144.7026108239079,234.7947280429944 144.41623606195208,234.87124605703866 143.86551536573097,234.97327003927785 143.60116943146568,234.99877602841298 142.7861028012121,235.0497879987961 142.52175686694682,235.12630593482754 142.015093826456,235.27934173682297 141.7507478921907,235.3558596027142 140.60524884413462,235.48338932724437 140.40698939352296,235.45788338755665 139.59192276303656,235.50889526434185 139.59192276303656,235.5344011989073 139.3275768288877,235.712942667873 138.97511558327824,235.712942667873 138.60062550986186,235.6619308325171 138.4023660592502,235.63642491103383 138.2481642642524,235.61091898691666 137.65338591241743,235.5599071308825 137.34498232253827,235.5344011989073 136.7061463148566,235.50889526434185 135.97919499583077,235.5344011989073 135.69282023375854,235.5344011989073 134.98789774265606,235.10079995874548 134.50326352997217,235.0497879987961 133.95254283375107,235.10079995874548 133.4238509653369,235.1518119083048 132.89515909703914,235.10079995874548 132.6528419906972,235.07529398004408 132.14617895020638,234.99877602841298 131.6174870817922,234.97327003927785 131.37516997545026,234.97327003927785 130.8464781070361,234.99877602841298 130.5821321728872,234.99877602841298 130.0754691323964,234.9477640476398 129.89923850947525,234.8967520564911 128.7757682892261,234.84574005496688 128.64359532226808,234.7947280429944 128.68765297799837,234.7947280429944 128.7096818056889,234.82023405024665 128.73171063361224,234.82023405024665 128.73171063361224,234.82023405024665 128.73171063361224,234.7692220331519 128.75373946141917,234.7437160207337 128.73171063361224,234.7437160207337 128.73171063361224,234.7437160207337 128.73171063361224,234.7437160207337 128.73171063361224,234.7437160207337 128.57750883873086,234.7437160207337 128.29113407665864,234.7437160207337 126.70505847153254,234.64169194480928 126.41868370957673,234.69270398801018 125.60361707909033,234.7947280429944 125.16304052202031,234.7182100056234 124.96478107152507,234.66719796770485 124.74449279299006,234.61618591941078 124.28188740822952,234.56517386069754 123.75319553969894,234.64169194480928 123.22450367140118,234.64169194480928 122.71784063091036,234.56517386069754 120.86741909163538,234.5396678274701 120.36075605102815,234.66719796770485 119.87612183834426,234.64169194480928 119.61177590419538,234.61618591941078 119.10511286358815,234.514161791667 118.4222192002926,234.48865575318632 117.91555615980178,234.5906798913784 117.73932553711347,234.5906798913784 117.47497960284818,234.56517386069754 117.03440304589458,234.5396678274701 116.7700571117457,234.514161791667 116.26339407125488,234.48865575318632 115.999048137106,234.4631497121154 114.87557791674044,234.106064864769 114.17065542563796,233.927522250131 113.39964645088185,234.05505270219874 112.89298341027461,233.97853443873464 112.65066630393267,233.927522250131 112.12197443563491,233.85100394776964 111.63734022295102,233.90201615195838 111.39502311660908,233.9530283457134 110.88836007611826,234.0295466169482 110.62401414185297,234.05505270219874 110.07329344563186,234.106064864769 109.63271688867826,234.0295466169482 109.21416915964801,233.97853443873464 108.94982322538272,233.9530283457134 108.42113135708496,233.927522250131 108.13475659501273,233.927522250131 107.36374762025662,234.00404052916565 106.83505575184245,234.0295466169482 106.59273864561692,233.97853443873464 106.10810443281662,233.8765100511373 105.62347022024915,233.77448562193604 105.40318194183055,233.7489795081783 104.9405765569536,233.79999173319084 104.76434593414888,233.8765100511373 104.5,233.46841208497062 104.58811531134415,233.21335051853384 104.7202882784186,232.77974525907484 104.80840358987916,232.52468299103202 105.05072069610469,231.75949462791323 105.49129725317471,231.4789249755704 105.90984498232137,231.3513932115311 106.37245036708191,231.32588685087103 107.03331520268694,231.30038048763527 107.2976611367194,231.24936775342212 108.39910252916161,231.3513932115311 108.6634484634269,231.37689956951363 109.39039978233632,231.4534186279634 109.8750339950202,231.32588685087103 110.33763937989715,231.14734225379652 110.71212945331354,230.84126550554356 110.84430242038798,230.66272056293383 110.97647538757883,229.69347436726093 110.95444655965548,229.46391550826957 110.95444655965548,229.23435643868288 110.97647538757883,228.85175752187206 110.95444655965548,228.69871779139794 110.88836007611826,228.16307799810602 110.84430242038798,227.95902444219973 110.66807179758325,227.52541008354456 111.10864835465327,227.0152745826199 111.7254555344116,226.9897677803092 111.94574381283019,226.9387541678443 113.3776176229585,226.83672691174434 113.97239597490989,226.8112200912583 114.25877073698211,226.83672691174434 115.05180853954516,226.65817911352497 116.4396246940596,226.5561517430906 116.63788414467126,226.58165858962457 116.85817242308985,226.63267227484903 117.2767201521201,226.70919278317888 117.54106608650181,226.70919278317888 118.59844982321374,226.70919278317888 118.86279575736262,226.6836859495961 119.63380473211873,226.6836859495961 120.16249660030007,226.6071654335101 121.10973619786091,226.4541243311105 121.90277400042396,226.50513804228103 122.93812890944537,226.5561517430906 123.20247484359425,226.47963118802 123.73116671200842,226.47963118802 124.48014685884118,226.50513804228103 124.92072341579478,226.5561517430906 125.2070981777506,226.6071654335101 125.38332880055532,226.53064489393728 125.62564590689726,226.47963118802 126.13230894762091,226.4541243311105 126.37462605384644,226.4541243311105 126.9033179221442,226.47963118802 127.16766385640949,226.42861747161078 127.52012510190252,226.58165858962457 127.58621158543974,226.58165858962457 127.58621158543974,226.53064489393728 127.69635572470725,226.27557626002817 127.71838455251418,226.32659000762214 127.71838455251418,226.27557626002817 127.71838455251418,226.30108313515666 127.71838455251418,226.30108313515666 127.69635572470725,226.22456250210234 127.85055751970503,226.22456250210234 128.07084579824004,226.17354873367003 128.35722056019586,226.12253495497862 129.41460429690778,225.86746590521943 130.736333967885,226.02050736619276 132.2122654337436,226.30108313515666 132.71892847423442,226.35209687748284 133.3137068261858,226.40311060956446 134.30500407936051,225.86746590521943 135.20818602119107,225.48486184343346 136.08933913509827,225.30631308116426 136.64005983131938,225.25529912576894 136.9264345933916,225.2297921441059 137.78555887949187,224.82168008459848 138.55656785413157,224.61762380551954 139.6139515908435,224.61762380551954 139.5698939351132,224.4135673600249 139.5698939351132,224.49008854654676 139.5478651074227,224.5666097096837 139.5478651074227,224.59211675892584 140.05452814791352,224.5411026579386 140.62727767194156,224.31153907488624 140.86959477839991,224.2350178337947 141.94900734280236,224.15849656923092 142.74204514548182,224.31153907488624 143.35885232524015,224.1840036600479 143.64522708719596,224.08197528135497 144.19594778353348,223.92893263546284 145.09912972524762,223.67386135095148 145.12115855317097,223.6993684910558 145.31941800378263,223.64835420819873 146.44288822403178,223.13821080767957 146.68520533037372,223.11270361037168 147.1698395429412,223.06168920802884 147.41215664939955,223.03618200289202 147.91881969000679,222.95966037194012 148.4254827304976,222.85763149432023 148.9762034266023,222.70458810000855 149.26257818867452,222.67908085849194 149.7912700570887,222.628066367688 150.31996192538645,222.55154461212805 150.87068262160756,222.4240083007171 151.1129997279495,222.37299375794828 151.57560511282645,222.32197920480394 152.01618166978005,222.16893548298685 152.45675822685007,222.09241358703002 152.6990753330756,222.04139897676941 153.20573837356642,221.99038435600232 154.24109328258783,221.83734043156437 154.46138156100642,221.81183310165943 154.9900734294206,221.7608184341807 155.18833288003225,221.6842964134994 155.67296709271614,221.50574494089233 156.17963013320696,221.3782080967503 156.44397606735583,221.32719334091234 156.92861028003972,221.27617857466976 157.1929562141886,221.2506711876049 157.74367691052612,221.09762681092252 158.03005167248193,221.04661199796828 158.58077236881945,220.94458234075864 159.13149306492414,220.8170452107588 159.72627141687553,220.51095583375718 159.90250203968026,220.5364632960991 160.431193907978,220.48544836872315 160.6294533587061,220.40892595822515 162.12741365237162,220.23037357602152 162.59001903724857,220.07732857564406 162.81030731566716,219.92428348169778 163.3830568396952,219.54167033756676 163.47117215115577,219.54167033756676 163.49320097907912,219.6692081172514 163.47117215115577,219.69471566543507 163.51522980688605,219.72022321094119 163.75754691311158,219.64370056655025 164.3523252651794,219.4141324928787 164.61667119932827,219.23557940122555 165.10130541201215,218.903980464529 165.5639107967727,218.903980464529 166.13666032080073,218.98050333510037 166.31289094372187,219.03151856911427 166.26883328787517,219.13354900600098 166.20274680445436,219.05702618221403 166.40100625506602,218.95499571415712 166.59926570567768,218.77644229504222 167.06187109055463,218.54687342618126 167.30418819689658,218.47035042314383 167.85490889311768,218.3938273966487 168.2073701386107,218.3173043468123 168.75809083483182,218.08773505693534 169.66127277666237,217.9346887467982 169.92561871081125,217.9346887467982 170.41025292349514,217.88367328916502 171.66589611081872,217.90918101927673 172.17255915154237,217.88367328916502 172.39284742996097,217.80715008340485 172.83342398691457,217.75613459994202 173.09776992106345,217.75613459994202 174.41949959204067,217.6030880870385 175.05833559960593,217.32250257032865 175.96151754143648,216.78683843801264 176.20383464777842,216.60828347245115 176.75455534399953,216.2001573588641 177.3933913515648,215.9195702697907 178.07628501486033,215.7920305798907 179.61830296425615,215.40941112031578 180.23511014413089,215.2308551724127 180.98409029096365,214.77171072163037 182.12958933913615,214.41459778872377 182.3939352731686,214.28705733211245 183.16494424792472,215.2308551724127 183.18697307584807,216.09812572653755 183.27508838719223,216.76133059355197 183.3632036986528,217.09293236825033 183.51740549353417,217.6796113551536 184.26638564036693,219.4396400669939 184.70696219743695,220.23037357602152 184.81710633670446,221.02110458759125 184.77304868097417,221.30168595904252 184.37652977975085,221.55675966033596 184.0240685341414,221.58226701612875 183.34117487072945,221.6587890679948 183.05480010877363,221.7353110965778 182.52610824035946,221.88835508344346 181.60089747072197,221.81183310165943 181.1162632580381,221.9138624054467 179.83859124279115,222.2199500673887 179.530187652912,222.29647192436096 179.04555344034452,222.47502283306676 178.78120750607923,222.55154461212805 178.1644003263209,222.73009533892036 177.90005439217202,222.78110980882775 177.1290454174159,222.67908085849194 177.1290454174159,222.3985010306642 177.1290454174159,222.24545735561696 177.0189012781484,221.22516379802255 176.90875713899732,219.7967458319472 176.88672831107397,219.28659458324546 176.82064182753675,218.4448427502939 177.2832472124137,217.83265782133094 177.54759314656258,217.7051191060018 178.29657329351176,217.1949635951314 178.53889039973728,217.06742455495987 179.70641827571671,216.93988544985768 179.99279303778894,216.8633619555767 180.80785966815893,216.6337913324969 181.05017677450087,216.5062520064239" stroke="#4dd2ff" stroke-linecap="round" stroke-linejoin="round" stroke-width="0.5"><title>2023-02-06 10.5km</title></polyline></svg>