<?xml version="1.0" encoding="utf-8" ?>
<svg baseProfile="full" height="300mm" version="1.1" viewBox="0,0,200,300" width="200mm" xmlns="http://www.w3.org/2000/svg" xmlns:ev="http://www.w3.org/2001/xml-events" xmlns:xlink="http://www.w3.org/1999/xlink"><defs /><rect fill="#222222" height="300" width="200" x="0" y="0" /><text fill="#FFFFFF" style="font-size:12px; font-family:Arial; font-weight:bold;" x="10" y="20">Over 10km Runs</text><text fill="#FFFFFF" style="font-size:4px; font-family:Arial" x="10" y="280">ATHLETE</text><text fill="#FFFFFF" style="font-size:9px; font-family:Arial" x="10" y="290">rdshoep</text><text fill="#FFFFFF" style="font-size:4px; font-family:Arial" x="120" y="280">STATISTICS</text><text fill="#FFFFFF" style="font-size:3px; font-family:Arial" x="120" y="285">Number: 2</text><text fill="#FFFFFF" style="font-size:3px; font-family:Arial" x="120" y="290">Weekly: 1.0</text><text fill="#FFFFFF" style="font-size:3px; font-family:Arial" x="141" y="285">Total: 22.5 km</text><text fill="#FFFFFF" style="font-size:3px; font-family:Arial" x="141" y="290">Avg: 11.3 km</text><text fill="#FFFFFF" style="font-size:3px; font-family:Arial" x="167" y="285">Min: 10.5 km</text><text fill="#FFFFFF" style="font-size:3px; font-family:Arial" x="167" y="290">Max: 12.1 km</text><polyline fill="none" points="140.41311159264296,49.56659293480334 140.08538235537708,49.75633269009995 139.75765311787836,49.89863745603361 138.40577001334168,48.99737320453278 137.95514231198467,48.04867210768862 137.8732100026682,47.57432083430467 137.75031153857708,47.24227465543663 137.70934538380243,46.15126411462552 137.58644691994414,45.39229875232559 137.58644691994414,45.06025101727573 137.5454807651695,44.680767601472326 137.3816161463037,43.68462216341868 138.85639771493152,41.59745338206994 139.34799157106318,41.360274519363884 140.24924697401002,40.93335226207273 141.1505023771897,40.45899373933207 142.17465624399483,40.17437839359627 142.9939793376252,39.88976287384867 143.9362008953467,39.462839268147945 144.38682859693654,39.27309531767969 145.57484708260745,39.41540328782867 146.23030555737205,40.74360891091055 146.63996710442007,42.1192464545893 146.72189941373654,42.6410389423545 146.84479787759483,43.54231549840188 147.13156096055172,44.4435903095291 147.45929019805044,45.866652248834725 146.7628655685112,46.91022823975072 145.8616101653315,47.33714501655777 145.41098246374168,47.47945052161231 144.1410316687543,48.04867210768862 143.15784395649098,48.52302289768704 142.70721625490114,48.66532804057351 140.7408408303745,49.329418131674174 140.24924697401002,49.51915798377013 139.18412695243023,49.89863745603361 138.69253309629858,50.08837707605562 137.5454807651695,48.712763078394346 137.50451461039484,47.57432083430467 137.46354845585302,47.24227465543663 137.34064999152906,46.24613469798351 137.29968383722007,45.24999260919867 137.17678537312895,43.779493249428924 137.2587176822126,43.352573210489936 138.44673616811633,41.360274519363884 139.34799157106318,40.79104475598433 140.69987467559986,40.12694248580374 142.66625010035932,39.88976287384867 143.64943781262264,39.462839268147945 144.55069321556948,39.1307873041369 145.8206440107897,39.462839268147945 146.51706864032894,41.312838732410455 146.63996710442007,41.73976064170711 146.96769634168595,42.973088402766734 147.04962865100242,43.44744436396286 147.2134932698682,44.396154836606 148.9340717664454,47.57432083430467 149.7533948600758,47.09996907776804 150.20402256166562,46.862793018255616 152.37522875983268,49.28198315665941 152.4161949143745,49.85120253881905 152.49812722369097,50.84733478332055 152.5390933782328,51.3216827220167 152.6210256877821,52.175507793959696 152.6210256877821,52.792158261087025 152.58005953300744,53.12420048197964 152.5390933782328,53.40880791150266 152.5390933782328,53.7408496926073 152.58005953300744,54.68953919116757 152.74392415187322,55.780529724783264 152.8668226157315,56.3971754173981 151.92460105824284,57.96250312306802 151.1462441191543,58.057371299742954 150.2859548709821,58.3419757138181 149.83532716939226,58.57914592593443 148.52441021963023,59.3380897930183 147.5412225073669,59.57525949785486 147.09059480577707,59.57525949785486 146.23030555737205,59.62269342422951 144.6735916796606,60.571370938647306 143.81330243125558,61.188010286481585 143.36267472989857,61.33031155841309 142.37948701763526,61.614913971949136 141.88789316127077,61.75721511343727 140.90470544900745,62.08925094123697 140.41311159264296,62.27898559367168 139.42992388037965,62.611021049378905 138.89736386947334,62.75332188652828 137.99610846675932,63.03792343020905 137.50451461039484,63.180224136827746 136.603259207448,63.32252480002353 136.0706991967745,63.417391884635435 135.1284776388202,63.74942652854952 133.6127299158834,63.844293526082765 132.54760989407077,63.65455951160402 130.17157292272896,65.50446285598446 130.17157292272896,65.50446285598446 130.21253907727078,65.45702952879947 130.2535052318126,65.45702952879947 130.2535052318126,65.45702952879947 130.2535052318126,65.40959619657951 130.21253907727078,65.36216285967384 130.21253907727078,65.36216285967384 130.2535052318126,65.40959619657951 130.17157292272896,65.36216285967384 130.21253907727078,65.40959619657951 130.13060676772147,65.40959619657951 130.17157292272896,65.45702952879947 130.17157292272896,65.45702952879947 130.13060676772147,65.45702952879947 130.13060676772147,65.45702952879947 130.13060676772147,65.45702952879947 130.21253907727078,66.45312838695827 130.2535052318126,67.06975994564709 130.17157292272896,68.06585535389604 130.08964061341248,68.6350517734827 129.96674214908853,69.820875412639 129.88480983977206,70.43750251154415 129.67997906636447,71.52845614802209 129.63901291182265,72.09764833495137 129.47514829295687,73.1885980819352 129.43418213818222,73.71035575293354 129.2703175197821,74.6590045663761 129.14741905545816,75.18076058992301 128.8606559727341,77.31521096263896 128.77872366341762,77.83696401014458 128.57389289001003,78.83303638666985 128.49196058046073,79.35478773343493 128.32809596182778,80.39828867369215 128.2461636525113,80.8726065098017 128.04133287910372,81.86867239305866 127.9184344150126,82.34298873168882 127.95940056978725,83.86079776837141 128.0003667245619,84.38254348226474 128.08229903387837,85.28373924753396 128.16423134319484,85.75805210781982 128.2051974979695,86.75410754178301 128.1232651884202,87.22841890450218 128.0003667245619,88.22447119362187 127.87746826070361,88.69878105868702 127.71360364183784,90.0268461110245 127.59070517774671,90.50115414054017 127.42684055888094,91.49719943013042 127.34490824956447,92.01893658874906 127.18104363093153,92.96754810697166 127.09911132138222,93.44185314135393 126.93524670274928,94.29560098631191 126.93524670274928,94.76990466823918 126.73041592934169,95.62365007854532 126.64848362002522,96.097952408134 126.48461900115944,96.95169538393384 126.44365284661762,97.37856628498412 126.36172053730115,97.7580067574745 126.19785591866821,98.61174669014872 126.11592360911891,99.03861606979626 125.95205899048597,99.98721329018008 125.91109283571132,100.50894093775423 125.78819437185302,101.45753516349941 125.70626206230372,101.9792611641169 125.54239744367078,102.92785239522345 125.41949897981249,103.40214728636784 125.25563436094671,104.30330624862108 125.21466820617206,104.68274107962498 125.13273589685559,105.06217560140067 125.05080358753912,105.77361449654563 125.00983743276447,106.2479064897052 124.88693896867335,106.6747688705218 124.76404050481506,107.52849245863035 124.68210819526576,107.95535366583499 124.6411420404911,108.38221448197146 124.51824357639998,109.18850606700289 124.39534511254169,109.56793691814528 124.35437895799987,109.99479625638924 124.23148049390875,110.94337116277893 124.10858202981763,111.37022924018675 123.9856835657265,112.31880134547828 123.86278510163538,112.79308667371515 123.69892048276961,113.7416558812838 123.61698817368597,114.21593976052827 123.4531235548202,115.16450607046136 123.37119124550372,115.68621671749861 122.7976650800556,116.96677673730301 122.51090199733153,117.29877320493688 122.10124045051634,118.10504935498466 122.06027429574169,118.38961707471753 122.06027429574169,118.62675670834142 121.93737583165057,119.67016966248048 121.89640967710875,120.09701974265045 121.81447736779228,121.28271235755528 121.73254505824298,121.85184374067467 121.56868043961003,122.89524947036989 121.48674813006073,123.46437888321816 121.32288351142779,124.41292635956779 121.15901889279485,124.88719937327551 120.99515427392907,125.8831711303792 120.95418811938725,126.21516124287155 120.9132219646126,126.97399489730014 120.95418811938725,127.40083828449133 120.87225581007078,128.39680466719437 120.79032350052148,128.9185004941537 118.98781269486062,130.9578513020242 118.53718499327078,131.00527795872767 117.63592959009111,131.00527795872767 117.22626804350875,130.9578513020242 116.85757265123539,130.9578513020242 116.07921571237966,130.9578513020242 115.587621856248,130.9104246404022 114.60443414375186,130.9578513020242 114.03090797830373,130.9578513020242 112.96578795649111,131.0527046105708 112.63805871922523,131.00527795872767 111.65487100672908,131.0527046105708 108.0498493949417,131.0527046105708 107.64018784812652,131.00527795872767 107.3124586106278,130.9578513020242 107.02569552790374,130.9104246404022 106.69796629040502,130.86299797403626 106.37023705313914,130.86299797403626 106.12444012472406,130.8155713028682 105.83767704223283,130.76814462672337 105.55091395927593,130.76814462672337 104.48579393769614,130.62586456953431 67.98495011683553,139.5419975183613 66.34630392957479,142.38753594184527 68.5584762825165,144.0 50.61530053219758,110.75365633598994 64.70765774231404,121.56727813597536 64.87152236117981,121.75698855845258 64.83055620640516,121.80441615189193 73.14668560656719,125.02948118321365 72.85992252407596,124.83977209360455 72.1634978945367,124.46035368257435 71.30320864613168,123.89122548664454 70.89354709931649,123.55923371776589 70.03325785091147,122.99010442077997 69.62359630409628,122.75296700838953 68.84523936524056,122.18383672635537 68.47654397296719,121.99412647777353 67.65722087933682,121.42499526852043 67.24755933275446,121.18785705932532 65.73181160958484,120.28673076390987 65.36311621731147,120.04959197519929 64.58475927822292,119.4804583901132 64.01123311277479,118.86389622144634 63.765436184825376,118.62675670834142 63.43770694709383,118.24733323656255 62.78224847232923,117.53591339392005 62.41355308028869,117.20391709546675 61.79906075983308,116.58735191336018 61.266500749159604,115.97078591506579 60.89780535711907,115.63878850094625 60.32427919143811,115.02222124717082 59.586888407124206,113.97879788128193 59.382057633949444,113.64679904747754 59.21819301508367,113.26737151891575 58.767565313726664,112.50851553486427 58.56273454031907,112.08165850030491 58.194039148045704,111.27537192357704 57.86630991054699,110.46908395097125 57.33374989987351,109.75765222785412 57.16988528100774,109.33079267249559 56.92408835305832,108.42964343726635 56.55539296078496,107.3862053026678 55.69510371261276,106.0581897504162 54.91674677352421,104.68274107962498 54.670949845574796,104.35073561946047 54.22032214398496,103.25985886962735 53.85162675171159,102.45355702121742 53.60582982376218,102.02669077165774 53.15520212217234,101.17295709869359 52.99133750377223,100.69865993745043 52.58167595695704,99.79749400066794 52.41781133809127,99.41805518974434 51.88525132718496,98.04258690905408 51.516555935144424,96.66711456584744 51.10689438832924,95.57621981907869 50.82013130560517,95.10191695817048 49.83694359334186,93.29956168183708 49.714045129250735,92.82525650234311 49.42728204629384,91.87664469433366 49.2634174276609,90.35886178235523 49.181485118344426,89.97941528158844 49.017620499711484,88.93593581017922 48.93568819016218,88.46162618655944 48.77182357152924,87.46557440451579 48.68989126221277,87.03869441742427 48.526026643346995,86.09007082253811 48.444094334030524,85.66318957443582 48.32119587017223,84.61970043167821 48.32119587017223,84.19281783574843 48.11636509653181,83.33905146998586 48.07539894198999,82.91216770012397 48.03443278721534,81.9635356994695 48.03443278721534,81.48921897442779 48.07539894198999,80.58801586605841 47.952500477898866,79.21249196963618 47.952500477898866,78.16898837246117 47.952500477898866,77.6472356969607 48.15733125130646,75.32305758591974 48.15733125130646,74.84873409714783 48.15733125130646,73.90008567026234 47.911534323124215,72.61940722845611 47.911534323124215,72.14508098582155 47.911534323124215,71.76561964376015 47.870568168582395,70.81696493577329 47.911534323124215,70.43750251154415 47.911534323124215,69.34654631928424 47.829602013807744,68.25558757106774 47.870568168582395,67.25949256870081 47.74766970449127,66.21596218540799 47.70670354971662,65.07756273652194 47.74766970449127,64.50836196841556 47.62477124040015,63.74942652854952 47.37897431245074,63.03792343020905 47.338008157676086,62.23155193790444 47.338008157676086,61.70978140441002 47.338008157676086,60.33420174126513 47.13317738426849,59.670127345772926 47.13317738426849,58.72144799519447 47.17414353904314,58.057371299742954 47.5838050856255,56.302306902303826 47.54283893108368,56.20743836814654 48.28022971516475,55.970266947872005 48.97665434493683,55.92283264937578 52.704574420815334,56.49204391302192 53.27810058626346,56.49204391302192 54.507085226941854,56.16000409371918 55.61317140329629,55.970266947872005 57.661479137372226,55.306186328525655 59.34109147894196,54.87927685878822 59.79171918076463,54.78440803461126 60.692974583711475,54.78440803461126 61.307466903934255,54.87927685878822 63.02804540051147,54.73697361513041 64.05219926754944,54.547235889564035 65.64987930003554,54.1677602060372 66.26437162025832,54.02545674520661 67.90301780751906,53.7408496926073 68.84523936524056,53.7408496926073 69.70552861364558,53.50367701583309 70.6067840163596,53.361373351857765 71.01644556340761,53.266504218423506 71.95866712089628,53.12420048197964 72.85992252407596,53.21906964448863 73.59731330815703,53.361373351857765 74.08890716428868,53.361373351857765 74.74436563928612,53.21906964448863 75.23595949518494,53.12420048197964 76.17818105290644,53.029331300145714 78.10359032289125,52.507550454640295 78.10359032289125,52.46011580337654 78.1445564776659,52.36524648615159 78.18552263244055,52.31781182039413 78.18552263244055,52.31781182039413 78.18552263244055,52.31781182039413 78.1445564776659,52.31781182039413 78.10359032289125,52.36524648615159 78.10359032289125,52.41268114716513 78.1445564776659,52.41268114716513 78.1445564776659,52.41268114716513 78.1445564776659,52.41268114716513 78.1445564776659,52.41268114716513 78.1445564776659,52.41268114716513 78.1445564776659,52.46011580337654 78.1445564776659,52.46011580337654 78.18552263244055,52.41268114716513 78.18552263244055,52.36524648615159 78.26745494175702,52.31781182039413 79.45547342742793,52.03320372392773 80.02899959310889,51.843464896519436 81.09411961468868,51.606291253265226 81.62667962559499,51.51142176226131 82.6098673378583,51.27424794988474 83.1014611942228,51.226813172892435 84.12561506102793,50.989639215637 84.61720891739242,50.79989996284712 85.64136278419755,50.657595472352114 86.13295664056204,50.562725788069656 87.64870436373167,50.23068174047512 88.18126437463798,50.08837707605562 89.16445208690129,49.85120253881905 89.6970120978076,49.75633269009995 90.68019981007092,49.56659293480334 91.70435367710888,49.47172302796389 92.23691368801519,49.37685310188681 93.22010140027851,49.28198315665941 94.24425526731648,49.139678202278446 94.73584912344813,48.99737320453278 95.7600029904861,48.855068163131364 96.25159684661776,48.76019811158767 97.2347845591139,48.52302289768704 97.76734457002021,48.42815277830232 98.66859997296706,48.14354230437311 99.16019382909872,48.001237002172275 100.10241538658738,47.81149653135799 100.59400924295187,47.669191127759404 101.61816310998984,47.47945052161231 102.1097569661215,47.38458018974052 105.38704934064299,46.67305208358448 105.91960935131647,46.53074633193319 106.94376321858726,46.24613469798351 107.47632322926074,46.15126411462552 108.45951094175689,45.9140875718731 108.99207095243037,45.81921692090691 109.93429251015186,45.67691090810695 110.50781867559999,45.58204020894482 111.53197254287079,45.439734123821836 113.74414489557967,45.10768642259063 114.2357387514785,44.917944772634655 115.25989261874929,44.58589669931098 115.71052032033913,44.396154836606 117.02143727010116,43.921799842006294 117.47206497145817,43.68462216341868 118.37332037440501,43.257702037575655 119.31554193212651,43.02052402071422 119.807135788491,42.973088402766734 121.93737583165057,42.40386061134632 122.87959738937207,41.88206785774673 123.28925893618725,41.73976064170711 124.51824357639998,41.50258185144048 125.09176974208094,41.550017619214486 126.19785591866821,41.59745338206994 127.18104363093153,41.50258185144048 127.67263748683035,41.45514607892255 128.6558251993265,41.4077103016607 129.1883852102328,41.360274519363884 130.17157292272896,41.12309553590603 131.64635449112393,41.26540294045117 131.60538833634928,41.312838732410455 131.60538833634928,41.26540294045117 131.64635449112393,41.26540294045117 132.1789145017974,41.075659724738216 133.6536960704252,40.79104475598433 134.02239146269858,40.601301346876426 135.45620687655173,40.07950657300535 135.9887668872252,39.84232693724334 137.3816161463037,39.36796730259084 137.8732100026682,39.1307873041369 138.8154315603897,38.70386300244718 139.34799157106318,38.56155481489259 140.61794236605056,38.03975775491563 140.90470544900745,37.94488549933885 142.7481824096758,37.94488549933885 143.23977626580745,37.80257707979763 144.2229639783036,37.660268616775284 145.16518553579226,37.32821536710253 145.6158132373821,37.185906758968486 146.63996710442007,36.758980673737824 147.13156096055172,36.56923562128213 148.07378251827322,36.237181593460264 148.52441021963023,36.0 149.138902539853,36.379490491584875 149.3437333132606,36.90128941225703 149.5485640866682,37.85001322440803 149.58953024144284,38.324374405579874 149.71242870530114,39.08335128999897 150.08112409734167,40.03207065555034 150.32692102552392,40.98078808785067 150.4088533348404,41.45514607892255 150.57271795370616,42.45129628715222 150.69561641779728,42.92565278013353 151.31010873802006,45.06025101727573 151.71977028460242,46.48331107161357 151.76073643937707,47.00509866839275 150.98237950052135,48.09610720837372 150.44981948961504,48.09610720837372 149.42566562257707,48.28584756318014 148.9340717664454,48.380717711435864 147.99185020872392,48.52302289768704 146.51706864032894,48.380717711435864 145.00132091715932,48.66532804057351 144.50972706079483,48.76019811158767 143.4855731939897,48.949938195670256 142.9939793376252,49.09224320788053 141.96982547082007,49.28198315665941 141.47823161445558,49.51915798377013 140.45407774765044,49.85120253881905 139.42992388037965,50.08837707605562 138.44673616811633,50.420421225135215 137.75031153857708,50.27811661889427 137.66837922902778,49.946072368271416 137.46354845585302,49.04480820856406 137.01292075426318,46.72048732457915 137.01292075426318,46.19869940876379 137.01292075426318,44.396154836606 137.66837922902778,42.308989245066186 138.52866847766563,41.550017619214486 138.97929617902264,41.075659724738216 139.92151773674414,40.364121976774186 141.3962993051391,39.794890995457536 141.84692700672895,39.74745504884049 142.83011471899226,39.60514718017657 143.4036408844404,39.36796730259084 144.3458624421619,38.941043218481354 144.83745629829355,38.751299055234995 145.77967785601504,40.45899373933207 145.98450862942263,41.075659724738216 146.353204021696,43.732057708810316 146.55803479487076,44.301283876469824 146.84479787759483,45.344863376085414 146.72189941373654,46.53074633193319 146.353204021696,46.76792256056797 145.98450862942263,47.00509866839275 145.12421938125044,47.432015358121134 144.18199782352895,47.7166262671235 143.23977626580745,48.001237002172275 142.83011471899226,48.14354230437311 141.43726545991376,48.47558784048306 139.63475465402007,48.949938195670256 137.58644691994414,48.52302289768704 137.2587176822126,47.00509866839275 137.1358192183543,46.056393512000795 137.1358192183543,45.6294755609415 137.05388690903783,45.297427995014004 137.05388690903783,43.779493249428924 138.69253309629858,41.02822390868096 139.14316079765558,40.648737206473015 140.04441620083526,40.12694248580374 140.45407774765044,39.98463473311858 141.31436699582264,39.794890995457536 141.8059608519543,39.84232693724334 143.1988101110328,39.41540328782867 143.7313701219391,39.1307873041369 144.63262552488595,38.70386300244718 145.69774554669857,39.08335128999897 146.02547478396446,41.170531342184404 146.55803479487076,43.87436431602691 146.7628655685112,44.4435903095291 146.96769634168595,45.39229875232559 145.65677939192392,47.09996907776804 145.16518553579226,47.33714501655777 144.26393013284542,47.62175598341855 143.77233627671376,47.81149653135799 142.87108087353408,48.14354230437311 141.92885931604542,48.380717711435864 139.51185618992895,49.139678202278446 138.52866847766563,49.47172302796389 137.62741307448596,48.76019811158767 137.2587176822126,47.90636677647126 137.09485306381248,46.91022823975072 137.1358192183543,46.056393512000795 137.05388690903783,44.01667087964597 137.05388690903783,43.352573210489936 137.62741307448596,42.498731958155986 138.48770232289098,41.59745338206994 139.38895772583783,40.79104475598433 140.41311159264296,40.17437839359627 141.47823161445558,39.84232693724334 141.92885931604542,39.74745504884049" stroke="#4dd2ff" stroke-linecap="round" stroke-linejoin="round" stroke-width="0.5"><title>2023-02-19 12.1km</title></polyline><polyline fill="none" points="142.48626597761177,203.60648810991552 142.51563774805982,203.33440805386635 142.63312483008485,202.51816655491712 142.6037530595204,202.2120754782518 142.63312483008485,201.87197395271505 143.13244492793456,200.61359529546462 143.45553440309595,200.4095334445592 143.9254827303812,200.13745078272768 144.8653793853009,199.7633367604576 145.21784063091036,199.7633367604576 145.80527604022063,199.66130559076555 146.06962197448593,199.59328479351825 146.86265977693256,199.28719103484764 147.24449279310647,199.11713882526965 148.71308131620754,199.83135752289672 148.83056839823257,200.71562617414747 149.03617079136893,201.49786187452264 149.24177318473812,203.33440805386635 149.03617079136893,204.52475666205282 148.742453086772,204.7968357479258 148.15501767746173,205.17094412902952 147.1563774816459,205.47703249254846 146.48082676099148,205.74911080222228 146.09899374493398,205.8171303451236 145.04161000810564,206.12321811605943 144.6891487624962,206.1912375825923 142.86809899378568,205.78312057544827 142.75061191176064,204.62678634523763 142.8387272232212,204.2866872799932 142.86809899378568,204.04861772814183 142.92684253456537,203.47044810958323 143.0443296165904,203.13034786621574 143.13244492793456,202.45014633989194 142.95621430512983,201.15775962130283 143.30867555073928,200.37552312400658 143.9842262713937,200.03541972726816 144.33668751700316,199.93338864072575 145.01223823765758,199.83135752289672 145.36469948326703,199.79734714340884 146.3927114495309,199.52526398256305 147.12700571119785,199.2191701614356 147.4794669568073,199.15114927411196 148.21376121835783,198.91307605954353 148.88931193901226,200.1714611275529 149.0067990210373,200.54557469236897 149.21240141417366,201.19176986219827 149.3005167255178,202.2120754782518 152.94261626328807,205.68109124558396 153.06010334508028,205.98717914134613 153.29507750889752,206.53133470757166 153.47130813170224,207.14350865909364 153.5006799021503,207.44959521401324 153.53005167248193,207.72167191596236 153.58879521349445,208.33384368487168 153.6181669839425,208.60591966612265 153.64753875439055,208.87799542566063 153.7356540657347,209.4561556785775 153.7943976066308,209.79624947716366 153.97062822943553,210.4764360350091 154.0,210.81652879426838 152.94261626328807,212.14288724467042 152.23769377206918,212.27892371089547 151.56214305141475,212.58500555713545 151.23905357625335,212.75505090598017 150.24041338043753,213.1971684076998 149.53549088921864,213.2311774221307 148.50747892307118,213.4352314353455 147.9200435136445,213.8093301358167 147.03889039973728,214.4895085171156 146.68642915412784,214.5915351547883 145.98150666314177,214.8295971880434 145.6290454174159,214.93162372187362 144.27794397599064,215.4077471336932 143.89611096004955,215.50977349074674 143.19118846883066,215.67981734979548 142.8387272232212,215.7818436237576 142.10443296167068,215.91787860714248 141.3995104704518,216.08792225838988 141.0764209952904,216.22395711703575 139.96029371768236,216.25796582302428 139.63720424252097,216.08792225838988 139.46097361971624,216.12193097820273 139.46097361971624,216.12193097820273 139.4316018492682,216.12193097820273 139.13788414467126,216.15593969466863 137.8455262442585,216.7340873432695 137.05248844169546,217.2782253920741 136.40630949137267,217.4482683505339 136.0832200163277,217.51628550962778 135.4370410661213,217.6183112222352 135.08457982051186,217.65231978616794 134.37965732940938,217.7543454573315 134.05656785413157,217.78835400741082 133.38101713347714,217.8903796368977 133.0285558879841,217.9924052352726 132.32363339676522,218.0944308024482 131.97117215115577,218.16244782990543 131.23687788960524,218.2644733451598 130.8256731030997,218.36649882918573 130.0620070709847,218.46852428207058 129.00462333427276,218.33249033789616 128.71090562955942,218.16244782990543 128.06472667935304,218.02641376119573 127.7122654337436,218.12843931792304 125.18629317369778,219.216709983506 124.83383192808833,219.2507183846028 124.12890943710227,219.3527435673168 123.74707642092835,219.38675195464748 122.60157737287227,219.48877709556837 121.83791134075727,219.52278546904563 121.22110416111536,219.69282728416147 120.5455534402281,219.7268356368877 119.84063094912563,219.69282728416147 119.13570845802315,219.79485233174637 118.48952950770035,220.10092728724703 117.81397878704593,220.27096880794852 117.49088931188453,220.27096880794852 116.58036442752928,220.81510109218652 116.19853141147178,220.88311756539042 115.52298069070093,220.98514224920655 115.1705194452079,221.08716690170695 114.465596953989,221.12117511234828 114.08376393804792,221.12117511234828 113.05575197166763,221.08716690170695 112.05711177585181,221.32522430329118 109.9129725319799,221.25720792007633 109.29616535222158,221.42724885194912 108.94370410661213,221.49526520029758 108.7087299429113,221.52927336937864 108.06255099258851,221.5972896970634 107.73946151754353,221.6312978557835 106.38836007623468,221.69931416260079 106.03589883062523,221.8013385970262 105.36034810973797,222.03939548926428 105.06663040514104,222.1414198197017 104.56731030729134,222.34546838706592 103.65678542281967,222.34546838706592 103.62741365248803,222.27745221179794 103.62741365248803,222.3114603011927 103.59804188192356,222.3114603011927 103.59804188192356,222.3114603011927 103.5686701113591,222.34546838706592 103.5686701113591,222.3114603011927 103.5686701113591,222.3114603011927 103.59804188192356,222.34546838706592 103.5686701113591,222.3114603011927 103.5686701113591,222.3114603011927 103.5686701113591,222.3114603011927 103.5686701113591,222.27745221179794 103.5686701113591,222.24344411902712 103.53929834102746,222.24344411902712 103.53929834102746,222.24344411902712 102.68751699756831,222.58352489137906 102.15882512915414,222.58352489137906 101.54201794939581,222.37947646944667 100.54337775357999,222.65154100427753 100.30840358976275,222.78757318851422 99.60348109866027,223.0596373906883 99.22164808260277,223.16166140939458 98.48735382105224,223.2976933857135 98.13489257544279,223.3317013712367 97.04813706828281,223.39971733174752 96.69567582255695,223.50174124643672 96.02012510201894,223.70578898245003 95.66766385629307,223.80781280362862 94.1403317921795,223.97785243633552 93.87598585803062,223.9438445167325 92.78923035075422,224.0118603524752 92.78923035075422,224.04586826523882 92.43676910526119,224.2839235571737 91.96682077785954,224.2839235571737 91.46750067989342,224.21590777669917 91.20315474574454,224.18189988139784 90.99755235249177,224.14789198257495 90.20451454992872,224.07987617451 89.79330976342317,224.04586826523882 88.9415284198476,224.0118603524752 87.97225999447983,224.04586826523882 87.59042697842233,224.04586826523882 86.65053032361902,223.4677332783467 86.00435137329623,223.39971733174752 85.2700571117457,223.4677332783467 84.5651346205268,223.53574921109248 83.86021212954074,223.4677332783467 83.53712265426293,223.43372530673514 82.86157193372492,223.3317013712367 82.15664944238961,223.2976933857135 81.83355996734463,223.2976933857135 81.12863747612573,223.3317013712367 80.7761762306327,223.3317013712367 80.10062550986186,223.26368539684336 79.86565134604461,223.1956694086548 78.36769105237909,223.1276534066128 78.19146042969078,223.0596373906883 78.2502039707033,223.0596373906883 78.27957574103493,223.09364540033857 78.30894751148298,223.09364540033857 78.30894751148298,223.09364540033857 78.30894751148298,223.02562937754556 78.33831928193104,222.99162136099767 78.30894751148298,222.99162136099767 78.30894751148298,222.99162136099767 78.30894751148298,222.99162136099767 78.30894751148298,222.99162136099767 78.10334511823021,222.99162136099767 77.72151210217271,222.99162136099767 75.60674462863244,222.8555892597651 75.22491161269136,222.9236053173663 74.13815610553138,223.0596373906883 73.55072069610469,222.9576133408409 73.28637476195581,222.88959729028284 72.99265705735888,222.82158122587134 72.37584987760056,222.75356514760642 71.67092738638166,222.8555892597651 70.96600489516277,222.8555892597651 70.29045417462476,222.75356514760642 67.82322545559146,222.71955710329348 67.1476747347042,222.88959729028284 66.50149578461424,222.8555892597651 66.14903453888837,222.82158122587134 65.47348381823394,222.6855490555754 64.56295893387869,222.65154100427753 63.88740821310785,222.78757318851422 63.65243404940702,222.78757318851422 63.29997280379757,222.75356514760642 62.7125373944873,222.71955710329348 62.36007614899427,222.6855490555754 61.684525428456254,222.65154100427753 61.33206418273039,222.6175329494872 59.83410388906486,222.1414198197017 58.89420723414514,221.90336300019408 57.86619526788127,222.07340360296075 57.19064454711042,221.9713792516559 56.86755507206544,221.90336300019408 56.16263258084655,221.8013385970262 55.51645363064017,221.86935486926814 55.193364155478776,221.93737112762756 54.51781343482435,222.03939548926428 54.1653521892149,222.07340360296075 53.431057927547954,222.1414198197017 52.84362251823768,222.03939548926428 52.28555887949187,221.9713792516559 51.933097633882426,221.93737112762756 51.228175142779946,221.90336300019408 50.84634212672245,221.90336300019408 49.81833016034216,222.00538737222087 49.11340766923968,222.03939548926428 48.79031819407828,221.9713792516559 48.144139243871905,221.83534673484974 47.49796029366553,221.69931416260079 47.204242589185014,221.6653060109238 46.587435409310274,221.73332231093082 46.35246124560945,221.83534673484974 46.0,221.29121611331357 46.117487081792206,220.9511340247118 46.29371770459693,220.37299367875676 46.41120478650555,220.03291065472877 46.73429426155053,219.0126595039037 47.321729670860805,218.63856663409388 47.87979330972303,218.46852428207058 48.49660048948135,218.43451580117107 49.37775360350497,218.40050731686642 49.73021484911442,218.33249033789616 51.198803372331895,218.46852428207058 51.55126461794134,218.5025327593612 52.5205330431927,218.60455817062757 53.166711993399076,218.43451580117107 53.78351917327382,218.19645633839536 54.28283927112352,217.78835400741082 54.459069893928245,217.55029408392147 54.63530051673297,216.25796582302428 54.6059287461685,215.95188734438852 54.6059287461685,215.6458085849299 54.63530051673297,215.1356766958197 54.6059287461685,214.93162372187362 54.51781343482435,214.21743733080802 54.459069893928245,213.94536592296208 54.224095730111,213.36721344475518 54.81153113953769,212.68703277682653 55.63394071254879,212.65302370706922 55.927658417029306,212.58500555713545 57.836823497433215,212.4489692156494 58.62986129987985,212.41496012170683 59.01169431593735,212.4489692156494 60.06907805276569,212.21090548470966 61.919499592040665,212.07486899080686 62.18384552618954,212.10887811952853 62.47756323078647,212.17689636646537 63.035626869648695,212.27892371089547 63.38808811537456,212.27892371089547 64.79793309757952,212.27892371089547 65.15039434318896,212.24491459949058 66.17840630945284,212.24491459949058 66.88332880055532,212.14288724467042 68.14631493052002,211.93883244149038 69.20369866734836,212.00685072303168 70.58417187922169,212.07486899080686 70.93663312483113,211.97284158403636 71.64155561605003,211.97284158403636 72.64019581186585,212.00685072303168 73.22763122117613,212.07486899080686 73.60946423711721,212.14288724467042 73.84443840081804,212.04085985859274 74.16752787597943,211.97284158403636 74.84307859675027,211.93883244149038 75.16616807179525,211.93883244149038 75.87109056289773,211.97284158403636 76.22355180850718,211.90482329548104 76.69350013590883,212.10887811952853 76.78161544725299,212.10887811952853 76.78161544725299,212.04085985859274 76.92847429972608,211.70076834669453 76.95784607005771,211.76878667683923 76.95784607005771,211.70076834669453 76.95784607005771,211.7347775135422 76.95784607005771,211.7347775135422 76.92847429972608,211.63275000281283 77.13407669286244,211.63275000281283 77.4277943976922,211.56473164490308 77.80962741363328,211.49671327331453 79.21947239595465,211.15662120695924 80.98177862388548,211.360676488257 82.94968724495266,211.7347775135422 83.6252379657235,211.80279583664378 84.41827576828655,211.87081414609565 85.74000543914735,211.15662120695924 86.94424802833237,210.6464824579307 88.11911884695292,210.40841744156205 88.85341310850345,210.340398834378 89.23524612456094,210.30638952547451 90.38074517273344,209.76224011281738 91.4087571388809,209.49016507403576 92.81860212120228,209.49016507403576 92.75985858018976,209.21808981336653 92.75985858018976,209.32011806205264 92.73048680997454,209.42214627959765 92.73048680997454,209.4561556785775 93.40603753051255,209.38813687727088 94.16970356262755,209.08205209983862 94.49279303778894,208.98002377839293 95.93200979044195,208.87799542566063 96.98939352738671,209.08205209983862 97.8118031002814,208.91200488008326 98.1936361163389,208.77596704181633 98.92793037800584,208.57191018061712 100.13217296695802,208.23181513461168 100.16154473752249,208.26582465475076 100.42589067178778,208.19780561092193 101.92385096545331,207.51761441025883 102.24694044049829,207.4836048138386 102.89311939070467,207.41558561072452 103.21620886586607,207.38157600385603 103.89175958675332,207.27954716261593 104.56731030729134,207.14350865909364 105.30160456884187,206.9394508000405 105.68343758489937,206.90544114465592 106.38836007623468,206.837421823584 107.09328256722074,206.73539281619014 107.82757682877127,206.56534440096584 108.15066630404908,206.4973250105977 108.76747348380741,206.42930560640525 109.35490889300127,206.22524731067824 109.94234430242795,206.12321811605943 110.26543377747294,206.05519863570225 110.94098449812736,205.98717914134613 112.3214577101171,205.78312057544827 112.61517541471403,205.74911080222228 113.32009790593293,205.68109124558396 113.5844438400818,205.57906188469497 114.23062279028818,205.3409932545328 114.90617351105902,205.17094412902952 115.25863475655206,205.1029244545789 115.90481370675843,205.03490476621664 116.25727495236788,205.00089491679682 116.99156921403483,204.7968357479258 117.37340223009232,204.72881599731045 118.10769649175927,204.59277645434486 118.8419907533098,204.4227269476978 119.63502855587285,204.0146077783429 119.87000271957368,204.04861772814183 120.57492521067616,203.9805978249642 120.83927114494145,203.8785679443099 122.8365515365731,203.64049810136203 123.45335871633142,203.43643810087815 123.74707642092835,203.23237797559705 124.51074245304335,202.72222711678478 124.62822953483555,202.72222711678478 124.65760130540002,202.89227748967824 124.62822953483555,202.92628755391343 124.68697307584807,202.96029761459795 125.01006255089305,202.858267422067 125.80310035357252,202.552176657191 126.15556159906555,202.31410586831043 126.80174054938834,201.87197395271505 127.41854772914667,201.87197395271505 128.18221376114525,201.9740044468199 128.4171879250789,202.04202475884813 128.35844438394997,202.17806534134434 128.27032907260582,202.0760349096381 128.5346750067547,201.93999428555253 128.79902094102,201.7019230600563 129.41582812077831,201.39583123492775 129.7389175959397,201.29380056422087 130.47321185749024,201.19176986219827 130.94316018477548,201.08973912909278 131.67745444655884,200.78364674258046 132.88169703551102,200.57958499572123 133.2341582812369,200.57958499572123 133.88033723132685,200.51156438558246 135.55452814791352,200.54557469236897 136.23007886868436,200.51156438558246 136.5237965733977,200.4095334445592 137.11123198259156,200.3415127999324 137.463693228201,200.3415127999324 139.22599945613183,200.13745078272768 140.07778079947457,199.7633367604576 141.28202338865958,199.04911791734048 141.60511286370456,198.81104462995427 142.3394071252551,198.26687647850486 143.19118846883066,197.89276035971125 144.10171335318591,197.72270743985428 146.15773728583008,197.21254816043074 146.98014685884118,196.97447356322664 147.978787054657,196.36228096220293 149.506119118887,195.88613038498443 149.85858036426362,195.7160764428263 150.8865923306439,196.97447356322664 150.91596410120837,198.13083430207917 151.03345118288416,199.015107458079 151.1509382649092,199.4572431576962 151.35654065816198,200.23948180690059 152.35518085386138,202.58618675600155 152.94261626328807,203.64049810136203 153.08947511564475,204.69480611680774 153.03073157474864,205.0689146120567 152.50203970633447,205.40901288046734 152.03209137893282,205.44302268818137 151.12156649434473,205.54505209065974 150.73973347840365,205.64708146211342 150.03481098706834,205.85114011127735 148.8011966276681,205.74911080222228 148.15501767746173,205.88514987393864 146.451454990427,206.29326675651828 146.04025020392146,206.39529589915765 145.3940712538315,206.63336377745145 145.04161000810564,206.73539281619014 144.21920043521095,206.97346045190352 143.8667391894851,207.04147974512307 142.8387272232212,206.90544114465592 142.8387272232212,206.53133470757166 142.8387272232212,206.32727647415595 142.69186837098096,204.96688506403007 142.54500951862428,203.0623277759296 142.51563774805982,202.38212611101335 142.42752243671566,201.2597903337155 143.0443296165904,200.443543761794 143.39679086208344,200.27349214133574 144.39543105801567,199.59328479351825 144.71852053306065,199.4232327399659 146.2752243676223,199.25318059982965 146.6570573837962,199.15114927411196 147.74381289083976,198.84505510999588 148.06690236611757,198.67500267524156" stroke="#4dd2ff" stroke-linecap="round" stroke-linejoin="round" stroke-width="0.5"><title>2023-02-06 10.5km</title></polyline></svg>