<?xml version="1.0" encoding="utf-8" ?>
<svg baseProfile="full" height="200mm" version="1.1" viewBox="0,0,200,200" width="200mm" xmlns="http://www.w3.org/2000/svg" xmlns:ev="http://www.w3.org/2001/xml-events" xmlns:xlink="http://www.w3.org/1999/xlink"><defs /><rect fill="#1a1a1a" height="200" width="200" x="0" y="0" /><text alignment-baseline="middle" fill="#e1ed5e" style="dominant-baseline: central; font-size:9.0px; font-family:Arial;" text-anchor="middle" x="100.0" y="100.0">2023</text><line stroke="#e1ed5e" stroke-width="0.3" x1="100.0" x2="100.0" y1="15.0" y2="10.0" /><path d="M 100.0 14.0 a86.0,86.0 0 0,1 42.46469731375804,11.215312516191453" fill="none" id="id13" stroke="none" /><text fill="#e1ed5e" style="font-size:6.75px; font-family:Arial;" text-anchor="middle"><textPath startOffset="22.20632615414155" xlink:href="#id13">January</textPath></text><path d="M 106.40334571778207 80.00007090966166 l 11.028502991501263 -34.445942406340706 a57.16836776099377,57.16836776099377 0 0,0 0.934613460795807,0.30812736366882054 l -11.619799274539488 34.25100131841265" fill="#ff840c" stroke="none" /><path d="M 110.36928655335952 81.73862282372117 l 19.04445714317555 -33.53924237886265 a59.56905660275277,59.56905660275277 0 0,0 0.8873045499666131,0.5139840668864581 l -19.61895842560749 33.20645415458615" fill="#ffc112" stroke="none" /><line stroke="#e1ed5e" stroke-width="0.3" x1="143.23703022742887" x2="145.7803849466894" y1="26.81831364943548" y2="22.513508569990506" /><path d="M 143.74570117128098 25.957352633546492 a86.0,86.0 0 0,1 28.547481713284135,27.462654790039103" fill="none" id="id14" stroke="none" /><text fill="#e1ed5e" style="font-size:6.75px; font-family:Arial;" text-anchor="middle"><textPath startOffset="19.985693538727396" xlink:href="#id14">February</textPath></text><path d="M 110.99172775467656 82.1063720568725 l 18.27976087201556 -29.757945905639957 a55.92398891966759,55.92398891966759 0 0,0 0.8159066251396151,0.5109206538110093 l -18.78928664952744 29.438880910506" fill="#ff6309" stroke="none" /><path d="M 112.19680574252982 82.90503203632743 l 21.205503247059294 -29.721503015989114 a57.510835507976154,57.510835507976154 0 0,0 0.8009196764149744,0.5819022064317676 l -21.71396823982806 29.352081574740673" fill="#ff8d0c" stroke="none" /><path d="M 113.06298171725822 83.55741782278167 l 24.263080924394142 -30.540324606347518 a60.00523712278615,60.00523712278615 0 0,0 0.8032032487403342,0.6494678347728282 l -24.785187571698966 30.11815067431056" fill="#ffcc13" stroke="none" /><path d="M 114.16331599549186 84.49514656593476 l 24.740684395449207 -27.08410131723418 a57.68310249307479,57.68310249307479 0 0,0 0.727334798972382,0.6759784278348656 l -25.203227078216436 26.654218303324672" fill="#ff910d" stroke="none" /><path d="M 114.94478906791727 85.2469230424477 l 26.8974499557596 -26.552408826639574 a58.795545089594874,58.795545089594874 0 0,0 0.7048066587669627,0.7263652161137415 l -27.350520878229673 26.08547941497572" fill="#ffae10" stroke="none" /><path d="M 115.68641384162765 86.03803664274999 l 31.469498207558456 -28.00996998300445 a63.129416514881086,63.129416514881086 0 0,0 0.7154911799106981,0.8179301037944696 l -31.946981251047003 27.46412432300703" fill="#e7ff1a" stroke="none" /><path d="M 116.15771136456269 86.58626213691792 l 24.142574820069576 -20.04257674057194 a52.377839335180056,52.377839335180056 0 0,0 0.5699245366603919,0.6986600933098781 l -24.48399784880638 19.62403247765396" fill="#ff0000" stroke="none" /><path d="M 117.04232023915458 87.72973835380427 l 30.676176430478243 -22.086470963152326 a58.8,58.8 0 0,0 0.5843246645491279,0.8264857990709791 l -31.051813714831255 21.555158663749552" fill="#ffae10" stroke="none" /><path d="M 117.65298651832404 88.62581576622439 l 40.46005829712275 -26.069252174587096 a69.13130193905818,69.13130193905818 0 0,0 0.6359171319149759,1.0058681868599373 l -40.90280302528368 25.36893634001295" fill="#64ff29" stroke="none" /><line stroke="#e1ed5e" stroke-width="0.3" x1="172.23445277983987" x2="176.4835382374775" y1="55.19839476539836" y2="52.563006222186495" /><path d="M 173.08426987136738 54.67131705675599 a86.0,86.0 0 0,1 12.851231095245387,41.99856678651699" fill="none" id="id15" stroke="none" /><text fill="#e1ed5e" style="font-size:6.75px; font-family:Arial;" text-anchor="middle"><textPath startOffset="22.20632615414155" xlink:href="#id15">March</textPath></text><path d="M 118.03404312379186 89.2402003453031 l 30.218503940283174 -18.029514847569597 a56.18837003937014,56.18837003937014 0 0,0 0.4884115884746826,0.8348537256457644 l -30.524375203228182 17.50668170956994" fill="#ff6a09" stroke="none" /><path d="M 120.28053869075195 94.5502522615342 l 34.70345779193685 -9.325447094992267 a56.934578698493766,56.934578698493766 0 0,0 0.24618421853534103,0.9486482188796785 l -34.85883834234249 8.726702450563739" fill="#ff7d0b" stroke="none" /><path d="M 120.53481517161879 95.60439243477599 l 61.60444551485638 -13.186822695672053 a84.0,84.0 0 0,0 0.2904828163400124,1.4164973753463528 l -61.822307627111385 12.124449664162288" fill="#4dd2ff" stroke="none" /><line stroke="#e1ed5e" stroke-width="0.3" x1="184.98032266829074" x2="189.97916517819016" y1="98.17113171792111" y2="98.06355123074" /><path d="M 185.9800911702706 98.14961562048488 a86.0,86.0 0 0,1 -9.607161424134198,41.387399972396054" fill="none" id="id16" stroke="none" /><text fill="#e1ed5e" style="font-size:6.75px; font-family:Arial;" text-anchor="middle"><textPath startOffset="21.466115282336823" xlink:href="#id16">April</textPath></text><line stroke="#e1ed5e" stroke-width="0.3" x1="174.80103733775053" x2="179.2010983576182" y1="140.37084112569926" y2="142.7455964860345" /><path d="M 175.68104954172406 140.8457921977663 a86.0,86.0 0 0,1 -30.038265399797805,32.042727171017184" fill="none" id="id17" stroke="none" /><text fill="#e1ed5e" style="font-size:6.75px; font-family:Arial;" text-anchor="middle"><textPath startOffset="22.206326154141568" xlink:href="#id17">May</textPath></text><line stroke="#e1ed5e" stroke-width="0.3" x1="143.8653032363475" x2="146.44561519142675" y1="172.8068346515853" y2="177.08958963109032" /><path d="M 144.38136562736335 173.6633856474863 a86.0,86.0 0 0,1 -40.68145358897372,12.25698825130547" fill="none" id="id18" stroke="none" /><text fill="#e1ed5e" style="font-size:6.75px; font-family:Arial;" text-anchor="middle"><textPath startOffset="21.466115282336833" xlink:href="#id18">June</textPath></text><line stroke="#e1ed5e" stroke-width="0.3" x1="102.19456741930631" x2="102.32365962044197" y1="184.97166512339345" y2="189.96999836594603" /><path d="M 102.22038585953345 185.97133177190398 a86.0,86.0 0 0,1 -42.740103519485714,-10.115201625700543" fill="none" id="id19" stroke="none" /><text fill="#e1ed5e" style="font-size:6.75px; font-family:Arial;" text-anchor="middle"><textPath startOffset="22.20632615414155" xlink:href="#id19">July</textPath></text><line stroke="#e1ed5e" stroke-width="0.3" x1="58.666819895761336" x2="56.23545636021788" y1="174.27360380694188" y2="178.64263932499728" /><path d="M 58.180547188652646 175.14741091055294 a86.0,86.0 0 0,1 -31.652253787137756,-30.449443065178592" fill="none" id="id20" stroke="none" /><text fill="#e1ed5e" style="font-size:6.75px; font-family:Arial;" text-anchor="middle"><textPath startOffset="22.20632615414155" xlink:href="#id20">August</textPath></text><line stroke="#e1ed5e" stroke-width="0.3" x1="26.63291911575756" x2="22.317208475507996" y1="142.92168965132927" y2="145.44649492493687" /><path d="M 25.769776987707644 143.4266507060508 a86.0,86.0 0 0,1 -11.730757126820373,-40.83630448921669" fill="none" id="id21" stroke="none" /><text fill="#e1ed5e" style="font-size:6.75px; font-family:Arial;" text-anchor="middle"><textPath startOffset="21.46611528233685" xlink:href="#id21">September</textPath></text><line stroke="#e1ed5e" stroke-width="0.3" x1="15.007084014347285" x2="10.007500721073583" y1="101.09737516637583" y2="101.16192664675087" /><path d="M 14.007167355692545 101.11028546245083 a86.0,86.0 0 0,1 10.666146001902534,-42.60595125391555" fill="none" id="id22" stroke="none" /><text fill="#e1ed5e" style="font-size:6.75px; font-family:Arial;" text-anchor="middle"><textPath startOffset="22.20632615414155" xlink:href="#id22">October</textPath></text><line stroke="#e1ed5e" stroke-width="0.3" x1="26.266209847984243" x2="21.928928074336255" y1="57.711370442889674" y2="55.22380399835377" /><path d="M 25.398753493254645 57.213857153982495 a86.0,86.0 0 0,1 29.58750427330803,-30.492523968695096" fill="none" id="id23" stroke="none" /><text fill="#e1ed5e" style="font-size:6.75px; font-family:Arial;" text-anchor="middle"><textPath startOffset="21.46611528233685" xlink:href="#id23">November</textPath></text><line stroke="#e1ed5e" stroke-width="0.3" x1="56.762969772571076" x2="54.21961505331055" y1="26.818313649435495" y2="22.513508569990535" /><path d="M 56.25429882871897 25.957352633546506 a86.0,86.0 0 0,1 42.265352541879196,-11.944610805530505" fill="none" id="id24" stroke="none" /><text fill="#e1ed5e" style="font-size:6.75px; font-family:Arial;" text-anchor="middle"><textPath startOffset="22.20632615414155" xlink:href="#id24">December</textPath></text></svg>