<?xml version="1.0" encoding="utf-8" ?>
<svg baseProfile="full" height="200mm" version="1.1" viewBox="0,0,200,200" width="200mm" xmlns="http://www.w3.org/2000/svg" xmlns:ev="http://www.w3.org/2001/xml-events" xmlns:xlink="http://www.w3.org/1999/xlink"><defs /><rect fill="#1a1a1a" height="200" width="200" x="0" y="0" /><text alignment-baseline="middle" fill="#e1ed5e" style="dominant-baseline: central; font-size:9.0px; font-family:Arial;" text-anchor="middle" x="100.0" y="100.0">2025</text><line stroke="#e1ed5e" stroke-width="0.3" x1="100.0" x2="100.0" y1="15.0" y2="10.0" /><path d="M 100.0 14.0 a86.0,86.0 0 0,1 42.46469731375804,11.215312516191453" fill="none" id="id37" stroke="none" /><text fill="#e1ed5e" style="font-size:6.75px; font-family:Arial;" text-anchor="middle"><textPath startOffset="22.20632615414155" xlink:href="#id37">January</textPath></text><path d="M 100.36148047927253 79.00311137660856 l 0.883101218369977 -51.29565492059716 a72.30325605158868,72.30325605158868 0 0,0 1.2442129012252208,0.03213434845303191 l -1.7659407547900656 51.27285378000177" fill="#30ff3b" stroke="none" /><path d="M 101.44485096284872 79.0497635885617 l 4.334552888546152 -62.8507092343149 a84.0,84.0 0 0,0 1.4416392425506352,0.11189895124614191 l -5.415782320459128 62.76678502088029" fill="#4dd2ff" stroke="none" /><path d="M 102.16513564639614 79.11191278185805 l 5.277421238668009 -50.91377775967922 a72.18656015686491,72.18656015686491 0 0,0 1.2348483794021003,0.13874960347471277 l -6.153036321579835 50.815392202733904" fill="#30ff38" stroke="none" /><path d="M 102.88285421437855 79.19881850522331 l 7.13779856240392 -51.502654081217834 a72.99491846062497,72.99491846062497 0 0,0 1.243107005361926,0.1832016586235833 l -8.023274548194502 51.37215793843328" fill="#32ff4b" stroke="none" /><path d="M 103.59715602781102 79.31037775812273 l 8.829332660830506 -50.783328826471696 a72.54516080034244,72.54516080034244 0 0,0 1.2284482438560171,0.22449106452112028 l -9.702176025789424 50.62382228059984" fill="#31ff40" stroke="none" /><path d="M 104.307194497241 79.44645832069477 l 10.669273029188744 -50.91280369014823 a73.01871746364904,73.01871746364904 0 0,0 1.227956730726929,0.26838377974023986 l -11.5440724840692 50.72160641231212" fill="#32ff4b" stroke="none" /><path d="M 105.01212808612495 79.60689891045804 l 12.259594921851052 -49.881238919302234 a72.36570513263094,72.36570513263094 0 0,0 1.2070982510476704,0.3077162213557678 l -13.116402061583749 49.6628197017776" fill="#31ff3c" stroke="none" /><path d="M 105.71112130821622 79.79150937346287 l 17.08155146245643 -60.44213631378423 a83.80948369902926,83.80948369902926 0 0,0 1.3848909852910536,0.4042876548177306 l -18.119432665470914 60.1391503300478" fill="#4dd5ff" stroke="none" /><path d="M 106.74666289553966 80.11325718540242 l 16.58445108267372 -48.885014489230045 a72.6215910189315,72.6215910189315 0 0,0 1.180335995634203,0.4117960523719639 l -17.423469082371195 48.59229758368588" fill="#31ff42" stroke="none" /><path d="M 107.4271985657038 80.35727306442388 l 18.038610376705645 -47.706749024193165 a72.0031897706403,72.0031897706403 0 0,0 1.1555374822109308,0.4483305907459412 l -18.857131023916242 47.389175729556676" fill="#30ff33" stroke="none" /><line stroke="#e1ed5e" stroke-width="0.3" x1="143.23703022742887" x2="145.7803849466894" y1="26.81831364943548" y2="22.513508569990506" /><path d="M 143.74570117128098 25.957352633546492 a86.0,86.0 0 0,1 28.547481713284135,27.462654790039103" fill="none" id="id38" stroke="none" /><text fill="#e1ed5e" style="font-size:6.75px; font-family:Arial;" text-anchor="middle"><textPath startOffset="19.985693538727396" xlink:href="#id38">February</textPath></text><path d="M 115.4437574822437 85.77008943001954 l 23.093068388320862 -21.278001699396505 a52.401324238114306,52.401324238114306 0 0,0 0.605500693643786,0.6686089891898739 l -23.455912722580685 20.877339922937082" fill="#ff0000" stroke="none" /><path d="M 116.82858285166822 87.43820079747576 l 32.78546600572247 -24.472912802889066 a61.912226073268066,61.912226073268066 0 0,0 0.6301408311602885,0.859511385536124 l -33.20186944939638 23.904938973681446" fill="#fffa17" stroke="none" /><path d="M 117.2510076193507 88.02491185347247 l 33.851664982132164 -23.498724307154976 a62.20831549731424,62.20831549731424 0 0,0 0.6030519555816076,0.8849043321131389 l -34.251141403382505 22.91254195177143" fill="#fdff18" stroke="none" /><path d="M 117.65298651832404 88.62581576622439 l 33.490156490849145 -21.578400320506155 a60.83990389262486,60.83990389262486 0 0,0 0.5596471656715897,0.8852274165349119 l -33.8566312527667 20.99872525625704" fill="#ffe015" stroke="none" /><line stroke="#e1ed5e" stroke-width="0.3" x1="172.23445277983987" x2="176.4835382374775" y1="55.19839476539836" y2="52.563006222186495" /><path d="M 173.08426987136738 54.67131705675599 a86.0,86.0 0 0,1 12.851231095245387,41.99856678651699" fill="none" id="id39" stroke="none" /><text fill="#e1ed5e" style="font-size:6.75px; font-family:Arial;" text-anchor="middle"><textPath startOffset="22.20632615414155" xlink:href="#id39">March</textPath></text><path d="M 118.03404312379186 89.2402003453031 l 43.93700209583676 -26.214495370453545 a72.16307184578633,72.16307184578633 0 0,0 0.6272700298071903,1.0722078135081108 l -44.38173180011428 25.454308144591536" fill="#30ff37" stroke="none" /><path d="M 118.3937258080291 89.86733742301442 l 32.862829299945716 -18.10334480880822 a58.51928361341637,58.51928361341637 0 0,0 0.47844223980767625,0.8864808075804275 l -33.169579638971854 17.534983017895335" fill="#ffa60f" stroke="none" /><path d="M 118.89224826269711 90.83032412892265 l 44.87401362431932 -21.780370141640976 a70.88047335643961,70.88047335643961 0 0,0 0.5233065052635083,1.1022169598825695 l -45.242278323424586 21.004710766117867" fill="#42ff2d" stroke="none" /><path d="M 120.28053869075195 94.5502522615342 l 32.47679433831338 -8.727102331781296 a54.628923348844914,54.628923348844914 0 0,0 0.23621460124053267,0.9102312165799381 l -32.622205271424214 8.166774689652508" fill="#ff3f05" stroke="none" /><path d="M 120.45610955862082 95.25157060432595 l 60.700693440737965 -14.090311564171751 a83.31461356826247,83.31461356826247 0 0,0 0.312253701551355,1.3997721172567514 l -60.934241529291356 13.043361277365037" fill="#4bdeff" stroke="none" /><path d="M 120.73433829027371 96.67025291283417 l 50.56067899219739 -8.119587480559689 a72.20849500821609,72.20849500821609 0 0,0 0.18651834751492646,1.2289228670842065 l -50.69295323315162 7.248065501083401" fill="#30ff38" stroke="none" /><path d="M 120.83666639777658 97.38593545837742 l 40.32446329437127 -5.0589066238074025 a61.640557036136926,61.640557036136926 0 0,0 0.12301590409745915,1.0539251417604296 l -40.40556955147232 4.364037743722121" fill="#fff417" stroke="none" /><path d="M 120.98425023603335 99.18683210126433 l 50.0414468183438 -1.939173318143643 a71.07900550960383,71.07900550960383 0 0,0 0.03685380617987879,1.2229984086648966 l -50.06741231897932 1.0775047620537472" fill="#3eff2e" stroke="none" /><line stroke="#e1ed5e" stroke-width="0.3" x1="184.98032266829074" x2="189.97916517819016" y1="98.17113171792111" y2="98.06355123074" /><path d="M 185.9800911702706 98.14961562048488 a86.0,86.0 0 0,1 -9.607161424134198,41.387399972396054" fill="none" id="id40" stroke="none" /><text fill="#e1ed5e" style="font-size:6.75px; font-family:Arial;" text-anchor="middle"><textPath startOffset="21.466115282336823" xlink:href="#id40">April</textPath></text><path d="M 120.99513854157772 99.54816195383933 l 31.937329310302392 -0.6873258038559458 a52.944724450765676,52.944724450765676 0 0,0 0.011766316769820706,0.9113142007586416 l -31.94442863418993 0.1374753450368414" fill="#ff1001" stroke="none" /><path d="M 120.8583938346157 102.4346265915055 l 31.40337630987817 3.665454571108982 a52.61657161794557,52.61657161794557 0 0,0 -0.1127460148291751,0.8986966699820398 l -31.335628785802147 -4.205468995378417" fill="#ff0601" stroke="none" /><line stroke="#e1ed5e" stroke-width="0.3" x1="174.80103733775053" x2="179.2010983576182" y1="140.37084112569926" y2="142.7455964860345" /><path d="M 175.68104954172406 140.8457921977663 a86.0,86.0 0 0,1 -30.038265399797805,32.042727171017184" fill="none" id="id41" stroke="none" /><text fill="#e1ed5e" style="font-size:6.75px; font-family:Arial;" text-anchor="middle"><textPath startOffset="22.206326154141568" xlink:href="#id41">May</textPath></text><line stroke="#e1ed5e" stroke-width="0.3" x1="143.8653032363475" x2="146.44561519142675" y1="172.8068346515853" y2="177.08958963109032" /><path d="M 144.38136562736335 173.6633856474863 a86.0,86.0 0 0,1 -40.68145358897372,12.25698825130547" fill="none" id="id42" stroke="none" /><text fill="#e1ed5e" style="font-size:6.75px; font-family:Arial;" text-anchor="middle"><textPath startOffset="21.466115282336833" xlink:href="#id42">June</textPath></text><line stroke="#e1ed5e" stroke-width="0.3" x1="102.19456741930631" x2="102.32365962044197" y1="184.97166512339345" y2="189.96999836594603" /><path d="M 102.22038585953345 185.97133177190398 a86.0,86.0 0 0,1 -42.740103519485714,-10.115201625700543" fill="none" id="id43" stroke="none" /><text fill="#e1ed5e" style="font-size:6.75px; font-family:Arial;" text-anchor="middle"><textPath startOffset="22.20632615414155" xlink:href="#id43">July</textPath></text><line stroke="#e1ed5e" stroke-width="0.3" x1="58.666819895761336" x2="56.23545636021788" y1="174.27360380694188" y2="178.64263932499728" /><path d="M 58.180547188652646 175.14741091055294 a86.0,86.0 0 0,1 -31.652253787137756,-30.449443065178592" fill="none" id="id44" stroke="none" /><text fill="#e1ed5e" style="font-size:6.75px; font-family:Arial;" text-anchor="middle"><textPath startOffset="22.20632615414155" xlink:href="#id44">August</textPath></text><line stroke="#e1ed5e" stroke-width="0.3" x1="26.63291911575756" x2="22.317208475507996" y1="142.92168965132927" y2="145.44649492493687" /><path d="M 25.769776987707644 143.4266507060508 a86.0,86.0 0 0,1 -11.730757126820373,-40.83630448921669" fill="none" id="id45" stroke="none" /><text fill="#e1ed5e" style="font-size:6.75px; font-family:Arial;" text-anchor="middle"><textPath startOffset="21.46611528233685" xlink:href="#id45">September</textPath></text><line stroke="#e1ed5e" stroke-width="0.3" x1="15.007084014347285" x2="10.007500721073583" y1="101.09737516637583" y2="101.16192664675087" /><path d="M 14.007167355692545 101.11028546245083 a86.0,86.0 0 0,1 10.666146001902534,-42.60595125391555" fill="none" id="id46" stroke="none" /><text fill="#e1ed5e" style="font-size:6.75px; font-family:Arial;" text-anchor="middle"><textPath startOffset="22.20632615414155" xlink:href="#id46">October</textPath></text><line stroke="#e1ed5e" stroke-width="0.3" x1="26.266209847984243" x2="21.928928074336255" y1="57.711370442889674" y2="55.22380399835377" /><path d="M 25.398753493254645 57.213857153982495 a86.0,86.0 0 0,1 29.58750427330803,-30.492523968695096" fill="none" id="id47" stroke="none" /><text fill="#e1ed5e" style="font-size:6.75px; font-family:Arial;" text-anchor="middle"><textPath startOffset="21.46611528233685" xlink:href="#id47">November</textPath></text><line stroke="#e1ed5e" stroke-width="0.3" x1="56.762969772571076" x2="54.21961505331055" y1="26.818313649435495" y2="22.513508569990535" /><path d="M 56.25429882871897 25.957352633546506 a86.0,86.0 0 0,1 42.265352541879196,-11.944610805530505" fill="none" id="id48" stroke="none" /><text fill="#e1ed5e" style="font-size:6.75px; font-family:Arial;" text-anchor="middle"><textPath startOffset="22.20632615414155" xlink:href="#id48">December</textPath></text></svg>