<?xml version="1.0" encoding="utf-8" ?>
<svg baseProfile="full" height="200mm" version="1.1" viewBox="0,0,200,200" width="200mm" xmlns="http://www.w3.org/2000/svg" xmlns:ev="http://www.w3.org/2001/xml-events" xmlns:xlink="http://www.w3.org/1999/xlink"><defs /><rect fill="#1a1a1a" height="200" width="200" x="0" y="0" /><text alignment-baseline="middle" fill="#e1ed5e" style="dominant-baseline: central; font-size:9.0px; font-family:Arial;" text-anchor="middle" x="100.0" y="100.0">2024</text><line stroke="#e1ed5e" stroke-width="0.3" x1="100.0" x2="100.0" y1="15.0" y2="10.0" /><path d="M 100.0 14.0 a86.0,86.0 0 0,1 42.35913384403234,11.155469271406648" fill="none" id="id25" stroke="none" /><text fill="#e1ed5e" style="font-size:6.75px; font-family:Arial;" text-anchor="middle"><textPath startOffset="22.145653131862478" xlink:href="#id25">January</textPath></text><path d="M 100.36049292484886 79.00309439819443 l 0.8422045524016527 -49.054192926540004 a70.06142223970167,70.06142223970167 0 0,0 1.202343036783645,0.030968091623178432 l -1.684160903256039 49.03250711756678" fill="#39ff2e" stroke="none" /><path d="M 101.08105385017728 79.02784411241856 l 2.3739853542652627 -46.05468165746036 a67.11582709908043,67.11582709908043 0 0,0 1.1500956877573918,0.06918690063595467 l -3.164225394155117 46.00714277899971" fill="#6eff28" stroke="none" /><path d="M 102.15924093988457 79.11130261209362 l 6.477722819653705 -62.666092163719114 a84.0,84.0 0 0,0 1.4330563935968135,0.16057695797211657 l -7.552515114851315 62.54565944524002" fill="#4dd2ff" stroke="none" /><path d="M 102.87502721639298 79.19773525538626 l 7.959709408462196 -57.59249215482581 a79.13993572812782,79.13993572812782 0 0,0 1.3441537246688013,0.1975443090506614 l -8.94718823873868 57.44736677247627" fill="#42ffd9" stroke="none" /><path d="M 103.58742460773223 79.30868818359171 l 7.844733719529243 -45.24633943738274 a66.92135755411827,66.92135755411827 0 0,0 1.1302229099074554,0.2059642638911734 l -8.620291362987752 45.105006999560196" fill="#72ff27" stroke="none" /><path d="M 104.29559338865022 79.4440306129975 l 9.251897531296354 -44.27367891186085 a66.23003705857602,66.23003705857602 0 0,0 1.1108908667018098,0.24211349393984052 l -10.010550814617298 44.10833395978729" fill="#7fff26" stroke="none" /><path d="M 105.3480935250658 79.69241777938227 l 11.712005664201405 -44.47239317700304 a66.98874679275607,66.98874679275607 0 0,0 1.1095205744093815,0.3024047663741174 l -12.473707639545479 44.26478791648478" fill="#71ff27" stroke="none" /><path d="M 106.04205211174951 79.88797359093562 l 14.667322691238843 -48.82274695096088 a71.97833828957639,71.97833828957639 0 0,0 1.180305477159535,0.36566165393997635 l -15.503268801270009 48.56376870921425" fill="#32ff4c" stroke="none" /><path d="M 106.72888874123014 80.10723608172694 l 18.272496156307902 -54.01938807633396 a78.02612036535415,78.02612036535415 0 0,0 1.2651163625773207,0.4400731426983034 l -19.19711829093024 53.69775650106707" fill="#40ffc4" stroke="none" /><path d="M 107.74402155503746 80.48000691201159 l 17.15739747222625 -43.2478496715788 a67.5269039291831,67.5269039291831 0 0,0 1.0738242055605935,0.4367149560632778 l -17.897276138977286 42.94694745893623" fill="#67ff28" stroke="none" /><path d="M 108.4095320186766 80.7573450057729 l 18.106307903478356 -41.43077586625458 a66.2144620091336,66.2144620091336 0 0,0 1.0376329516348015,0.46412002110793 l -18.81485425796879 41.11385209423679" fill="#7fff26" stroke="none" /><path d="M 109.3889696526874 81.21577127319529 l 25.510482490492063 -51.0380537757293 a78.0584581820429,78.0584581820429 0 0,0 1.193449811298235,0.6093839773154547 l -26.38285952350388 50.59261184674101" fill="#40ffc5" stroke="none" /><path d="M 110.02825361518725 81.54914285379988 l 22.184377433023357 -40.81675579825835 a67.45593779039976,67.45593779039976 0 0,0 1.0126607824668605,0.5617058656252512 l -22.88178240364632 40.429917017199955" fill="#68ff28" stroke="none" /><line stroke="#e1ed5e" stroke-width="0.3" x1="143.13028292997686" x2="145.6673583964461" y1="26.7553504044142" y2="22.446841604673864" /><path d="M 143.63769802327073 25.89364864446614 a86.0,86.0 0 0,1 29.32050498858742,28.57503671076993" fill="none" id="id26" stroke="none" /><text fill="#e1ed5e" style="font-size:6.75px; font-family:Arial;" text-anchor="middle"><textPath startOffset="20.669276256404974" xlink:href="#id26">February</textPath></text><path d="M 110.65571695917076 81.90426304109057 l 25.20625463133514 -42.80573097762065 a70.6758077646266,70.6758077646266 0 0,0 1.040170337328087,0.6245924010442542 l -25.93735772522066 42.366724576040475" fill="#2fff30" stroke="none" /><path d="M 111.5731344415666 82.4767994020092 l 18.70999952009058 -28.329323955773383 a54.95017934905419,54.95017934905419 0 0,0 0.7826572672875062,0.5266067383150921 l -19.193553075475087 28.00396754340117" fill="#ff8d0d" stroke="none" /><path d="M 112.16784306229584 82.88440491214696 l 31.75226446905017 -44.66353642073893 a75.7999797857552,75.7999797857552 0 0,0 1.0540492147957092,0.7630503455545323 l -32.51429469421985 44.11188530381132" fill="#3bff9a" stroke="none" /><path d="M 116.57777611688842 87.10902102172516 l 27.24646589723945 -21.187016680469057 a55.51462848862648,55.51462848862648 0 0,0 0.5785365082212465,0.7573228605330206 l -27.606154382815003 20.716172906695157" fill="#ff9b0e" stroke="none" /><path d="M 117.21940702142032 87.97951657250589 l 32.45035929219729 -22.652871007860803 a60.574971675182226,60.574971675182226 0 0,0 0.5878952818820534,0.8577567857292789 l -32.83444431089467 22.092479487061475" fill="#f2ff19" stroke="none" /><path d="M 117.81537515405839 88.88188828441811 l 34.35330712089639 -21.43900440304864 a61.494204769776246,61.494204769776246 0 0,0 0.5511990160957757,0.9003421685782175 l -34.71627410144757 20.846125118345864" fill="#deff1b" stroke="none" /><line stroke="#e1ed5e" stroke-width="0.3" x1="172.87174338648825" x2="177.1583165268699" y1="56.24261187166439" y2="53.66864786411523" /><path d="M 173.72905801456457 55.72781907015455 a86.0,86.0 0 0,1 12.242430191666344,42.057860355516425" fill="none" id="id27" stroke="none" /><text fill="#e1ed5e" style="font-size:6.75px; font-family:Arial;" text-anchor="middle"><textPath startOffset="22.145653131862474" xlink:href="#id27">March</textPath></text><path d="M 118.36410011445183 89.81374322990088 l 40.842951470977155 -22.654896691870352 a67.70536402791346,67.70536402791346 0 0,0 0.5550377749234043,1.0212069906516215 l -41.2258345955159 21.95043486774413" fill="#63ff29" stroke="none" /><path d="M 118.70294669586156 90.45014215332178 l 35.29173100737343 -18.020209315904108 a60.62618100808858,60.62618100808858 0 0,0 0.4653206245964124,0.9309529551218481 l -35.59587154518157 17.41172450461851" fill="#f1ff19" stroke="none" /><path d="M 119.16976305983485 91.42560881287824 l 42.58475417979282 -19.04761888841561 a67.65054205335356,67.65054205335356 0 0,0 0.46506886360430244,1.0641685733546038 l -42.90545692541409 18.313788245285156" fill="#65ff29" stroke="none" /><path d="M 119.58574465831526 92.42381321644754 l 54.786477047747084 -21.192586269642764 a79.7425210567232,79.7425210567232 0 0,0 0.48289532731886,1.28093722712943 l -55.14220305888038 20.248980762319174" fill="#44ffe4" stroke="none" /><path d="M 119.94978838288452 93.4421083053983 l 43.519833099158454 -14.305833553416239 a66.81083656337938,66.81083656337938 0 0,0 0.34880119313263414,1.0926147695641997 l -43.75899900806834 13.556649750160652" fill="#74ff27" stroke="none" /><path d="M 120.16314734710363 94.1308016681162 l 54.501369694308025 -15.864554406540327 a77.76339828686893,77.76339828686893 0 0,0 0.362086778375948,1.2849182388532154 l -54.76567496475855 14.926628243784098" fill="#3fffbf" stroke="none" /><path d="M 120.35273937422433 94.82641323984039 l 32.92190179062337 -8.368618695080961 a54.96888865381246,54.96888865381246 0 0,0 0.2246198238111535,0.9165255328523149 l -33.06070914095082 7.802237337620552" fill="#ff8e0d" stroke="none" /><path d="M 120.43855184770803 95.1765574152323 l 38.21684118270025 -9.019070460053754 a60.266659928585064,60.266659928585064 0 0,0 0.22898213678566248,1.0089375447172955 l -38.36603418104358 8.361698581397432" fill="#f8ff18" stroke="none" /><path d="M 120.592083275326 95.88100663000786 l 44.54877739186813 -8.911003139649814 a66.43126174854788,66.43126174854788 0 0,0 0.2140785614713695,1.1201494946076807 l -44.69518224562165 8.144951080008818" fill="#7bff26" stroke="none" /><path d="M 120.7213421655516 96.59031103205396 l 45.42106760911472 -7.474019390336491 a67.03188404355069,67.03188404355069 0 0,0 0.17708709075700108,1.1370261563673336 l -45.54267619200999 6.693205052037716" fill="#70ff27" stroke="none" /><path d="M 120.82617615685814 97.30363454192243 l 56.26243875557826 -7.2842991101748344 a77.73202824024264,77.73202824024264 0 0,0 0.15997219482610453,1.3247992577500318 l -56.37919303666403 6.3174061755013895" fill="#3fffbf" stroke="none" /><path d="M 120.9064616781168 98.02013634271609 l 45.57089133184908 -4.3156107890031885 a66.77478162985989,66.77478162985989 0 0,0 0.09827459977754363,1.1420998155967599 l -45.638259554324364 3.532689926030767" fill="#75ff27" stroke="none" /><path d="M 120.96210409425399 98.7389718711861 l 45.41085925926263 -2.73180452792603 a66.49295434068176,66.49295434068176 0 0,0 0.058762073566654305,1.1399685287789805 l -45.45106292228586 1.9518642057703186" fill="#7aff26" stroke="none" /><path d="M 120.99303781780057 99.45929381324524 l 46.84209352463497 -1.2064861688497102 a67.85762835063545,67.85762835063545 0 0,0 0.019997217838105086,1.1647376863814982 l -46.855902174071744 0.40220156649914546" fill="#61ff29" stroke="none" /><line stroke="#e1ed5e" stroke-width="0.3" x1="184.99686870605535" x2="189.99668451229388" y1="99.2704041080226" y2="99.22748670261217" /><path d="M 185.99683186730306 99.26182062694052 a86.0,86.0 0 0,1 -10.086455211305974,41.156179273409016" fill="none" id="id28" stroke="none" /><text fill="#e1ed5e" style="font-size:6.75px; font-family:Arial;" text-anchor="middle"><textPath startOffset="21.40746469413373" xlink:href="#id28">April</textPath></text><path d="M 120.99922638620191 100.18025310272382 l 47.004355931813734 0.40347586346379305 a68.00608757743012,68.00608757743012 0 0,0 -0.02004096784189887,1.1672859047696253 l -46.99050353237316 -1.2103086842024897" fill="#5eff2a" stroke="none" /><path d="M 120.86939407059847 102.33845913500097 l 45.49815602141499 5.09816328227141 a66.78289495217315,66.78289495217315 0 0,0 -0.13743892349395062,1.13819144651155 l -45.40393501166138 -5.878448405706369" fill="#75ff27" stroke="none" /><path d="M 120.77682067341334 103.0534771498775 l 47.64565599234824 7.002270662600737 a69.15745351836524,69.15745351836524 0 0,0 -0.1827024918436202,1.1730810595603849 l -47.518432008366354 -7.819139904092573" fill="#49ff2c" stroke="none" /><path d="M 120.65975698304385 103.76489593502545 l 44.7440850606979 8.153862801954187 a66.48096993811875,66.48096993811875 0 0,0 -0.21423874897099077,1.1209876632945321 l -44.59752001944475 -8.920753030282032" fill="#7aff26" stroke="none" /><path d="M 120.51834098615036 104.47187691870673 l 55.659374371952595 12.130701587014135 a77.96595366067666,77.96595366067666 0 0,0 -0.29623029859145134,1.305245353752168 l -55.44293321180348 -13.08438127470532" fill="#40ffc3" stroke="none" /><path d="M 120.35273937422433 105.17358676015961 l 27.40856164694685 6.967149190307307 a49.28021250617621,49.28021250617621 0 0,0 -0.21544961410691726,0.8180972775382964 l -27.2849225520352 -7.436626972218407" fill="#ff0000" stroke="none" /><path d="M 120.16314734710363 105.8691983318838 l 43.47100451321396 12.653775860588468 a66.27522807140656,66.27522807140656 0 0,0 -0.3273481213411921,1.089635431738342 l -43.247380071869145 -13.398148895917533" fill="#7eff26" stroke="none" /><path d="M 119.94978838288452 106.5578916946017 l 43.357812101119976 14.252574033215058 a66.64028633530143,66.64028633530143 0 0,0 -0.3665678372532967,1.0836926760032344 l -43.10675884229432 -14.994768383692453" fill="#77ff27" stroke="none" /><path d="M 119.71291397450082 107.23885506374661 l 44.80665187067571 16.453623203709306 a68.73214606938984,68.73214606938984 0 0,0 -0.4162200007433471,1.1040730018825502 l -44.51760118611792 -17.220364485786014" fill="#51ff2b" stroke="none" /><path d="M 119.4528033332814 107.91128576633889 l 57.233306246075024 23.276287397118768 a82.78541008078105,82.78541008078105 0 0,0 -0.546676039412049,1.3118234841645835 l -56.82530436212649 -24.25534339072463" fill="#4ae6ff" stroke="none" /><path d="M 119.16976305983485 108.57439118712176 l 42.17782156810875 18.86560310718319 a67.20475746964786,67.20475746964786 0 0,0 -0.48008369790930433,1.049069521244774 l -41.847753405344385 -19.586861610642654" fill="#6dff28" stroke="none" /><path d="M 118.8641267826498 109.22738970284198 l 41.29162333611455 20.197802123325857 a66.9668290003192,66.9668290003192 0 0,0 -0.5139866338193585,1.0283175736348937 l -40.938816789083454 -20.903651553124497" fill="#71ff27" stroke="none" /><line stroke="#e1ed5e" stroke-width="0.3" x1="174.33088141563837" x2="178.70328620479359" y1="141.23008692659167" y2="143.65538615756765" /><path d="M 175.20536237346943 141.71514677278685 a86.0,86.0 0 0,1 -30.301960400862466,31.631185727798858" fill="none" id="id29" stroke="none" /><text fill="#e1ed5e" style="font-size:6.75px; font-family:Arial;" text-anchor="middle"><textPath startOffset="22.145653131862474" xlink:href="#id29">May</textPath></text><path d="M 117.423217284605 111.72311816256416 l 39.11806627361801 26.320380772719968 a68.14854772957634,68.14854772957634 0 0,0 -0.6613987356389837,0.9650005214379627 l -38.66047780116371 -26.988016029227975" fill="#5bff2a" stroke="none" /><path d="M 117.01052211995028 112.31430620078461 l 43.3493544184472 31.381589592069158 a74.5160788345074,74.5160788345074 0 0,0 -0.7589923224396851,1.0297188540855713 l -42.80426007642368 -32.121114755423605" fill="#38ff80" stroke="none" /><path d="M 116.57777611688842 112.89097897827486 l 38.90131286510701 30.24989617639454 a70.27847766836541,70.27847766836541 0 0,0 -0.7487454598962235,0.9460154289944877 l -38.37630097456922 -30.91323154930371" fill="#35ff2f" stroke="none" /><path d="M 116.1254893667686 113.45245675266167 l 47.715422890369105 39.805902832968236 a83.13913003860344,83.13913003860344 0 0,0 -0.9236576677759591,1.0880664101359094 l -47.02507065908603 -40.6191360255537" fill="#4be0ff" stroke="none" /><path d="M 115.6541949942343 113.99807769240083 l 36.93071375071046 33.02367196196707 a70.54231048294503,70.54231048294503 0 0,0 -0.8149393671946868,0.8957611209116947 l -36.35837668267389 -33.65277065843644" fill="#31ff2f" stroke="none" /><path d="M 115.16444852881244 114.52719865689866 l 35.141402720405544 33.66466887545887 a69.66444405982683,69.66444405982683 0 0,0 -0.8346901721877944,0.8564656488554191 l -34.558325747066945 -34.26295721638203" fill="#40ff2d" stroke="none" /><path d="M 114.65682725009322 115.03919595460226 l 35.668693645867016 36.59922192106474 a72.10536910765893,72.10536910765893 0 0,0 -0.8938576902648081,0.8562954473947091 l -35.035163469736894 -37.20612949876502" fill="#33ff4f" stroke="none" /><path d="M 114.13192950727249 115.5334660781643 l 31.7775579921952 34.92910284222981 a68.22134493330739,68.22134493330739 0 0,0 -0.8730219667012117,0.7806616259448151 l -31.17327099867061 -35.469459998058014" fill="#5aff2a" stroke="none" /><path d="M 113.59037401385872 116.0094264158162 l 29.271010223311613 34.48117644215278 a66.22989684189082,66.22989684189082 0 0,0 -0.8730540615069253,0.7283327493527805 l -28.674781827642793 -34.97857137541743" fill="#7fff26" stroke="none" /><path d="M 113.03279911837588 116.46651593811092 l 28.467215159831166 35.96739640389764 a66.86977156070466,66.86977156070466 0 0,0 -0.906212951937639,0.7046766726067493 l -27.845592263258297 -36.45077412812518" fill="#73ff27" stroke="none" /><line stroke="#e1ed5e" stroke-width="0.3" x1="143.1302829299769" x2="145.66735839644613" y1="173.24464959558577" y2="177.55315839532614" /><path d="M 143.63769802327073 174.10635135553383 a86.0,86.0 0 0,1 -40.68552437913181,11.842963189579606" fill="none" id="id30" stroke="none" /><text fill="#e1ed5e" style="font-size:6.75px; font-family:Arial;" text-anchor="middle"><textPath startOffset="21.407464694133747" xlink:href="#id30">June</textPath></text><line stroke="#e1ed5e" stroke-width="0.3" x1="101.45913802915013" x2="101.54496967792366" y1="184.9874750549273" y2="189.98673829345242" /><path d="M 101.47630435890484 185.9873277026323 a86.0,86.0 0 0,1 -42.54439059252881,-10.42667462771756" fill="none" id="id31" stroke="none" /><text fill="#e1ed5e" style="font-size:6.75px; font-family:Arial;" text-anchor="middle"><textPath startOffset="22.145653131862474" xlink:href="#id31">July</textPath></text><line stroke="#e1ed5e" stroke-width="0.3" x1="58.13341422392154" x2="55.67067388415222" y1="173.97424548756322" y2="178.32567169271397" /><path d="M 57.64086615596768 174.84453072859336 a86.0,86.0 0 0,1 -31.369924170532247,-30.572349798747897" fill="none" id="id32" stroke="none" /><text fill="#e1ed5e" style="font-size:6.75px; font-family:Arial;" text-anchor="middle"><textPath startOffset="22.145653131862474" xlink:href="#id32">August</textPath></text><line stroke="#e1ed5e" stroke-width="0.3" x1="26.387840678322732" x2="22.057713659400548" y1="142.50000000000003" y2="145.00000000000006" /><path d="M 25.521815274538298 143.00000000000003 a86.0,86.0 0 0,1 -11.493303480769221,-40.785679425670985" fill="none" id="id33" stroke="none" /><text fill="#e1ed5e" style="font-size:6.75px; font-family:Arial;" text-anchor="middle"><textPath startOffset="21.40746469413373" xlink:href="#id33">September</textPath></text><line stroke="#e1ed5e" stroke-width="0.3" x1="15.003131293944662" x2="10.003315487706104" y1="100.72959589197737" y2="100.7725132973878" /><path d="M 14.003168132696942 100.73817937305945 a86.0,86.0 0 0,1 10.791469493833604,-42.45332614584628" fill="none" id="id34" stroke="none" /><text fill="#e1ed5e" style="font-size:6.75px; font-family:Arial;" text-anchor="middle"><textPath startOffset="22.145653131862435" xlink:href="#id34">October</textPath></text><line stroke="#e1ed5e" stroke-width="0.3" x1="26.387840678322718" x2="22.05771365940052" y1="57.49999999999999" y2="54.99999999999999" /><path d="M 25.521815274538284 56.99999999999999 a86.0,86.0 0 0,1 29.574782752854787,-30.34633250058573" fill="none" id="id35" stroke="none" /><text fill="#e1ed5e" style="font-size:6.75px; font-family:Arial;" text-anchor="middle"><textPath startOffset="21.40746469413373" xlink:href="#id35">November</textPath></text><line stroke="#e1ed5e" stroke-width="0.3" x1="56.869717070023135" x2="54.33264160355391" y1="26.7553504044142" y2="22.446841604673864" /><path d="M 56.362301976729285 25.89364864446614 a86.0,86.0 0 0,1 42.16139366436587,-11.88097634709845" fill="none" id="id36" stroke="none" /><text fill="#e1ed5e" style="font-size:6.75px; font-family:Arial;" text-anchor="middle"><textPath startOffset="22.145653131862474" xlink:href="#id36">December</textPath></text></svg>